<?xml version="1.0" encoding="utf-8"?>
<!-- Generator: Adobe Illustrator 16.0.0, SVG Export Plug-In . SVG Version: 6.00 Build 0)  -->
<!DOCTYPE svg PUBLIC "-//W3C//DTD SVG 1.1//EN" "http://www.w3.org/Graphics/SVG/1.1/DTD/svg11.dtd">
<svg version="1.1" id="Layer_1" xmlns="http://www.w3.org/2000/svg" xmlns:xlink="http://www.w3.org/1999/xlink" x="0px" y="0px"
	 width="30px" height="30px" viewBox="0 -7.5 30 30" enable-background="new 0 -7.5 30 30" xml:space="preserve">
<g id="Layer_1_1_">
	<polygon display="none" fill="#972068" points="17.811,5.625 16.561,5.625 15.31,5.625 9.355,5.625 9.355,6.875 15.31,6.875 
		16.561,6.875 17.811,6.875 20.605,6.875 20.605,5.625 	"/>
</g>
<g>
	<polygon fill="#972068" points="25.257,3.521 25.257,1.241 22.978,1.241 22.978,-0.992 20.698,-0.992 20.698,1.287 22.978,1.287 
		22.978,3.521 25.221,3.521 25.221,18.317 20.188,18.317 17.909,18.317 15.629,18.317 4.779,18.317 4.779,3.521 7.022,3.521 
		7.022,1.241 4.743,1.241 4.743,3.521 2.5,3.521 2.5,18.317 4.771,18.317 4.771,20.597 15.629,20.597 17.909,20.597 20.188,20.597 
		25.285,20.597 25.285,18.317 27.5,18.317 27.5,3.521 	"/>
	<rect x="18.419" y="5.8" fill="#972068" width="2.279" height="2.279"/>
	<rect x="20.698" y="3.521" fill="#972068" width="2.279" height="2.279"/>
	<rect x="7.022" y="3.521" fill="#972068" width="2.279" height="2.279"/>
	<rect x="9.302" y="5.8" fill="#972068" width="2.279" height="2.279"/>
	<rect x="13.86" y="10.369" fill="#972068" width="2.279" height="2.279"/>
	<rect x="11.581" y="8.079" fill="#972068" width="2.279" height="2.279"/>
	<rect x="16.14" y="8.09" fill="#972068" width="2.279" height="2.279"/>
	<polygon fill="#972068" points="16.14,-3.317 18.419,-3.317 18.419,-5.597 16.14,-5.597 13.86,-5.597 11.581,-5.597 11.581,-3.317 
		13.86,-3.317 	"/>
	<rect x="7.022" y="-1.038" fill="#972068" width="2.279" height="2.279"/>
	<rect x="9.302" y="-3.317" fill="#972068" width="2.279" height="2.279"/>
	<rect x="18.419" y="-3.271" fill="#972068" width="2.279" height="2.279"/>
</g>
</svg>
