<?xml version="1.0" encoding="utf-8"?>
<!-- Generator: Adobe Illustrator 16.0.0, SVG Export Plug-In . SVG Version: 6.00 Build 0)  -->
<!DOCTYPE svg PUBLIC "-//W3C//DTD SVG 1.1//EN" "http://www.w3.org/Graphics/SVG/1.1/DTD/svg11.dtd">
<svg version="1.1" id="Layer_1" xmlns="http://www.w3.org/2000/svg" xmlns:xlink="http://www.w3.org/1999/xlink" x="0px" y="0px"
	 width="30px" height="30px" viewBox="0 -7.5 30 30" enable-background="new 0 -7.5 30 30" xml:space="preserve">
<g>
	<rect x="2.5" y="17.688" fill="#972068" width="2.293" height="2.293"/>
	<rect x="4.793" y="15.395" fill="#972068" width="2.293" height="2.293"/>
	<rect x="7.087" y="13.1" fill="#972068" width="2.294" height="2.295"/>
	<rect x="9.381" y="10.807" fill="#972068" width="2.293" height="2.293"/>
	<polygon fill="#972068" points="11.692,4.129 11.692,1.836 11.692,-0.458 9.398,-0.458 9.398,1.836 9.398,4.129 9.398,6.423 
		9.398,8.717 11.692,8.717 11.692,6.423 	"/>
	<polygon fill="#972068" points="18.444,10.953 16.151,10.953 13.986,10.953 13.986,8.717 11.692,8.717 11.692,11.012 
		13.858,11.012 13.858,13.248 16.151,13.248 18.444,13.248 20.737,13.248 23.031,13.248 23.031,10.953 20.737,10.953 	"/>
	<polygon fill="#972068" points="25.324,-0.458 25.324,-2.688 23.031,-2.688 23.031,-0.394 25.206,-0.394 25.206,1.836 
		25.206,4.129 25.206,6.423 25.206,8.66 23.031,8.66 23.031,10.953 25.324,10.953 25.324,8.717 27.5,8.717 27.5,6.423 27.5,4.129 
		27.5,1.836 27.5,-0.458 	"/>
	<polygon fill="#972068" points="13.986,-2.688 16.151,-2.688 18.444,-2.688 20.737,-2.688 23.031,-2.688 23.031,-4.981 
		20.737,-4.981 18.444,-4.981 16.151,-4.981 13.858,-4.981 13.858,-2.751 11.692,-2.751 11.692,-0.458 13.986,-0.458 	"/>
</g>
</svg>
