<?xml version="1.0" encoding="utf-8"?>
<!-- Generator: Adobe Illustrator 16.0.0, SVG Export Plug-In . SVG Version: 6.00 Build 0)  -->
<!DOCTYPE svg PUBLIC "-//W3C//DTD SVG 1.1//EN" "http://www.w3.org/Graphics/SVG/1.1/DTD/svg11.dtd">
<svg version="1.1" id="Layer_1" xmlns="http://www.w3.org/2000/svg" xmlns:xlink="http://www.w3.org/1999/xlink" x="0px" y="0px"
	 width="30px" height="30px" viewBox="0 0 30 30" enable-background="new 0 0 30 30" xml:space="preserve">
<g>
	<path fill="#972068" d="M9.662,26.105v-0.021c-2.741-0.128-5.391-0.968-7.674-2.435l-1.051-0.674l0.437-1.218l1.24,0.149
		c0.374,0.044,0.747,0.066,1.109,0.066c1.343,0,2.689-0.297,3.919-0.86c-1.531-0.714-2.728-2.054-3.246-3.659l-0.492-1.528
		l0.059,0.013c-0.902-1.084-1.411-2.473-1.411-3.894v-1.683l0.504,0.281C2.358,8.91,2.483,6.913,3.419,5.301l0.692-1.189
		l0.867,1.067c2.165,2.665,5.344,4.444,8.75,4.905c-0.031-1.715,0.659-3.358,1.917-4.539c1.131-1.063,2.61-1.649,4.166-1.649
		c1.496,0,2.924,0.541,4.033,1.525c0.87-0.219,1.704-0.562,2.479-1.022l2.159-1.281l-0.771,2.39
		c-0.076,0.236-0.194,0.491-0.354,0.762l2.754-1.221L28.29,7.773c-0.659,0.984-1.461,1.854-2.386,2.586l0.002,0.203
		c0,7.64-5.814,15.543-15.544,15.543H9.662L9.662,26.105z M6.273,23.578c1.313,0.415,2.67,0.624,4.042,0.624h0.395
		c8.321-0.183,13.296-7.078,13.296-13.639c0-0.199,0-0.396-0.014-0.594l-0.041-0.527c0,0,0.525-0.38,0.57-0.415L21.298,9.66
		l2.61-2.303c-0.059,0.012-0.689,0.137-0.689,0.137l-0.359-0.382c-0.797-0.849-1.879-1.315-3.047-1.315
		c-1.069,0-2.088,0.402-2.867,1.134c-1.08,1.016-1.543,2.546-1.207,3.993l0.283,1.227l-1.257-0.063
		c-3.8-0.19-7.492-1.834-10.189-4.523c-0.309,1.628,0.394,3.345,1.783,4.272l2.751,1.837l-3.306-0.097
		c-0.372-0.011-0.744-0.057-1.111-0.138c0.488,1.372,1.677,2.417,3.113,2.706l1.182,0.238l0.046,1.287l-1.162,0.321
		c-0.315,0.089-0.642,0.149-0.976,0.185c0.772,0.986,1.95,1.579,3.215,1.604l2.663,0.049l-2.094,1.646
		C9.395,22.482,7.884,23.203,6.273,23.578z"/>
	<path fill="#972068" d="M9.862,25.906v-0.014c-2.778-0.097-5.453-0.926-7.767-2.41l-0.917-0.588l0.329-0.918l1.082,0.131
		c0.382,0.045,0.763,0.067,1.133,0.067c1.526,0,3.051-0.376,4.403-1.073c-1.656-0.625-2.985-1.988-3.539-3.707l-0.389-1.207
		l0.324,0.062c-1.112-1.085-1.77-2.589-1.771-4.204v-1.342l0.743,0.415C2.568,9.361,2.561,7.178,3.592,5.401l0.546-0.939
		l0.685,0.842c2.264,2.786,5.559,4.589,9.115,5.007c-0.1-1.729,0.566-3.42,1.843-4.622c1.095-1.028,2.525-1.594,4.029-1.594
		c1.49,0,2.893,0.546,3.979,1.544c0.928-0.222,1.812-0.582,2.637-1.07l1.706-1.011l-0.608,1.887C27.402,5.819,27.17,6.239,26.83,6.7
		c0.143-0.049,0.266-0.096,0.365-0.141l2.365-1.048l-1.438,2.151c-0.666,0.994-1.479,1.868-2.419,2.601
		c0.001,0.1,0.001,0.2,0.001,0.3c0,7.542-5.739,15.343-15.344,15.343H9.862z M5.51,23.525c1.536,0.576,3.169,0.877,4.806,0.877
		h0.395c8.456-0.187,13.496-7.127,13.496-13.839c0-0.204,0-0.406-0.016-0.608L24.16,9.539l0.34-0.247
		c0.27-0.195,0.529-0.404,0.775-0.625c-0.344,0.076-0.574,0.121-0.58,0.122l-2.713,0.532l2.076-1.831
		c0.021-0.018,0.241-0.217,0.534-0.511c-0.296,0.084-0.595,0.156-0.897,0.216l-0.406,0.08l-0.284-0.302
		c-0.835-0.889-1.969-1.378-3.192-1.378c-1.121,0-2.188,0.422-3.004,1.188c-1.133,1.065-1.618,2.668-1.267,4.184l0.224,0.968
		l-0.992-0.05C10.867,11.69,7.154,9.98,4.462,7.163c-0.505,1.795,0.188,3.774,1.784,4.838l2.172,1.45l-2.61-0.076
		c-0.474-0.014-0.952-0.088-1.413-0.218c0.419,1.591,1.716,2.849,3.369,3.182l1.027,0.207l0.035,0.972l-1.01,0.279
		c-0.42,0.117-0.854,0.186-1.292,0.204c0.785,1.194,2.119,1.948,3.582,1.976l2.103,0.039l-1.653,1.301
		C9.097,22.463,7.35,23.223,5.51,23.525z"/>
	<path fill="#972068" d="M10.362,25.406v-0.004c-2.813-0.01-5.604-0.805-7.997-2.342l-0.917-0.588l1.082,0.131
		c0.401,0.047,0.802,0.071,1.192,0.071c0.005,0,0.011,0,0.017,0c2.018,0,4.004-0.618,5.666-1.755
		c-2.009-0.295-3.708-1.708-4.342-3.68l-0.13-0.4l0.415,0.08c0.39,0.074,0.787,0.102,1.186,0.079
		c-1.951-0.829-3.281-2.769-3.282-4.952v-0.49l0.372,0.208c0.427,0.238,0.889,0.409,1.366,0.509C3.2,10.59,2.754,7.841,4.025,5.652
		l0.182-0.313L4.435,5.62c2.487,3.061,6.142,4.961,10.067,5.248c-0.294-1.762,0.311-3.581,1.622-4.813
		c2.13-2,5.468-1.931,7.513,0.133c1.074-0.227,2.098-0.625,3.045-1.187l0.568-0.337l-0.203,0.629
		c-0.253,0.782-1.081,1.722-1.678,2.328c0.65-0.151,1.515-0.376,2.029-0.604l0.789-0.35l-0.479,0.717
		c-0.683,1.02-1.526,1.906-2.511,2.637c0.009,0.18,0.009,0.36,0.009,0.542C25.206,17.859,19.652,25.406,10.362,25.406z
		 M10.361,24.902v0.25v-0.246c8.979,0,14.344-7.293,14.344-14.343c0-0.216,0-0.43-0.016-0.645l-0.01-0.139l0.113-0.082
		c0.766-0.554,1.445-1.206,2.027-1.943c-0.975,0.299-2.153,0.532-2.219,0.544l-0.903,0.177l0.69-0.61
		c0.016-0.013,1.197-1.063,1.84-2.051c-0.832,0.412-1.713,0.71-2.629,0.89l-0.137,0.027L23.368,6.63
		c-1.843-1.961-4.938-2.057-6.903-0.212c-1.262,1.187-1.803,2.973-1.411,4.662l0.075,0.323l-0.331-0.017
		c-4.063-0.204-7.874-2.08-10.511-5.164c-1.056,2.172-0.356,4.833,1.682,6.194L6.693,12.9l-0.87-0.025
		c-0.709-0.021-1.413-0.186-2.059-0.479c0.156,2.165,1.75,4,3.902,4.434l1.027,0.207l-1.01,0.279
		c-0.646,0.179-1.329,0.232-2.002,0.158c0.741,1.775,2.467,2.967,4.416,3.002l0.701,0.014l-0.551,0.434
		c-1.852,1.457-4.152,2.245-6.524,2.253c-0.062,0-0.124-0.001-0.186-0.002C5.629,24.311,7.988,24.91,10.361,24.902z"/>
</g>
</svg>
