<?xml version="1.0" encoding="utf-8"?>
<!-- Generator: Adobe Illustrator 16.0.0, SVG Export Plug-In . SVG Version: 6.00 Build 0)  -->
<!DOCTYPE svg PUBLIC "-//W3C//DTD SVG 1.1//EN" "http://www.w3.org/Graphics/SVG/1.1/DTD/svg11.dtd">
<svg version="1.1" id="Layer_1" xmlns="http://www.w3.org/2000/svg" xmlns:xlink="http://www.w3.org/1999/xlink" x="0px" y="0px"
	 width="300px" height="150px" viewBox="0 0 300 150" enable-background="new 0 0 300 150" xml:space="preserve">
<g>
	<polygon fill="#972068" points="175,33.5 175,12.5 125,12.5 125,33.5 76,33.5 76,54.5 125,54.5 125,75.5 125,95.5 76,95.5 
		76,116.5 125,116.5 174.717,116.5 224,116.5 224,95.5 175,95.5 175,75.5 175,54.5 224,54.5 224,33.5 	"/>
	<rect x="26" y="54.5" fill="#972068" width="50" height="21"/>
	<rect x="224" y="54.5" fill="#972068" width="50" height="21"/>
	<rect x="26" y="116.5" fill="#972068" width="50" height="21"/>
	<rect x="224" y="116.5" fill="#972068" width="50" height="21"/>
</g>
</svg>
