<?xml version="1.0" encoding="utf-8"?>
<!-- Generator: Adobe Illustrator 16.0.0, SVG Export Plug-In . SVG Version: 6.00 Build 0)  -->
<!DOCTYPE svg PUBLIC "-//W3C//DTD SVG 1.1//EN" "http://www.w3.org/Graphics/SVG/1.1/DTD/svg11.dtd">
<svg version="1.1" id="Layer_1" xmlns="http://www.w3.org/2000/svg" xmlns:xlink="http://www.w3.org/1999/xlink" x="0px" y="0px"
	 width="300px" height="150px" viewBox="0 0 300 150" enable-background="new 0 0 300 150" xml:space="preserve">
<g>
	<polygon fill="#972068" points="78,50.5 30,50.5 30,75 30,100.5 78,100.5 78,75 	"/>
	<polygon fill="#972068" points="222,50.5 222,75 222,100.5 270,100.5 270,75 270,50.5 	"/>
	<polygon fill="#972068" points="174,75 174,50.5 222,50.5 222,25.5 173.994,25.5 125.996,25.5 78,25.5 78,50.5 126,50.5 126,75 
		126,100.5 78,100.5 78,125.5 125.996,125.5 173.994,125.5 222,125.5 222,100.5 174,100.5 	"/>
</g>
</svg>
