<?xml version="1.0" encoding="utf-8"?>
<!-- Generator: Adobe Illustrator 20.1.0, SVG Export Plug-In . SVG Version: 6.00 Build 0)  -->
<svg version="1.0" id="Layer_1" xmlns="http://www.w3.org/2000/svg" xmlns:xlink="http://www.w3.org/1999/xlink" x="0px" y="0px"
	 viewBox="0 0 300.2 150" style="enable-background:new 0 0 300.2 150;" xml:space="preserve">
<style type="text/css">
	.st0{fill:#F8E5E3;}
</style>
<g>
	<polygon class="st0" points="231.6,35.9 231.6,61.9 231.6,88 231.6,114.1 281.6,114.1 281.6,88 281.6,61.9 281.6,35.9 	"/>
	<polygon class="st0" points="81.5,61.9 81.5,35.9 31.5,35.9 31.5,61.9 31.5,88 31.5,114.1 81.5,114.1 81.5,88 	"/>
	<polygon class="st0" points="181.6,88 181.6,61.9 181.6,35.9 231.6,35.9 231.6,9.8 181.6,9.8 131.6,9.8 81.5,9.8 81.5,35.9 
		131.6,35.9 131.6,61.9 131.6,88 131.6,114.1 81.5,114.1 81.5,140.1 131.6,140.1 181.6,140.1 231.6,140.1 231.6,114.1 181.6,114.1 	
		"/>
</g>
</svg>
