<?xml version="1.0" encoding="utf-8"?>
<!-- Generator: Adobe Illustrator 16.0.0, SVG Export Plug-In . SVG Version: 6.00 Build 0)  -->
<!DOCTYPE svg PUBLIC "-//W3C//DTD SVG 1.1//EN" "http://www.w3.org/Graphics/SVG/1.1/DTD/svg11.dtd">
<svg version="1.1" id="Layer_1" xmlns="http://www.w3.org/2000/svg" xmlns:xlink="http://www.w3.org/1999/xlink" x="0px" y="0px"
	 width="300px" height="150px" viewBox="0 0 300 150" enable-background="new 0 0 300 150" xml:space="preserve">
<g>
	<polygon fill="#F8E5E3" points="225,35.933 225,61.968 225,88.027 225,114.062 275,114.062 275,88.027 275,61.968 275,35.933 	"/>
	<polygon fill="#F8E5E3" points="75,61.968 75,35.933 25,35.933 25,61.968 25,88.027 25,114.062 75,114.062 75,88.027 	"/>
	<polygon fill="#F8E5E3" points="175.01,88.027 175.01,61.968 175.01,35.933 225,35.933 225,9.893 175.01,9.893 125,9.893 75,9.893 
		75,35.933 125,35.933 125,61.968 125,88.027 125,114.062 75,114.062 75,140.107 125,140.107 175.01,140.107 225,140.107 
		225,114.062 175.01,114.062 	"/>
</g>
<g id="Layer_2">
</g>
<g id="Layer_3">
</g>
</svg>
