<?xml version="1.0" encoding="utf-8"?>
<!-- Generator: Adobe Illustrator 20.1.0, SVG Export Plug-In . SVG Version: 6.00 Build 0)  -->
<svg version="1.0" id="Layer_1" xmlns="http://www.w3.org/2000/svg" xmlns:xlink="http://www.w3.org/1999/xlink" x="0px" y="0px"
	 viewBox="0 0 300 150" style="enable-background:new 0 0 300 150;" xml:space="preserve">
<polygon points="274.8,114 274.8,88 224.7,88 224.7,87 224.7,61.9 274.7,61.9 274.7,35.9 274.8,35.9 274.8,9.8 224.7,9.8 
	224.7,35.9 224.7,35.9 174.7,35.9 174.7,61.9 125,61.9 125,35.9 75,35.9 75,9.8 25,9.8 25,35.9 25,61.9 75,61.9 75,88 25,88 25,114 
	25,140.1 75,140.1 75,114 125,114 125,88 174.7,88 174.7,113 224.7,113 224.7,114 225.1,114 225.1,140.1 275.1,140.1 275.1,114 "/>
</svg>
