<?xml version="1.0" encoding="utf-8"?>
<!-- Generator: Adobe Illustrator 20.1.0, SVG Export Plug-In . SVG Version: 6.00 Build 0)  -->
<svg version="1.0" id="Layer_1" xmlns="http://www.w3.org/2000/svg" xmlns:xlink="http://www.w3.org/1999/xlink" x="0px" y="0px"
	 viewBox="0 0 300 150" style="enable-background:new 0 0 300 150;" xml:space="preserve">
<style type="text/css">
	.st0{fill:#F8E5E3;}
</style>
<g>
	<line class="st0" x1="75" y1="88" x2="75" y2="87.9"/>
	<g>
		<rect x="124.9" y="114" width="50" height="26.1"/>
		<polygon points="124.9,87.9 124.9,61.9 75,61.9 75,35.9 75,9.8 25,9.8 25,35.9 25,61.9 25,88 74.9,88 74.9,114 124.9,114 
			124.9,88 		"/>
		<polygon points="225,9.8 225,35.9 225,61.9 175,61.9 175,88 175,114 225,114 225,88 275,88 275,61.9 275,35.9 275,9.8 		"/>
	</g>
</g>
<g>
	<rect x="226" y="-107" class="st0" width="50" height="26.1"/>
	<polygon class="st0" points="226,-159.1 276,-159.1 276,-185.1 226,-185.1 178,-185.1 178,-211.2 128,-211.2 128,-185.1 
		125.9,-185.1 75.9,-185.1 25.9,-185.1 25.9,-159.1 75.9,-159.1 75.9,-133 75.9,-107 26,-107 26,-80.9 76,-80.9 76,-107 125.9,-107 
		176,-107 226,-107 226,-133 	"/>
</g>
</svg>
