<?xml version="1.0" encoding="utf-8"?>
<!-- Generator: Adobe Illustrator 16.0.0, SVG Export Plug-In . SVG Version: 6.00 Build 0)  -->
<!DOCTYPE svg PUBLIC "-//W3C//DTD SVG 1.1//EN" "http://www.w3.org/Graphics/SVG/1.1/DTD/svg11.dtd">
<svg version="1.1" id="Layer_1" xmlns="http://www.w3.org/2000/svg" xmlns:xlink="http://www.w3.org/1999/xlink" x="0px" y="0px"
	 width="300px" height="150px" viewBox="0 0 300 150" enable-background="new 0 0 300 150" xml:space="preserve">
<polygon fill="#972068" points="222,99.5 222,74 222,49.5 174,49.5 174,24 174,-0.5 126,-0.5 126,24 126,49.5 78,49.5 78,74 
	78,99.5 30,99.5 30,124 30,149.5 78,149.5 78,124.5 126,124.5 126,99 126,74.5 174,74.5 174,99 174,124.5 222,124.5 222,149.5 
	270,149.5 270,124 270,99.5 "/>
</svg>
