<?xml version="1.0" encoding="utf-8"?>
<!-- Generator: Adobe Illustrator 20.1.0, SVG Export Plug-In . SVG Version: 6.00 Build 0)  -->
<svg version="1.0" id="Layer_1" xmlns="http://www.w3.org/2000/svg" xmlns:xlink="http://www.w3.org/1999/xlink" x="0px" y="0px"
	 viewBox="0 0 300 150" style="enable-background:new 0 0 300 150;" xml:space="preserve">
<g>
	<polygon points="75,9.8 25,9.8 25,35.9 25,61.9 25,88 25,114 75,114 75,140.1 125,140.1 125,114 125,88 75,88 75,61.9 125,61.9 
		125,35.9 75,35.9 	"/>
	<polygon points="225,9.8 225,35.9 175,35.9 175,61.9 225,61.9 225,88 175,88 175,114 175,140.1 225,140.1 225,114 275,114 275,88 
		275,61.9 275,35.9 275,9.8 	"/>
</g>
</svg>
