<?xml version="1.0" encoding="utf-8"?>
<!-- Generator: Adobe Illustrator 16.0.0, SVG Export Plug-In . SVG Version: 6.00 Build 0)  -->
<!DOCTYPE svg PUBLIC "-//W3C//DTD SVG 1.1//EN" "http://www.w3.org/Graphics/SVG/1.1/DTD/svg11.dtd">
<svg version="1.1" id="Layer_1" xmlns="http://www.w3.org/2000/svg" xmlns:xlink="http://www.w3.org/1999/xlink" x="0px" y="0px"
	 width="300px" height="300px" viewBox="-135 -135 300 300" enable-background="new -135 -135 300 300" xml:space="preserve">
<g>
	<rect x="2.5" y="115" fill="#972068" width="25" height="25"/>
	<polygon fill="#972068" points="2.5,65 2.5,90 27.5,90 27.5,65 27.5,40 2.5,40 	"/>
	<rect x="27.5" y="15" fill="#972068" width="25" height="25"/>
	<rect x="52.5" y="-10" fill="#972068" width="25" height="25"/>
	<rect x="-72.5" y="-60" fill="#972068" width="25" height="25"/>
	<polygon fill="#972068" points="77.5,-60 77.5,-35 77.5,-10 102.5,-10 102.5,-35 102.5,-60 	"/>
	<rect x="-47.5" y="-85" fill="#972068" width="25" height="25"/>
	<rect x="52.5" y="-85" fill="#972068" width="25" height="25"/>
	<polygon fill="#972068" points="27.5,-110 2.5,-110 -22.5,-110 -22.5,-85 2.5,-85 27.5,-85 52.5,-85 52.5,-110 	"/>
</g>
</svg>
