<?xml version="1.0" encoding="utf-8"?>
<!-- Generator: Adobe Illustrator 16.0.0, SVG Export Plug-In . SVG Version: 6.00 Build 0)  -->
<!DOCTYPE svg PUBLIC "-//W3C//DTD SVG 1.1//EN" "http://www.w3.org/Graphics/SVG/1.1/DTD/svg11.dtd">
<svg version="1.1" id="Layer_1" xmlns="http://www.w3.org/2000/svg" xmlns:xlink="http://www.w3.org/1999/xlink" x="0px" y="0px"
	 width="300px" height="300px" viewBox="0 0 300 300" enable-background="new 0 0 300 300" xml:space="preserve">
<g>
	<polygon fill="#972068" points="250,237.5 250,262.5 225,262.5 200,262.5 175,262.5 150,262.5 125,262.5 100,262.5 75,262.5 
		50,262.5 50,237.5 25,237.5 25,262.5 25,287.5 50,287.5 75,287.5 100,287.5 125,287.5 150,287.5 175,287.5 200,287.5 225,287.5 
		250,287.5 275,287.5 275,262.5 275,237.5 	"/>
	<polygon fill="#972068" points="100,237.5 100,212.5 125,212.5 125,187.5 125,162.5 100,162.5 100,187.5 75,187.5 75,212.5 
		50,212.5 50,237.5 75,237.5 	"/>
	<polygon fill="#972068" points="175,187.5 175,212.5 200,212.5 200,237.5 225,237.5 250,237.5 250,212.5 225,212.5 225,187.5 
		200,187.5 200,162.5 175,162.5 	"/>
	<rect x="75" y="137.5" fill="#972068" width="25" height="25"/>
	<rect x="200" y="137.5" fill="#972068" width="25" height="25"/>
	<polygon fill="#972068" points="75,87.5 75,62.5 50,62.5 50,87.5 50,112.5 50,137.5 75,137.5 75,112.5 	"/>
	<polygon fill="#972068" points="225,112.5 225,137.5 250,137.5 250,112.5 250,87.5 250,62.5 225,62.5 225,87.5 	"/>
	<rect x="75" y="37.5" fill="#972068" width="25" height="25"/>
	<rect x="200" y="37.5" fill="#972068" width="25" height="25"/>
	<polygon fill="#972068" points="150,37.5 175,37.5 200,37.5 200,12.5 175,12.5 150,12.5 125,12.5 100,12.5 100,37.5 125,37.5 	"/>
</g>
</svg>
