<?xml version="1.0" encoding="utf-8"?>
<!-- Generator: Adobe Illustrator 16.0.0, SVG Export Plug-In . SVG Version: 6.00 Build 0)  -->
<!DOCTYPE svg PUBLIC "-//W3C//DTD SVG 1.1//EN" "http://www.w3.org/Graphics/SVG/1.1/DTD/svg11.dtd">
<svg version="1.1" id="Layer_1" xmlns="http://www.w3.org/2000/svg" xmlns:xlink="http://www.w3.org/1999/xlink" x="0px" y="0px"
	 width="300px" height="300px" viewBox="0 0 300 300" enable-background="new 0 0 300 300" xml:space="preserve">
<g>
	<rect x="66.562" y="254.142" fill="#972068" width="166.876" height="20.858"/>
	<polygon fill="#972068" points="191.721,25 191.721,45.859 191.721,66.719 191.721,87.578 191.721,108.438 191.721,129.297 
		191.721,150.156 191.721,171.016 191.721,191.875 191.721,212.735 170.86,212.735 150,212.735 129.14,212.735 108.279,212.735 
		87.419,212.735 66.559,212.735 66.559,191.875 66.559,171.016 66.559,150.156 66.559,129.297 66.559,108.438 66.559,87.578 
		66.559,66.719 66.559,45.859 87.419,45.859 108.279,45.859 129.14,45.859 150,45.859 170.86,45.859 191.72,45.859 191.72,25 
		170.86,25 150,25 129.14,25 108.279,25 87.419,25 66.559,25 45.698,25 45.698,45.859 45.698,66.719 45.698,87.578 45.698,108.438 
		45.698,129.297 45.698,150.156 45.698,171.016 45.698,191.875 45.698,212.735 45.698,233.595 45.698,254.454 66.559,254.454 
		66.559,233.595 87.419,233.595 108.279,233.595 129.14,233.595 150,233.595 170.86,233.595 191.721,233.595 212.581,233.595 
		212.581,212.735 212.581,191.875 212.581,171.016 212.581,150.156 212.581,129.297 212.581,108.438 212.581,87.578 212.581,66.719 
		212.581,45.859 212.581,25 	"/>
	<polygon fill="#972068" points="233.441,45.859 233.441,66.719 233.441,87.578 233.441,108.438 233.441,129.297 233.441,150.156 
		233.441,171.016 233.441,191.875 233.441,212.735 233.441,233.595 233.441,254.454 254.302,254.454 254.302,233.595 
		254.302,212.735 254.302,191.875 254.302,171.016 254.302,150.156 254.302,129.297 254.302,108.438 254.302,87.578 254.302,66.719 
		254.302,45.859 	"/>
</g>
</svg>
