<?xml version="1.0" encoding="utf-8"?>
<!-- Generator: Adobe Illustrator 16.0.0, SVG Export Plug-In . SVG Version: 6.00 Build 0)  -->
<!DOCTYPE svg PUBLIC "-//W3C//DTD SVG 1.1//EN" "http://www.w3.org/Graphics/SVG/1.1/DTD/svg11.dtd">
<svg version="1.1" id="Layer_1" xmlns="http://www.w3.org/2000/svg" xmlns:xlink="http://www.w3.org/1999/xlink" x="0px" y="0px"
	 width="300px" height="300px" viewBox="-135 -135 300 300" enable-background="new -135 -135 300 300" xml:space="preserve">
<g>
	<rect x="-110" y="116.877" fill="#972068" width="22.93" height="22.93"/>
	<rect x="-87.07" y="93.953" fill="#972068" width="22.93" height="22.924"/>
	<rect x="-64.131" y="71.004" fill="#972068" width="22.939" height="22.949"/>
	<rect x="-41.191" y="48.074" fill="#972068" width="22.93" height="22.93"/>
	<polygon fill="#972068" points="-18.081,-18.708 -18.081,-41.638 -18.081,-64.578 -41.021,-64.578 -41.021,-41.638 
		-41.021,-18.708 -41.021,4.231 -41.021,27.17 -18.081,27.17 -18.081,4.231 	"/>
	<polygon fill="#972068" points="49.434,49.533 26.504,49.533 4.858,49.533 4.858,27.17 -18.081,27.17 -18.081,50.125 3.579,50.125 
		3.579,72.482 26.504,72.482 49.434,72.482 72.363,72.482 95.312,72.482 95.312,49.533 72.363,49.533 	"/>
	<polygon fill="#972068" points="118.242,-64.578 118.242,-86.877 95.312,-86.877 95.312,-63.938 117.061,-63.938 117.061,-41.638 
		117.061,-18.708 117.061,4.231 117.061,26.604 95.312,26.604 95.312,49.533 118.242,49.533 118.242,27.17 140,27.17 140,4.231 
		140,-18.708 140,-41.638 140,-64.578 	"/>
	<polygon fill="#972068" points="4.858,-86.877 26.504,-86.877 49.434,-86.877 72.363,-86.877 95.312,-86.877 95.312,-109.807 
		72.363,-109.807 49.434,-109.807 26.504,-109.807 3.579,-109.807 3.579,-87.507 -18.081,-87.507 -18.081,-64.578 4.858,-64.578 	
		"/>
</g>
</svg>
