<?xml version="1.0" encoding="utf-8"?>
<!-- Generator: Adobe Illustrator 16.0.0, SVG Export Plug-In . SVG Version: 6.00 Build 0)  -->
<!DOCTYPE svg PUBLIC "-//W3C//DTD SVG 1.1//EN" "http://www.w3.org/Graphics/SVG/1.1/DTD/svg11.dtd">
<svg version="1.1" id="Layer_1" xmlns="http://www.w3.org/2000/svg" xmlns:xlink="http://www.w3.org/1999/xlink" x="0px" y="0px"
	 width="300px" height="150px" viewBox="0 0 300 150" enable-background="new 0 0 300 150" xml:space="preserve">
<polygon points="225.004,9.894 225.004,35.932 175.008,35.932 175.008,61.969 125.002,61.969 125.002,35.932 75.001,35.932 
	75.001,9.894 25,9.894 25,35.932 25,61.969 75.001,61.969 75.001,88.021 25,88.021 25,114.055 25,140.105 75.001,140.105 
	75.001,114.055 125.002,114.055 125.002,88.021 175.008,88.021 175.008,114.055 225.004,114.055 225.004,140.105 275,140.105 
	275,114.055 275,88.021 225.004,88.021 225.004,61.969 275,61.969 275,35.932 275,9.894 "/>
<g id="Layer_2">
</g>
<g id="Layer_3">
</g>
</svg>
