<?xml version="1.0" encoding="utf-8"?>
<!-- Generator: Adobe Illustrator 16.0.0, SVG Export Plug-In . SVG Version: 6.00 Build 0)  -->
<!DOCTYPE svg PUBLIC "-//W3C//DTD SVG 1.1//EN" "http://www.w3.org/Graphics/SVG/1.1/DTD/svg11.dtd">
<svg version="1.1" id="Layer_1" xmlns="http://www.w3.org/2000/svg" xmlns:xlink="http://www.w3.org/1999/xlink" x="0px" y="0px"
	 width="300px" height="300px" viewBox="0 0 300 300" enable-background="new 0 0 300 300" xml:space="preserve">
<polygon fill="#972068" points="275,275 275,250 225.001,250 225.001,224.998 200,224.998 200,199.997 225,199.997 225,174.998 
	225,174.997 225,174.996 250.001,174.996 250.001,149.996 250.001,138.49 250.001,124.996 250.001,99.994 250.002,99.994 
	250.002,74.994 250.002,49.994 225,49.994 225,24.996 200.001,24.996 200.001,0.002 175.001,0.002 175,0.002 150.002,0.002 
	150,0.002 125.002,0.002 125.002,0.006 100.002,0.006 100.001,24.996 75.001,24.996 75.001,49.993 50.002,49.993 50.002,74.993 
	50.002,74.995 50.002,99.995 50.002,124.995 50.002,149.995 50.001,149.997 50.001,174.997 75.001,174.997 75.001,175 
	75.001,199.997 100.001,199.997 100.001,224.998 75.001,224.998 75.001,250 25,250 25,275 0,275 0,300 300,300 300,275 "/>
</svg>
