<?xml version="1.0" encoding="utf-8"?>
<!-- Generator: Adobe Illustrator 16.0.0, SVG Export Plug-In . SVG Version: 6.00 Build 0)  -->
<!DOCTYPE svg PUBLIC "-//W3C//DTD SVG 1.1//EN" "http://www.w3.org/Graphics/SVG/1.1/DTD/svg11.dtd">
<svg version="1.1" id="Layer_1" xmlns="http://www.w3.org/2000/svg" xmlns:xlink="http://www.w3.org/1999/xlink" x="0px" y="0px"
	 width="30px" height="30px" viewBox="0 0 30 30" enable-background="new 0 0 30 30" xml:space="preserve">
<polygon fill="#D02630" points="17.5,2.5 15,2.5 15,5 12.5,5 12.5,7.5 12.5,10 12.5,12.5 12.5,12.531 10,12.531 10,15.031 
	12.5,15.031 12.5,17.5 12.5,20 12.5,22.5 12.5,25 12.5,27.5 15,27.5 17.5,27.5 17.5,25 17.5,22.5 17.5,20 17.5,17.5 17.5,15 
	17.5,14.969 20,14.969 20,12.47 17.5,12.47 17.5,10 17.5,7.5 20,7.5 20,5 20,2.5 "/>
</svg>
