<?xml version="1.0" encoding="utf-8"?>
<!-- Generator: Adobe Illustrator 16.0.0, SVG Export Plug-In . SVG Version: 6.00 Build 0)  -->
<!DOCTYPE svg PUBLIC "-//W3C//DTD SVG 1.1//EN" "http://www.w3.org/Graphics/SVG/1.1/DTD/svg11.dtd">
<svg version="1.1" id="Layer_1" xmlns="http://www.w3.org/2000/svg" xmlns:xlink="http://www.w3.org/1999/xlink" x="0px" y="0px"
	 width="30px" height="30px" viewBox="0 0 30 30" enable-background="new 0 0 30 30" xml:space="preserve">
<g>
	<path fill="#972068" d="M15,4.753c3.338,0,3.732,0.013,5.052,0.072c1.22,0.056,1.88,0.26,2.32,0.431
		c0.584,0.227,1,0.497,1.438,0.935c0.438,0.438,0.707,0.854,0.936,1.438c0.171,0.44,0.374,1.103,0.43,2.321
		c0.061,1.318,0.073,1.713,0.073,5.051s-0.013,3.733-0.073,5.051c-0.056,1.22-0.259,1.882-0.43,2.321
		c-0.229,0.584-0.498,1-0.936,1.438c-0.438,0.438-0.854,0.709-1.438,0.937c-0.44,0.171-1.103,0.374-2.32,0.43
		C18.734,25.238,18.338,25.25,15,25.25s-3.733-0.014-5.051-0.073c-1.219-0.056-1.881-0.259-2.321-0.43
		c-0.583-0.228-1-0.498-1.438-0.937c-0.438-0.438-0.708-0.854-0.935-1.438c-0.171-0.439-0.375-1.104-0.431-2.32
		C4.766,18.732,4.753,18.338,4.753,15s0.013-3.732,0.072-5.051c0.056-1.219,0.26-1.881,0.431-2.321c0.227-0.583,0.497-1,0.935-1.438
		s0.854-0.708,1.438-0.935C8.069,5.084,8.732,4.88,9.95,4.824C11.268,4.766,11.663,4.753,15,4.753 M15,2.5
		c-3.395,0-3.82,0.015-5.153,0.075c-1.331,0.061-2.24,0.273-3.035,0.581C5.99,3.476,5.293,3.903,4.599,4.599
		C3.903,5.293,3.476,5.99,3.156,6.812C2.848,7.607,2.636,8.516,2.575,9.847C2.515,11.18,2.5,11.605,2.5,15
		c0,3.396,0.015,3.82,0.075,5.154c0.061,1.33,0.272,2.238,0.581,3.033c0.319,0.821,0.747,1.52,1.442,2.215
		c0.694,0.695,1.392,1.121,2.214,1.44c0.795,0.31,1.703,0.521,3.034,0.581C11.18,27.486,11.605,27.5,15,27.5
		c3.396,0,3.82-0.014,5.154-0.075c1.33-0.061,2.238-0.271,3.033-0.581c0.821-0.318,1.52-0.746,2.215-1.441
		c0.693-0.694,1.121-1.393,1.44-2.213c0.31-0.795,0.521-1.705,0.581-3.035C27.484,18.82,27.5,18.396,27.5,15
		c0-3.395-0.016-3.82-0.075-5.153c-0.061-1.331-0.271-2.239-0.581-3.034c-0.318-0.822-0.746-1.52-1.441-2.214
		c-0.694-0.695-1.393-1.123-2.213-1.442c-0.795-0.309-1.705-0.521-3.035-0.581C18.82,2.515,18.396,2.5,15,2.5L15,2.5z"/>
	<path fill="#972068" d="M15,8.581c-3.545,0-6.419,2.874-6.419,6.419s2.874,6.419,6.419,6.419s6.419-2.874,6.419-6.419
		S18.545,8.581,15,8.581z M15,19.167c-2.301,0-4.166-1.865-4.166-4.167c0-2.301,1.865-4.166,4.166-4.166
		c2.302,0,4.167,1.865,4.167,4.166C19.167,17.302,17.302,19.167,15,19.167z"/>
	<circle fill="#972068" cx="21.673" cy="8.328" r="1.5"/>
</g>
</svg>
