<?xml version="1.0" encoding="utf-8"?>
<!-- Generator: Adobe Illustrator 16.0.0, SVG Export Plug-In . SVG Version: 6.00 Build 0)  -->
<!DOCTYPE svg PUBLIC "-//W3C//DTD SVG 1.1//EN" "http://www.w3.org/Graphics/SVG/1.1/DTD/svg11.dtd">
<svg version="1.1" id="Layer_1" xmlns="http://www.w3.org/2000/svg" xmlns:xlink="http://www.w3.org/1999/xlink" x="0px" y="0px"
	 width="600px" height="300px" viewBox="0 0 600 300" enable-background="new 0 0 600 300" xml:space="preserve">
<g>
	<g>
		<polygon fill="#D02630" points="166.383,66.852 138.666,66.852 110.948,66.852 83.232,66.852 55.517,66.852 27.8,66.852 
			27.8,94.566 55.517,94.566 83.232,94.566 110.948,94.566 138.666,94.566 166.383,94.566 194.099,94.566 194.099,66.852 		"/>
		<polygon fill="#D02630" points="27.8,177.715 27.8,205.434 55.517,205.434 83.232,205.434 83.232,177.715 55.517,177.715 		"/>
		<polygon fill="#D02630" points="138.666,177.715 138.666,150 110.948,150 83.232,150 83.232,177.715 110.948,177.715 		"/>
		<polygon fill="#D02630" points="194.099,150 194.099,122.284 166.383,122.284 138.666,122.284 138.666,150 166.383,150 		"/>
		<polygon fill="#D02630" points="249.531,122.284 249.531,94.566 221.812,94.566 194.099,94.566 194.099,122.284 221.812,122.284 
					"/>
		<polygon fill="#D02630" points="249.863,205.434 222.146,205.434 194.431,205.434 166.714,205.434 138.998,205.434 
			111.281,205.434 83.565,205.434 83.565,233.148 111.281,233.148 138.998,233.148 166.714,233.148 194.431,233.148 
			222.146,233.148 249.863,233.148 277.579,233.148 277.579,205.434 		"/>
	</g>
	<g>
		<polygon fill="#D02630" points="378.187,136.143 350.469,136.143 350.469,163.857 350.469,191.574 378.187,191.574 
			378.187,163.857 		"/>
		<polygon fill="#D02630" points="350.469,80.71 322.752,80.71 322.752,108.427 322.752,136.143 350.469,136.143 350.469,108.427 		
			"/>
		<polygon fill="#D02630" points="405.9,163.857 405.9,191.574 378.187,191.574 378.187,219.29 405.901,219.29 405.901,191.574 
			433.617,191.574 433.617,163.857 433.617,136.143 405.9,136.143 		"/>
		<rect x="433.617" y="108.427" fill="#D02630" width="27.717" height="27.716"/>
		<polygon fill="#D02630" points="489.051,136.143 461.334,136.143 461.334,163.857 461.334,191.574 489.051,191.574 
			489.051,163.857 		"/>
		<rect x="489.051" y="191.574" fill="#D02630" width="27.715" height="27.716"/>
		<polygon fill="#D02630" points="516.766,163.857 516.766,191.574 544.48,191.574 544.48,163.857 544.48,136.143 516.766,136.143 
					"/>
		<polygon fill="#D02630" points="544.48,80.71 544.48,108.427 544.48,136.143 572.199,136.143 572.199,108.427 572.199,80.71 		"/>
	</g>
</g>
</svg>
