<?xml version="1.0" encoding="utf-8"?>
<!-- Generator: Adobe Illustrator 16.0.0, SVG Export Plug-In . SVG Version: 6.00 Build 0)  -->
<!DOCTYPE svg PUBLIC "-//W3C//DTD SVG 1.1//EN" "http://www.w3.org/Graphics/SVG/1.1/DTD/svg11.dtd">
<svg version="1.1"
	 id="svg2799" xmlns:svg="http://www.w3.org/2000/svg" xmlns:cc="http://web.resource.org/cc/" xmlns:rdf="http://www.w3.org/1999/02/22-rdf-syntax-ns#" xmlns:inkscape="http://www.inkscape.org/namespaces/inkscape" xmlns:dc="http://purl.org/dc/elements/1.1/" xmlns:sodipodi="http://sodipodi.sourceforge.net/DTD/sodipodi-0.dtd" sodipodi:docbase="C:\Documents and Settings\PC User\My Documents" sodipodi:version="0.32" inkscape:output_extension="org.inkscape.output.svg.inkscape" inkscape:version="0.45.1" sodipodi:docname="Provinces of Zimbabwe.svg"
	 xmlns="http://www.w3.org/2000/svg" xmlns:xlink="http://www.w3.org/1999/xlink" x="0px" y="0px" width="454.5px"
	 height="392.258px" viewBox="0 0 454.5 392.258" enable-background="new 0 0 454.5 392.258" xml:space="preserve">
<sodipodi:namedview  inkscape:window-height="712" borderopacity="1.0" bordercolor="#666666" guidetolerance="10.0" objecttolerance="10.0" gridtolerance="10.0" pagecolor="#ffffff" inkscape:zoom="1.0873622" showguides="true" inkscape:cy="234.49648" inkscape:cx="302.956" id="base" inkscape:guide-bbox="true" inkscape:current-layer="svg2799" inkscape:window-y="-4" inkscape:window-x="-4" inkscape:pageopacity="0.0" inkscape:pageshadow="2" inkscape:window-width="1024">
	</sodipodi:namedview>
<path id="path2815" fill="none" stroke="#EEF8F3" stroke-width="0.2" stroke-linecap="round" stroke-linejoin="round" d="
	M299.207,4.361c0.055,6.762-0.11,13.449,0,20.095c9.925,0.584,20.394-1.135,30.003,0.783c2.765,5.364,6.521-2.271,10.696-1.827
	c4.981,1.782,10.57,1.057,13.306,6.785c3.023,3.456,6.761,3.712,12.263,4.958c6.171-0.255,12.336,3.908,14.349,6.785
	c4.844,0.969,2.684,8.112,9.131,7.046c10.239,0.723,21.073-0.752,30.407,5.016c3.914,2.262,12.537,3.042,9.509,9.077
	c6.834,2.132-2.185,3.64-4.435,3.131c-4.745,0.223-9.319-3.772-14.35-0.522c-3.917,1.192-7.307,3.425-11.218,2.61
	c-3.891,2.612-11.161,1.554-9.393,8.09c-2.457,1.154-6.073,3.964-5.739,6.785c-2.036,1.837-4.977,4.798-3.652,7.308
	c-2.528,1.638-8.904,1.315-5.479,5.219c0.134,5.534-7.381,6.712-8.349,11.483c-4.76-0.054-5.672,5.197-8.088,7.307
	c-1.822-0.705-6.55,2.692-9.651,3.132c-3.964-1.448,5.512-10.273-2.087-9.134c-3.806-0.709-8.563-1.554-8.089,3.393
	c-4.555,0.767,2.268,1.862-0.521,4.697c-0.896,3.088-0.507,7.408-4.174,7.047c-3.78,0.397-3.343-7.188-7.045-2.871
	c-2.668-2.669-10.036-2.166-7.044-7.046c-2.301-2.174-12.235,2.68-9.653-3.654c-0.15-6.505,1.032-13,5.218-18.79
	c1.659-3.546,2.139-7.415-2.347-6.786c-0.991-1.558-6.404,2.512-7.045-1.566c0.783-4.125-3.771-10.041-0.782-12.788
	c3.3-0.489-1.921-2.623-0.521-5.219c-0.029-3.631-7.076-2.162-8.089-6.264c0.299-4.352,4.467-10.395,2.349-14.875
	c-4.595,0.929-5.988-2.116-8.871-4.175c-4.419-1.168-2.141,6.657-7.305,5.741c-2.395,1.726-6.444,1.857-4.174-1.566
	c3.316-2.718,0.01-7.319,4.435-9.396c-2.253-1.362-3.286-4.761-3.651-8.09c-5.735-4.248,5.224-6.059,7.044-9.656
	c2.611-2.307,10.696-6.131,4.695-9.917c-1.103-4.89,6.138-0.957,8.087-3.915l0.262,0.522V4.361z"/>
<g>
	<path id="path2809_1_" fill="none" stroke="#EEF8F3" stroke-width="0.2" stroke-linecap="round" stroke-linejoin="round" d="
		M343.851,208.896c4.792,0.975,5.878-3.823,6.753-7.24c1.217-2.381,7.289-0.347,8.608,1.827c4.897,3.039,6.719-4.42,6.784-7.307
		c3.689,4.23,9.229-2.328,12.262,3.393c2.432,2.35,9.124,3.628,9.392,1.305c-0.461-3.925,1.217-9.602-3.391-12.005
		c-0.06-3.97-0.512-8.527-5.219-8.612c0.636-3.757-6.184-6.014-3.652-9.917c-1.654-1.933-2.789-3.074-0.261-4.959
		c0.817-3.239,6.698-1.433,4.957-5.48c3.205-3.587-2.926-12.855,3.391-14.092c4.087,1.75,6.64,0.841,4.436-3.653
		c4.153-3.106,9.938-6.663,9.393-12.266c6.557-3.006,9.501-9.818,16.958-10.7c2.687-3.869,7.077-2.076,9.653-6.002
		c1.267-2.091,3.694-4.629,6.782-6.785c0.413-5.238,5.491-6.421,8.349-9.396c7.086-3.452,5.189,0.737,9.393,4.175
		c-1.62,3.73-6.257,7.714-3.914,11.483c5.667,1.399,2.327,6.888,2.088,9.917c0.254,1.223,1.051,5.094-3.131,5.22
		c-0.026,4.994,1.245,6.604-0.782,10.7c0.625,5.634,3.316,8.92,3.392,14.092c-1.46,4.22,5.674,5.805,0.782,9.395
		c2.404,6.945-10.066,1.653-7.044,8.612c-0.215,3.347,5.978,7.644,1.565,12.005c-3.858,0.951-8.05-0.034-11.968,3.112
		c1.988,4.524-1.475,6.055,0.228,10.72c4.949-0.382,8.46-0.458,9.132,5.219c-0.95,5.65-1.475,11.726-5.479,14.877
		c-2.323,6.637,4.643,4.313,4.175,9.655c-1.364,5.396-1.307,10.752,5.479,7.046c1.527,0.257,1.023,5.633,6,7.308
		c-1.707,5.359,0.162,15.111-7.565,14.354c1.776,6.397-5.541,0.899-2.87,7.568c-2.965,2.605,1.74,6.837-3.913,9.916
		c-2.221,3.189-5.179,9.103-8.609,11.745c-6.175-1.403-11.422,3.952-8.871,9.916c1.219,6.767,2.144,14.09-4.106,18.862
		c-5.112,3.795-1.013,6.502,0.455,10.628c5.331,4.354,0.894,5.018-1.826,2.088"/>
</g>
<g>
	<path id="path2847_2_" fill="none" stroke="#EEF8F3" stroke-width="0.2" stroke-linecap="round" stroke-linejoin="round" d="
		M175.022,105.879c-0.104-3.992,5.136-0.314,6.783-2.871c3.63-0.626,7.051-1.194,9.914,1.827c1.95-4.406,6.266-6.184,7.566-11.222
		c3.866-1.645,7.475-5.088,12.522-3.915c0.678-0.458,1.289-1.253,2.348-1.044c1.045,3.914,4.259,5.977,7.827,7.307
		c3.402,3.673,11.973,0.267,11.479,6.785c2.805,1.97,5.054,4.566,7.565,6.003c-1.274,2.752-6.802,5.035-3.391,8.09
		c1.125,3.229-4.083,5.773-1.044,8.09c-2.957,3.918-4.489,7.796-6.261,12.005c-1.324,4.4,2.063,9.465,4.957,12.266
		c3.054,1.895,4.759,4.61,8.349,5.742c3.6,2.1,9.181,3.178,6.522,8.351c-0.656,1.791-2.454,7.252,0.522,7.829
		c2.911-0.063,4.427,3.414,8.088,1.827c1.989,2.349,4.094,0.879,6,3.653c3.194,1.155,5.901,1.772,9.914,1.044
		c3.541,1.837,9.734,0.268,12.522,3.393c1.612,3.723,6.824,1.241,8.61,4.958c5.093,1.268,9.819,5.272,15.131,5.219
		c4.327-2.204,3.986,3.414,2.608,5.22c2.998,3.699,3.134,5.474,2.87,8.612c2.327,2.635,9.48,4.923,4.773,7.939"/>
</g>
<path id="path2829" fill="none" stroke="#EEF8F3" stroke-width="0.2" stroke-linecap="round" stroke-linejoin="round" d="
	M330.254,204.267c1.525,3.426,1.449,7.685,8.348,4.958c8.949-3.141,13.188,7.664,21.393,7.568c3.408,2.005,5.493,5.343,10.176,4.959
	c0.811,5.326,7.693,6.448,9.653,11.221c4.229,3.389,6.497,8.898,10.436,11.745c3.789-0.496,5.68,3.922,9.913,2.35
	c3.07,4.429,10.965,2.843,8.609,10.176c-1.526,9.113-3.421,17.952-3.651,27.402c-1.31,2.703-0.848,6.228-3.132,7.569
	c0.505,6.204-7.519,11.854-3.391,17.224c1.516,2.304,1.726,4.104,5.478,5.48c1.108,4.488,2.301,8.278,6.784,9.917
	c5.253,3.1-4.631,6.805-6.262,10.439c-17.716,17.782-34.368,36.336-52.7,53.238c-3.712,2.01-7.435-3.303-12.001-3.653
	c-2.838,1.351-2.955-3.634-6.522-3.915c0.804-1.976-1.209-2.949-2.609-4.697c0.136-0.743-3.414-3.652-2.869-5.741
	c-4.132,1.972-2.749-4.735-7.044-5.48c-1.15-1.802-2.132-2.907-3.131-4.959c-1.927-2.923-4.436-4.022-5.74-7.307
	c0.508-3.05-1.427-0.194-3.913-2.35c-2.288,0.89-4.302-1.683-4.435-3.914c-4.747-1.962-9.556-3.686-14.871-3.915
	c1.732-3.352-3.725-2.297-4.695-5.219c-5.687,1.506-6.703-7.353-12.002-8.352c-1.111-3.638-3.042-5.596-4.174-8.612
	c-2.577-1.292-3.261-5.03-6.262-6.523c-4.343-4.87,4.577-1.32,6.262-6.264c3.904-5.55,9.68-2.253,12.783,1.826
	c4.815,3.06,10.094,0.665,15.133,2.35c5.751-2.492,4.989-8.143,5.738-13.31c-0.53-3,4.008-6.362,2.088-7.569
	c-4.614-2.151-1.224-8.678-5.479-11.743c-2.552-2.2-4.344-4.557-6.262-6.264c-7.588-0.586,2.967-8.334-3.393-9.134
	c-2.268-3.406-5.73,2.45-3.913-2.349c0.779-2.891,1.354-6.274-0.782-7.829c5.324-0.04,10.16-2.579,15.914-1.566
	c0.319-1.034-0.963-3.413,1.826-4.437c-3.076-5.925,5.625-4.419,8.871-3.132c6.217,2.116,2.482-4.539,4.695-7.829
	c0.165-5.089,0.047-9.524,1.044-14.614c2.466-2.597,2.351-3.651-1.044-4.438c3.36-3.348,9.719-6.174,11.219-9.394
	C325.861,206.037,326.55,202.166,330.254,204.267z"/>
<path id="path2805" fill="none" stroke="#EEF8F3" stroke-width="0.2" stroke-linecap="round" stroke-linejoin="round" d="
	M196.155,264.656c-3.598-1.469-7.1,2.743-6-2.35c-0.875-2.711-4.434-0.061-6.783-1.565c2.406-1.647,1.691-4.678,1.565-7.829
	c3.312,2.447,5.949,1.438,9.392,0.521c-1.941,2.48,2.811,4.288,4.174,2.61c2.167,1.922-0.177,3.702,1.827,5.22
	C203.16,263.224,197.614,264.678,196.155,264.656z"/>
<path id="path2841_1_" fill="none" stroke="#EEF8F3" stroke-width="0.2" stroke-linecap="round" stroke-linejoin="round" d="
	M129.558,242.355c3.044,2.772,7.582,9.141,12.07,11.235c4.358,2.974,7.623,9.041,13.306,9.134c2.067-2.038,1.902-10.573,4.957-4.437
	c3.689,0.601,9.213-2.926,12.784,1.827c1.089,5.255,7.499,6.648,8.348,11.482c1.059-3.623,5.171-1.309,6.262-5.22
	c5.245-2.004,8.325-0.653,13.251,2.075c2.286-3.538,9.642-11.551,7.88-13.558c12.315,2.406,4.598-15.846,11.217-11.25
	c4.166,0.033,4.848-5.846,3.654-8.845c-5.63-2.926,7.245-6.373-0.26-10.179c1.293-4.08,7.591,3.595,7.827-2.087
	c1.447-0.422,1.807,1.348,2.609,2.087c1.317,5.26,6.012,8.668,9.131,12.788c-1.41,2.206-1.877,11.206,1.827,6.525
	c5.146-1.674,6.751,7.771,11.479,3.132c1.336,2.383,2.718,5.288,7.305,2.348c-0.98,4.236,5.022,1.593,4.697,5.48
	c-3.207,5.423-4.708,9.968-6.262,15.658c-1.968,4.958-1.618,11.83-7.566,13.31c-0.219,1.812-3.542,2.835-1.826,5.481
	c3.193,1.025,6.623-1.63,4.174,3.393c-1.962,5.2-0.739,12.517-7.827,14.092c-1.47,1.459-6.398,4.038-1.043,4.437
	c4.782,1.551,12.635-4.203,14.088,2.61c3.266,1.568,3.644,5.723,6.783,6.785c0.441,3.3,2.798,4.76,3.652,8.351
	c5.285,1.687,6.816,9.593,12.522,8.874c1.247,2.396,5.685,1.825,4.436,4.696c5.229,0.49,11.312,1.845,15.132,4.697
	c-0.525,4.259,3.848,2.126,5.739,4.437c3.621-2.411,0.478,1.103,3.131,2.35c0.379,2.804,3.661,3.519,4.957,6.264
	c0.431,2.127,2.169,2.915,3.132,4.959c4.156,1.094,2.975,7.132,7.043,5.479c-0.542,2.276,1.78,4.195,3.131,5.48
	c-1.515,0.752,4.313,2.871,1.564,3.915c1.929,1.556,8.608,5.772,2.871,5.479c-7.11-2.401-13.918-3.607-21.654-1.565
	c-3.893,0.897-7.873,0.268-12.523,0.261c-4.601,2.085-10.838,2.98-13.827-1.305c-4.912,1.812-7.187-1.342-11.479-2.349
	c-3.36-4.343-10.07-3.189-14.609-6.524c-4.191-0.237-7.364-0.347-10.697,0.262c-3.508,2.486-7.837,0.326-11.74,3.132
	c-4.375-2.802-5.61-9.646-11.479-7.047c-7.611,0.575-11.462-10.366-5.218-14.614c-5.761-3.99-13.398-2.436-19.044-6.524
	c-5.057-1.927-9.297-5.847-14.35-2.089c-6.023-4.178-12.686-3.64-19.567-3.914c-4.263-0.011-8.537-2.291-9.653-4.175
	c-0.827-2.72,0.192-4.637-2.489-8.112c-2.199-5.707-6.347-11.068-11.599-14.331c-4.939-3.426,0.5-7.634-2.348-11.223
	c0.842-5.182,4.195-11.044,0.782-16.441c0.39-2.651,3.483-9.958-2.609-8.09c-4.364-1.493-9.92-1.479-15.049-1.044
	c-7.246,1.843-6.047-1.51-5.561-8.352c0.006-5.423-2.436-10.766-6.001-14.614c-4.983,2.628-5.656-5.021-10.697-3.393
	c-4.442-1.541-10.217-1.187-12.783-4.437c-3.83-0.389-4.621-2.442-4.067-3.44"/>
<g>
	<path id="path2823_2_" fill="none" stroke="#EEF8F3" stroke-width="0.2" stroke-linecap="round" stroke-linejoin="round" d="
		M159.542,75.171c3.796-1.672,9.859-2.295,12.611-6.61c9.331-7.12,22.245-9.589,32.351-13.832c4.091-2.401,4.864-7.603,4.435-11.483
		c0.918-3.126-1.095-7.15,1.305-11.744c-2.252-3.525,0.92-7.339,3.652-10.438c6.239,1.577,8.015-4.674,13.306-7.307
		c6.378-4.411,12.704-6.384,20.088-7.568c4.349-3.695,11.673-0.377,17.48-4.176c1.614-0.089,3.198,0.323,4.695,0.783
		c5.423,3.113,13.73-3.042,18.003,2.349c1.557,0.095,2.063,0.235,3.356,1.395"/>
</g>
<g>
	<path id="path2817_3_" fill="none" stroke="#EEF8F3" stroke-width="0.2" stroke-linecap="round" stroke-linejoin="round" d="
		M430.611,63.779c2.134,1.166,5.974,0.057,7.912,0.867c5.981-1.591,7.43,2.891,3.251,8.633c-2.112,3.963-8.2,3.135-2.228,8.036
		c2.214,3.796,9.032,11.687,3.875,14.401"/>
	<path id="path2817_1_" fill="none" stroke="#EEF8F3" stroke-width="0.2" stroke-linecap="round" stroke-linejoin="round" d="
		M306.252,190.174c-5.428-1.67,0.183-2.603,0.521-4.698c3.028-1.504,2.52-4.944,2.87-7.308c2.225,0.784,2.826,1.033,4.436-2.349
		c2.868-2.769,4.877-6.575,4.436-11.222c0.27-3.313,2.813-5.41-1.565-7.83c-4.364-3.346-0.713-6.701,1.304-9.133
		c-1.004-3.646,3.803-4.656,1.044-8.352c2.451-1.387,0.744-6.915,5.479-5.22c1.132,0.621,1.288,0.502,2.445,1.385"/>
</g>
<path id="path2807_1_" fill="none" stroke="#EEF8F3" stroke-width="0.2" stroke-linecap="round" stroke-linejoin="round" d="
	M337.183,119.711c1.01,1.341,7.971,0.328,5.854,4.698c1.116,2.884,1.96,5.487,0.262,7.83c-0.856,1.189-4.276,1.042-2.608,3.914
	c-0.559,0.432,0.037,1.135-0.521,1.566c-3.009,0.148,0.675,3.373-3.914,3.654c-2.558-1.682-8.405-5.129-9.393-6.263
	c5.701-1.177-3.138-3.123,0.522-5.481c-3.714-2.743,4.146-4.131,3.56-7.556"/>
<g>
	<path id="path2835_2_" fill="none" stroke="#EEF8F3" stroke-width="0.2" stroke-linecap="round" stroke-linejoin="round" d="
		M129.558,242.355c-6.745-4.57-10.636,1.087-16.367-1.813c-7.159,1.641-14.18-0.529-20.871,3.132
		c-3.084,1.582-6.333,3.104-9.914,2.087c-1.436-6.075-7.469-6.188-11.741-8.872c-4.519-3.757-2.69-6.928-8.208-8.204
		c-7.107,0.388-7.465-7.905-9.271-12.674c-2.658-6.006-4.657-10.169-8.349-15.397c4.513-5.174-1.066-11.622-6.522-13.571
		c-5.731-3.379,0.446-14.041-7.566-14.615c-3.517-6.4-10.987-9.292-12.523-17.224c-2.495-5.731-5.588-10.425-10.175-13.571
		c-2.837-4.076-6.306-11.256-2.087-14.615c4.301,4.078,9.604,1.909,14.349,3.654c2.51-1.96,7.286-0.747,10.175-2.61
		c1.674,2.662,7.606,2.944,8.87,6.263c-2.082,2.835,6.25,5.723,7.565,3.132c4.585,0.493,5.123-1.489,7.566-3.393
		c4.718-3.497,6.633-0.111,10.697,0.522c4.816-0.497,9.969,2.873,14.61,3.915c1.511,3.708,7.335,5.996,9.914,1.305
		c4.452-0.201,5.876-2.755,10.697-2.871c5.028-0.117,7.348-1.103,10.812-4.87c3.405-4.849,5.557-10.928,10.319-16.27
		c7.114-6.25,18.549-10.644,19.045-21.399c6.015-7.468,9.771-17.341,20.232-19.37c4.628-0.389-0.43,6.073,2.987,7.887
		c-0.263,0.814,0.546,1.073,0.522,1.827c-0.3,1.224-2.898,4.007,1.043,2.087c0.674,2.856,4.455,1.428,3.652,5.22
		c1.055,3.448,1.364,8.377,5.479,9.917c2.469,3.971-2.774,8.267-1.565,13.048c-1.076,3.373-1.581,8.978-6.262,8.612
		c-3.208,2.872,0.329,6.031-2.087,9.134c0.521,2.975-5.928,4.917-2.349,8.351c2.459-0.323,3.592,3.642,1.565,6.002
		c1.669,0.846,5.371,2.807,1.044,2.349c-7.522,0.392-2.283,11.781-3.653,16.964c-0.766,5.815,7.061,1.481,10.436,3.392
		c8.616,1.915,19.977,0.053,29.742,0c7.375,2.625,16.541,0.121,23.48,1.827c2.13,5.768-7.859,4.663-11.218,7.046
		c-6.279-0.206-1.107,7.425-0.783,10.699c0.56,3.015,1.511,7.298,3.653,7.568c3.338,2.308-1.133,9.281,3.913,11.223
		c2.537,2.325,6.621,4.783,3.13,7.568c0,0,4.697,4.698,7.306,6.785"/>
</g>
</svg>
