<?xml version="1.0" encoding="utf-8"?>
<!-- Generator: Adobe Illustrator 16.0.0, SVG Export Plug-In . SVG Version: 6.00 Build 0)  -->
<!DOCTYPE svg PUBLIC "-//W3C//DTD SVG 1.1//EN" "http://www.w3.org/Graphics/SVG/1.1/DTD/svg11.dtd">
<svg version="1.1"
	 id="svg2799" sodipodi:version="0.32" inkscape:output_extension="org.inkscape.output.svg.inkscape" inkscape:version="0.45.1" sodipodi:docbase="C:\Documents and Settings\PC User\My Documents" sodipodi:docname="Provinces of Zimbabwe.svg" xmlns:rdf="http://www.w3.org/1999/02/22-rdf-syntax-ns#" xmlns:svg="http://www.w3.org/2000/svg" xmlns:inkscape="http://www.inkscape.org/namespaces/inkscape" xmlns:cc="http://web.resource.org/cc/" xmlns:sodipodi="http://sodipodi.sourceforge.net/DTD/sodipodi-0.dtd" xmlns:dc="http://purl.org/dc/elements/1.1/"
	 xmlns="http://www.w3.org/2000/svg" xmlns:xlink="http://www.w3.org/1999/xlink" x="0px" y="0px" width="4811.695px"
	 height="3043.629px" viewBox="-1776 -1923.371 4811.695 3043.629" enable-background="new -1776 -1923.371 4811.695 3043.629"
	 xml:space="preserve">
<text transform="matrix(1 0 0 1 2233.9766 -943.4395)"><tspan x="0" y="0" font-family="'Elephant-Black'" font-size="162.132">READING</tspan><tspan x="-75.643" y="194.559" font-family="'Elephant-Black'" font-size="162.132">ZIMBABWE</tspan></text>
<polygon fill="#FFFFFF" stroke="#000000" stroke-width="3" stroke-miterlimit="10" points="2293.493,227.588 2501.999,382.727 
	2501.999,30.846 2293.493,-124.293 "/>
<polygon fill="#FFFFFF" stroke="#000000" stroke-width="3" stroke-miterlimit="10" points="2753.166,226.636 2544.66,381.773 
	2544.66,29.893 2753.166,-125.245 "/>
<sodipodi:namedview  inkscape:guide-bbox="true" inkscape:current-layer="svg2799" inkscape:window-y="-4" inkscape:window-x="-4" inkscape:window-width="1024" inkscape:window-height="712" inkscape:pageshadow="2" inkscape:pageopacity="0.0" id="base" borderopacity="1.0" gridtolerance="10.0" showguides="true" inkscape:cy="234.49648" inkscape:zoom="1.0873622" bordercolor="#666666" inkscape:cx="302.956" objecttolerance="10.0" guidetolerance="10.0" pagecolor="#ffffff">
	</sodipodi:namedview>
<g>
	<path id="path2835" fill="#FFFFFF" stroke="#000000" stroke-width="3" stroke-linecap="round" stroke-linejoin="round" d="
		M1722.56-1280.83c-0.275,1.126-2.666,3.687,0.961,1.92c0.619,2.627,4.098,1.313,3.359,4.802c0.971,3.172,1.254,7.706,5.04,9.123
		c2.271,3.653-2.552,7.604-1.44,12.003c-0.989,3.103-1.453,8.258-5.76,7.922c-2.951,2.642,0.303,5.548-1.92,8.402
		c0.48,2.737-5.452,4.523-2.16,7.682c2.262-0.297,3.305,3.35,1.44,5.521c1.535,0.778,4.94,2.582,0.96,2.161
		c-6.92,0.36-2.1,10.837-3.359,15.604c-0.705,5.35,6.494,1.362,9.6,3.121c7.926,1.762,18.377,0.049,27.359,0
		c6.783,2.414,15.215,0.111,21.599,1.681c1.959,5.306-7.229,4.29-10.319,6.482c-5.776-0.189-1.02,6.831-0.721,9.842
		c0.516,2.773,1.391,6.713,3.36,6.962c3.071,2.122-1.042,8.538,3.6,10.323c2.334,2.14,5.851,4.88,2.64,7.442
		c2.402,2.064,8.308,4.5,6,7.922c-1.508-0.786-8.29-2.737-5.279,0.96c4.996,3.384-6.816,6.009-0.24,8.402
		c0.787,4.807-1.879,10.598-7.68,6.481c8.076,7.85-8.909,11.559-5.047,13.438c-5.67,1.8-5.959,13.994-11.517,9.845
		c-3.901-2.406,7.164-2.432,1.924-5.277c-0.032-1.5,0.468-3.25-1.44-4.321c-1.312,1.948-4.865-0.909-3.6-2.401
		c-3.031,1.032-5.438,1.622-8.399-0.479c0.116,2.898,0.773,5.687-1.44,7.202c2.162,1.384,5.436-1.054,6.24,1.439
		c0.416,2.395-3.645,3.072-4.8,5.522c-2.774-1.467-3.642,4.553-4.56,0c-1.955-2.749-6.334-5.541-7.68-9.362
		c-3.508-3.046-7.658-0.086-10.8-0.721c-3.713-6.915-2.241,8.479-8.16,3.361c-4.126-3.982-8.851-7.266-12.72-11.523
		c-0.109-3.992-3.088-5.568-6.719-6.002c-4.105-5.035-10.089,0.508-15.36-2.16c-6.586,1.509-13.044-0.487-19.199,2.881
		c-2.837,1.455-5.825,2.855-9.12,1.92c-1.32-5.589-6.87-5.693-10.8-8.162c-4.156-3.455-2.475-6.372-7.551-7.547
		c-6.537,0.357-6.866-7.271-8.528-11.658c-2.445-5.524-4.284-9.354-7.68-14.164c4.151-4.759-0.981-10.691-5.999-12.483
		c-5.273-3.109,0.41-12.916-6.961-13.444c-3.234-5.887-10.106-8.548-11.52-15.844c-2.295-5.271-5.14-9.589-9.359-12.484
		c-2.609-3.75-5.801-10.354-1.92-13.443c3.957,3.75,8.835,1.755,13.199,3.361c2.309-1.803,6.703-0.687,9.36-2.401
		c1.54,2.449,6.997,2.708,8.159,5.762c-1.914,2.608,5.75,5.264,6.96,2.881c4.218,0.453,4.712-1.37,6.96-3.121
		c4.34-3.217,6.102-0.102,9.84,0.48c4.43-0.457,9.17,2.643,13.439,3.601c1.39,3.412,6.748,5.516,9.12,1.201
		c4.095-0.185,5.405-2.535,9.84-2.641c4.625-0.108,6.758-1.014,9.945-4.479c3.133-4.461,5.111-10.053,9.493-14.966
		c6.544-5.75,17.063-9.791,17.52-19.685c5.533-6.87,8.988-15.952,18.612-17.818c4.257-0.358-0.396,5.586,2.747,7.255
		C1721.838-1281.762,1722.582-1281.523,1722.56-1280.83z"/>
	<path id="path2815" fill="#FFFFFF" stroke="#000000" stroke-width="3" stroke-linecap="round" stroke-linejoin="round" d="
		M1846.636-1354.77c0.051,6.22-0.102,12.371,0,18.485c9.13,0.538,18.76-1.044,27.6,0.72c2.543,4.935,5.999-2.088,9.84-1.68
		c4.582,1.639,9.723,0.972,12.239,6.242c2.781,3.179,6.22,3.415,11.28,4.561c5.677-0.235,11.348,3.595,13.199,6.242
		c4.456,0.892,2.469,7.462,8.399,6.482c9.419,0.665,19.385-0.692,27.972,4.614c3.601,2.081,11.532,2.798,8.747,8.35
		c6.286,1.961-2.01,3.349-4.08,2.88c-4.364,0.205-8.572-3.47-13.199-0.48c-3.604,1.097-6.722,3.151-10.319,2.401
		c-3.579,2.403-10.268,1.43-8.641,7.442c-2.26,1.062-5.587,3.646-5.279,6.242c-1.873,1.69-4.578,4.414-3.359,6.722
		c-2.326,1.506-8.191,1.209-5.041,4.801c0.123,5.09-6.789,6.175-7.68,10.563c-4.378-0.049-5.218,4.78-7.439,6.722
		c-1.677-0.648-6.025,2.477-8.879,2.881c-3.646-1.332,5.07-9.45-1.92-8.402c-3.5-0.652-7.877-1.43-7.44,3.121
		c-4.19,0.705,2.086,1.713-0.479,4.321c-0.824,2.841-0.467,6.814-3.84,6.482c-3.477,0.366-3.075-6.612-6.48-2.641
		c-2.454-2.455-9.232-1.992-6.479-6.482c-2.116-2-11.255,2.466-8.88-3.361c-0.139-5.984,0.949-11.958,4.8-17.285
		c1.526-3.263,1.967-6.821-2.159-6.242c-0.911-1.433-5.891,2.311-6.48-1.44c0.721-3.794-3.468-9.237-0.72-11.764
		c3.036-0.45-1.767-2.413-0.479-4.801c-0.026-3.34-6.51-1.988-7.44-5.762c0.274-4.003,4.108-9.562,2.16-13.684
		c-4.227,0.854-5.509-1.946-8.16-3.841c-4.065-1.074-1.97,6.124-6.72,5.281c-2.203,1.588-5.928,1.709-3.84-1.44
		c3.051-2.5,0.01-6.732,4.08-8.643c-2.073-1.253-3.023-4.38-3.359-7.442c-5.275-3.907,4.806-5.573,6.479-8.882
		c2.403-2.122,9.841-5.64,4.32-9.123c-1.014-4.498,5.646-0.88,7.439-3.601l0.24,0.48V-1354.77z"/>
	<path id="path2809" fill="#FFFFFF" stroke="#000000" stroke-width="3" stroke-linecap="round" stroke-linejoin="round" d="
		M1980.312-1255.143c5.213,1.287,2.141,6.336,1.92,9.123c0.233,1.125,0.967,4.686-2.88,4.802c-0.024,4.594,1.146,6.075-0.72,9.842
		c0.575,5.183,3.051,8.206,3.12,12.964c-1.343,3.882,5.22,5.339,0.72,8.643c2.212,6.389-9.26,1.52-6.479,7.922
		c-0.197,3.079,5.498,7.031,1.439,11.043c-3.549,0.875-7.404-0.031-11.009,2.863c1.829,4.162-1.356,5.57,0.209,9.861
		c4.553-0.351,7.782-0.421,8.4,4.801c-0.874,5.197-1.356,10.786-5.04,13.685c-2.138,6.105,4.271,3.968,3.84,8.882
		c-1.255,4.964-1.202,9.891,5.04,6.481c1.405,0.236,0.94,5.182,5.52,6.723c-1.57,4.93,0.148,13.9-6.96,13.203
		c1.635,5.885-5.097,0.827-2.64,6.962c-2.728,2.397,1.601,6.29-3.6,9.122c-2.043,2.934-4.764,8.373-7.92,10.804
		c-5.68-1.29-10.507,3.636-8.16,9.122c1.121,6.225,1.972,12.961-3.777,17.352c-4.703,3.49-0.932,5.98,0.418,9.776
		c4.904,4.006,0.822,4.615-1.68,1.921c-3.256-2.212-5.908-3.834-6.48-8.162c-0.177-3.773-5.744-2.419-4.56-6.242
		c-4.007-2.006-1.275-7.865,0.96-11.043c0.985-3.232,1.259-5.959,3.119-8.162c1.734-7.104,1.206-14.833,3.121-21.846
		c-0.005-4.43,4.275-12.851-2.4-13.685c-2.803-2.134-5.743-3.5-9.359-3.601c-2.02-2.879-6.738-0.721-6.961-5.281
		c-3.724-3.266-6.215-7.326-9.6-10.804c-3.131-1.429-5.08-4.305-6.479-6.962c-5.649,0.965-7.145-6.247-13.2-4.801
		c-2.88-3.113-6.614-4.732-10.079-6.963c4.408,0.896,4.955-3.338,5.76-6.481c1.119-2.19,6.705-0.319,7.919,1.681
		c4.505,2.795,6.181-4.066,6.24-6.722c3.395,3.892,8.489-2.141,11.279,3.121c2.237,2.162,8.394,3.338,8.64,1.2
		c-0.424-3.61,1.119-8.832-3.119-11.043c-0.055-3.652-0.471-7.844-4.801-7.922c0.584-3.456-5.688-5.532-3.359-9.122
		c-1.521-1.778-2.565-2.828-0.24-4.562c0.752-2.98,6.162-1.318,4.561-5.042c2.948-3.3-2.691-11.826,3.119-12.963
		c3.759,1.61,6.107,0.774,4.08-3.361c3.82-2.857,9.142-6.129,8.64-11.283c6.032-2.766,8.74-9.031,15.6-9.843
		c2.472-3.559,6.511-1.909,8.88-5.521c1.165-1.923,3.397-4.258,6.239-6.242c0.38-4.818,5.051-5.906,7.68-8.643
		c6.519-3.175,4.773,0.678,8.64,3.841C1982.421-1262.274,1978.156-1258.609,1980.312-1255.143z"/>
	<path id="path2847" fill="#FFFFFF" stroke="#000000" stroke-width="3" stroke-linecap="round" stroke-linejoin="round" d="
		M1768.398-1277.229c0.962,3.6,3.919,5.498,7.2,6.722c3.129,3.379,11.014,0.246,10.56,6.242c2.58,1.812,4.649,4.2,6.96,5.522
		c-1.172,2.532-6.258,4.631-3.12,7.442c1.035,2.97-3.757,5.31-0.96,7.442c-2.721,3.604-4.129,7.171-5.76,11.043
		c-1.218,4.048,1.897,8.707,4.56,11.283c2.809,1.743,4.378,4.241,7.68,5.282c3.312,1.932,8.444,2.924,6,7.682
		c-0.604,1.647-2.258,6.671,0.479,7.202c2.678-0.059,4.073,3.14,7.44,1.68c1.83,2.161,3.767,0.809,5.52,3.361
		c2.938,1.062,5.429,1.63,9.12,0.96c3.258,1.69,8.954,0.246,11.52,3.121c1.482,3.425,6.277,1.141,7.92,4.561
		c4.686,1.167,9.033,4.85,13.919,4.801c3.979-2.028,3.667,3.141,2.399,4.801c2.758,3.403,2.883,5.036,2.641,7.922
		c2.141,2.424,10.422,4.674,4.32,7.442c-2.141,1.826-9.525,5.044-2.641,5.041c-0.184,1.676-3.18,2.66-2.16,6.482
		c-1.418,4.894,0.194,10.163-1.92,15.123c1.918,4.787-6.166,0.95-8.399,0.961c-6.062-1.396-0.875,4.754-4.8,5.521
		c2.502,5.164-6.346,1-9.119,3.361c-2.626,1.814-8.073-0.76-3.601,3.36c-0.188,2.223-3.198,9.034,0.479,5.521
		c3.615,1.053,5.828,3.241,2.641,6.722c-0.869,3.49,5.086,2.035,4.8,5.762c4.492,1.807,6.372,7.013,6.479,11.523
		c0.99,2.568,4.834,2.309,1.44,4.801c-2.8,5.475,0.435,13.354-6.239,16.325c-4.172-1.06-9.167,0.876-13.2-1.681
		c-3.438-2.336-8.077-7.847-11.999-2.4c-2.769,3.156-6.012,4.432-9.6,3.121c-3.745,0.094-10.059,2.346-12.24-0.721
		c3.554-2.907,10.316-5.117,9.359-11.523c-0.273-2.307,4.441-9.022-0.24-6.722c-3.943,0.815-2.854-3.812-1.199-4.562
		c1.441-2.18,6.114-3.391,6-7.682c1.42-5.805,2.725-10.957,5.039-15.845c3.332-3.111,2.57-7.126-1.92-6.962
		c1.826-5.303-6.758,2.285-5.76-3.121c-2.184-1.292-6.15,0.394-9.119-3.601c-2.236-1.835-6.312,3.519-5.04-1.921
		c-0.101-2.975,1.919-6.217-2.399-7.441c-1.345-3.632-5.074-5.566-5.76-9.604c-2.946-2.109-6.475-5.098-8.641-7.441
		c4.357-4.486-6.473-6.531-5.279-11.283c0.661-3.812-0.408-6.275-3.12-7.202c-0.571-5.029-4.146-10.659-3.12-15.124
		c4.029-1.739,11.137-1.557,13.199-5.521c-1.497-4.544-8.692-0.739-12.719-1.92c-7.867-0.683-15.262-1.641-23.039-0.48
		c-6.979,0.338-12.402-0.217-18.72-1.44c-3.272,1.797-5.815-0.458-4.319-3.841c0.351-4.526-3.275-14.037,3.119-14.164
		c3.98,0.421,0.575-1.383-0.96-2.161c1.864-2.172,0.821-5.819-1.44-5.521c-3.317-3.605,3.428-5.276,2.4-8.882
		c1.775-2.32-1.58-7.717,3.6-7.442c5.184-3.731,2.527-11.175,5.76-16.084c-0.096-3.672,4.725-0.289,6.24-2.641
		c3.34-0.576,6.486-1.099,9.119,1.681c1.794-4.053,5.764-5.688,6.961-10.323c3.557-1.513,6.876-4.68,11.52-3.601
		C1766.862-1276.689,1767.425-1277.421,1768.398-1277.229z"/>
	<path id="path2829" fill="#FFFFFF" stroke="#000000" stroke-width="3" stroke-linecap="round" stroke-linejoin="round" d="
		M1875.195-1170.879c1.403,3.151,1.334,7.069,7.68,4.561c8.232-2.889,12.131,7.05,19.679,6.962c3.135,1.844,5.053,4.915,9.36,4.562
		c0.745,4.899,7.077,5.932,8.88,10.322c3.891,3.117,5.977,8.186,9.6,10.804c3.485-0.456,5.225,3.607,9.119,2.161
		c2.824,4.074,10.086,2.615,7.92,9.361c-1.404,8.383-3.147,16.514-3.359,25.207c-1.205,2.486-0.779,5.729-2.881,6.963
		c0.465,5.707-6.916,10.904-3.119,15.844c1.395,2.119,1.588,3.775,5.039,5.041c1.02,4.129,2.116,7.615,6.24,9.123
		c4.832,2.852-4.26,6.26-5.76,9.603c-16.297,16.358-31.615,33.426-48.479,48.974c-3.414,1.849-6.839-3.038-11.039-3.36
		c-2.611,1.242-2.719-3.343-6-3.602c0.739-1.817-1.112-2.713-2.4-4.321c0.125-0.684-3.141-3.359-2.64-5.281
		c-3.801,1.814-2.528-4.355-6.479-5.041c-1.059-1.657-1.961-2.675-2.881-4.562c-1.771-2.689-4.079-3.7-5.279-6.722
		c0.467-2.806-1.312-0.179-3.6-2.161c-2.105,0.818-3.957-1.548-4.08-3.601c-4.366-1.805-8.79-3.391-13.68-3.602
		c1.594-3.083-3.426-2.113-4.32-4.801c-5.229,1.386-6.165-6.764-11.039-7.683c-1.022-3.346-2.798-5.147-3.84-7.922
		c-2.37-1.188-2.999-4.628-5.76-6.001c-3.995-4.48,4.211-1.215,5.76-5.762c3.592-5.105,8.904-2.072,11.76,1.68
		c4.43,2.814,9.285,0.611,13.92,2.161c5.291-2.292,4.59-7.49,5.279-12.243c-0.488-2.76,3.687-5.853,1.92-6.963
		c-4.244-1.979-1.125-7.982-5.039-10.803c-2.348-2.023-3.996-4.191-5.76-5.762c-6.98-0.539,2.729-7.666-3.121-8.402
		c-2.086-3.133-5.271,2.254-3.6-2.16c0.717-2.659,1.246-5.771-0.72-7.202c4.897-0.036,9.347-2.372,14.64-1.44
		c0.293-0.951-0.886-3.14,1.68-4.081c-2.83-5.45,5.174-4.065,8.16-2.881c5.719,1.946,2.283-4.176,4.319-7.202
		c0.151-4.682,0.043-8.762,0.96-13.443c2.269-2.389,2.162-3.359-0.96-4.082c3.091-3.08,8.94-5.68,10.319-8.642
		C1871.155-1169.25,1871.788-1172.811,1875.195-1170.879z"/>
	<path id="path2805" fill="#FFFFFF" stroke="#000000" stroke-width="3" stroke-linecap="round" stroke-linejoin="round" d="
		M1751.839-1114.463c-3.309-1.351-6.531,2.523-5.52-2.161c-0.805-2.493-4.078-0.056-6.24-1.439c2.214-1.516,1.557-4.304,1.44-7.202
		c3.046,2.251,5.473,1.323,8.64,0.479c-1.785,2.282,2.585,3.944,3.84,2.401c1.992,1.768-0.162,3.405,1.68,4.802
		C1758.283-1115.781,1753.183-1114.443,1751.839-1114.463z"/>
	<path id="path2841" fill="#FFFFFF" stroke="#000000" stroke-width="3" stroke-linecap="round" stroke-linejoin="round" d="
		M1786.158-1152.154c1.212,4.838,5.53,7.974,8.399,11.764c-1.297,2.029-1.727,10.308,1.68,6.002
		c4.734-1.539,6.211,7.148,10.561,2.881c1.228,2.192,2.499,4.865,6.719,2.16c-0.902,3.896,4.62,1.465,4.32,5.041
		c-2.949,4.988-4.33,9.17-5.76,14.404c-1.811,4.561-1.488,10.882-6.96,12.243c-0.202,1.667-3.259,2.607-1.68,5.042
		c2.938,0.943,6.092-1.499,3.84,3.121c-1.806,4.783-0.68,11.514-7.2,12.963c-1.352,1.342-5.885,3.715-0.959,4.081
		c4.398,1.427,11.623-3.866,12.959,2.401c3.004,1.442,3.352,5.264,6.24,6.241c0.405,3.036,2.573,4.379,3.359,7.682
		c4.861,1.552,6.27,8.824,11.52,8.163c1.148,2.204,5.229,1.68,4.08,4.32c4.81,0.451,10.406,1.697,13.92,4.321
		c-0.483,3.917,3.539,1.955,5.279,4.081c3.331-2.218,0.439,1.014,2.88,2.161c0.349,2.579,3.368,3.236,4.56,5.762
		c0.396,1.957,1.995,2.682,2.881,4.562c3.824,1.007,2.736,6.561,6.479,5.041c-0.499,2.094,1.638,3.859,2.88,5.041
		c-1.394,0.692,3.968,2.642,1.439,3.602c1.773,1.432,7.918,5.311,2.641,5.041c-6.541-2.209-12.803-3.318-19.92-1.44
		c-3.58,0.825-7.242,0.246-11.52,0.24c-4.232,1.918-9.97,2.741-12.72-1.2c-4.519,1.667-6.61-1.234-10.56-2.161
		c-3.092-3.994-9.264-2.934-13.439-6.001c-3.855-0.219-6.774-0.319-9.84,0.24c-3.227,2.287-7.209,0.3-10.799,2.881
		c-4.025-2.577-5.16-8.873-10.561-6.482c-7.002,0.529-10.544-9.535-4.8-13.443c-5.3-3.671-12.325-2.24-17.519-6.002
		c-4.652-1.772-8.553-5.378-13.2-1.921c-5.541-3.844-11.67-3.349-17.999-3.601c-3.922-0.01-7.854-2.107-8.88-3.841
		c-0.761-2.502,0.177-4.265-2.29-7.462c-2.022-5.25-5.838-10.182-10.67-13.184c-4.543-3.151,0.461-7.021-2.16-10.323
		c0.775-4.767,3.859-10.159,0.721-15.124c0.358-2.439,3.203-9.16-2.4-7.442c-4.015-1.373-9.125-1.36-13.844-0.96
		c-6.665,1.695-5.562-1.389-5.115-7.683c0.006-4.988-2.24-9.903-5.52-13.443c-4.584,2.417-5.203-4.618-9.84-3.121
		c-4.087-1.417-9.398-1.091-11.76-4.081c-5.674,0.482-4.113-3.537-0.48-4.801c4.928-1.762,9.279-2.914,14.4-2.401
		c4.214-1.243,8.679,0.481,12.959-0.239c4.603-2.621,8.271,2.57,12.479,2.641c2.8,2.551,2.591,6.955,6.72,8.882
		c4.01,2.735,7.012,8.317,12.24,8.402c1.901-1.875,1.75-9.727,4.56-4.081c3.394,0.553,8.476-2.691,11.759,1.681
		c1.002,4.834,6.898,6.116,7.68,10.562c0.975-3.333,4.758-1.204,5.761-4.802c4.825-1.843,7.658-0.601,12.19,1.909
		c2.103-3.255,8.869-10.625,7.248-12.472c11.33,2.214,4.23-14.576,10.318-10.349c3.832,0.03,4.46-5.377,3.361-8.136
		c-5.18-2.691,6.664-5.863-0.239-9.363c1.189-3.754,6.983,3.307,7.2-1.92C1785.09-1154.462,1785.421-1152.834,1786.158-1152.154z"/>
	<path id="path2823" fill="#FFFFFF" stroke="#000000" stroke-width="3" stroke-linecap="round" stroke-linejoin="round" d="
		M1819.276-1356.21c4.988,2.863,12.631-2.799,16.561,2.161c3.01-3.968,3.25,0.115,3.6,2.4c4.825,3.948-4.777,6.867-6.721,9.843
		c-2.843,2.482-9.508,4.378-4.079,8.163c-1.003,3.426,2.438,5.122,2.64,6.962c-3.83,1.969-1.222,6.784-4.32,9.123
		c-0.352,4.264,5.404-0.973,7.68-0.72c-0.58-5.084,5.485-5.528,6.24-0.96c3.139,0.162,8.363,0.493,5.28,5.521
		c0.394,4.396-5.239,9.248,0.72,11.523c3.154,0.674,6.026,2.251,4.32,5.761c5.141,2.113-2.053,1.5,0,4.802
		c0.989,3.328,0.621,8.064,2.399,10.562c3.444,0.856,4.963-1.435,7.68,0.48c3.422,1.512-1.63,7.621-2.64,10.803
		c-2.843,5.04-1.65,9.94-2.4,15.364c3.32,0.304,11.66-2.41,8.4,3.361c3.748,0.625,6.732,4.789,9.6,2.16
		c3.438,1.957,0.066,6.477-2.4,7.202c0.543,1.98-0.367,2.804,0.48,4.562c4.184,2.061-1.284,3.075-3.36,1.68
		c-3.075-0.651-1.964,3.98-3.84,5.042c2.59,3.422-2.441,4.605-0.96,8.402c-6.062,2.198-1.427,7.844,1.68,10.563
		c-2.953,3.464,0,9.998-4.319,12.963c-1.438,1.422-2.71,5.307-4.08,3.841c-3.366-1.429,0.692,4.815-3.12,5.281
		c-0.857,2.663-2.412,3.06-4.56,4.082c-3.993-0.455-6.697-4.087-10.079-4.562c-3.446,0.366-3.549-3.934-6.961-3.841
		c-4.811-0.602-8.777-2.288-13.919-1.201c-2.314-0.891-5.001-2.511-6.72-3.361c-1.74-0.557-3.773-2.265-6.479-1.2
		c-1.17-2.916-6.64-0.861-4.8-5.042c-0.738-3.424,3.732-8.188-1.2-9.603c-3.467-2.208-7.899-3.388-10.319-6.482
		c-3.953-2.084-5.842-6.845-6.48-11.043c1.65-4.307,3.316-8.021,6-12.003c-2.371-2.233,2.154-4.265,0.96-7.442
		c-1.427-2.42-0.411-3.169,1.44-5.762c4.44-2.166-1.459-3.253-2.641-5.762c-3.711-1.393-1.939-6.815-6.719-5.521
		c-4.416-1.334-8.634-2.885-12-6.001c-0.504-5.342-5.156-1.177-8.641-1.921c-3.867,1.887-7.867,3.447-8.639,8.163
		c-3.48,0.449-3.714,8.203-7.44,3.841c-3.714-2.02-7.628,1.893-11.52,0.72c-1.657,0.008-2.077-3.02-4.079-3.361
		c-2.299-2.942-1.921-6.984-3.36-10.323c-2.537,0.198-2.444-2.972-5.04-1.44c3.383-2.137-1.396-5.55,0-8.883
		c-1.951-5.288,6.108-4.432,8.64-8.402c8.583-6.55,20.462-8.821,29.759-12.724c3.764-2.209,4.475-6.994,4.08-10.563
		c0.845-2.876-1.008-6.577,1.2-10.803c-2.071-3.243,0.847-6.751,3.36-9.603c5.739,1.451,7.372-4.3,12.239-6.722
		c5.867-4.057,11.687-5.873,18.479-6.962c4-3.399,10.737-0.347,16.079-3.841C1816.442-1357.013,1817.899-1356.633,1819.276-1356.21z
		"/>
	<path id="path2817" fill="#FFFFFF" stroke="#000000" stroke-width="3" stroke-linecap="round" stroke-linejoin="round" d="
		M1974.792-1299.314c5.502-1.463,6.834,2.66,2.99,7.941c-1.943,3.646-7.544,2.883-2.049,7.392
		c2.036,3.492,8.362,10.978,3.618,13.475c-4.809,0.257-7.047,3.665-10.56,6.002c-0.494,3.722-2.777,5.949-6.24,6.962
		c1.146,3.505-2.949,3.967-5.039,5.762c-3.359-0.5-4.954,4.004-8.88,3.601c-4.226,2.666-6.991,6.438-11.76,8.882
		c0.502,5.154-4.819,8.426-8.64,11.283c2.027,4.135-0.321,4.971-4.08,3.361c-5.925,1.288,0.061,10.104-3.359,13.444
		c2.122,3.674-5.275,1.459-4.561,5.521c-3.776,1.194,2.753,3.621,0,6.001c1.15,2.565,4.297,4.96,4.561,7.202
		c6.008-0.237,1.94,7.555,6,9.362c2.449,2.833,0.495,8.295,0.959,10.083c-5.309,1.805-8.743-4.531-13.68-4.561
		c-1.979,3.092-7.758-3.298-5.999,1.44c-0.811,3.5-4.075,7.381-7.2,3.601c-1.275-0.846-8.123-3.968-6.959,0.72
		c-1.785,2.627-1.527,6.045-6,5.041c-3.55-0.754-9.53,2.59-11.52,0c2.758-4.084-5.281-6.587-4.561-2.4
		c-0.329,1.402-0.461,5.246-3.359,3.361c-2.309-1.599-8.596-5.307-5.52-6.962c-2.1-2.832-3.329-6.517-2.641-8.402
		c0.814-4.808-5.199,0.578-7.199-2.641c-4.992-1.537,0.168-2.394,0.479-4.321c2.785-1.384,2.317-4.548,2.64-6.722
		c2.047,0.721,2.6,0.95,4.08-2.161c2.639-2.547,4.486-6.048,4.08-10.323c0.248-3.048,2.589-4.976-1.439-7.202
		c-4.015-3.078-0.656-6.165,1.199-8.402c-0.924-3.354,3.498-4.283,0.96-7.682c2.255-1.276,0.685-6.36,5.04-4.801
		c3.594,1.832,7.373,5.438,10.8,6.482c4.324-0.164,0.298-3.122,3.6-3.601c-0.411-2.642,0.44-3.898,2.64-4.321
		c1.085-2.253,1.389-4.391-0.24-6.962c2.192-4.831-4.152-2.633-5.52-5.281c0.861-2.064,2.272-5.398-0.479-5.762
		c2.296-0.275,1.414-5.274,4.8-4.801c2.836,1.404,10.09-0.51,6.24,4.561c-2.258,4.047-0.142,5.593,3.359,3.361
		c3.631-1.397,5.281-1.445,7.439-3.601c0.131-4.517,5.914-3.603,7.2-7.202c2.056-3.081,8.543-6.617,5.28-10.803
		c2.414-1.106,7.221-1.466,5.52-4.562c2.45-2.665,2.938-4.895,5.039-7.202c2.098-2.795,4.502-3.75,4.561-7.202
		c2.396-2.413,6.512-2.507,9.84-3.601c5.559,0.143,12.868-6.52,18.719-1.921c3.438-0.649,7.003,1.176,9.84-1.68
		C1970.755-1298.482,1973.009-1300.06,1974.792-1299.314z"/>
	<path id="path2807" fill="#FFFFFF" stroke="#000000" stroke-width="3" stroke-linecap="round" stroke-linejoin="round" d="
		M1884.315-1232.096c-2.768,0.136,0.621,3.103-3.601,3.361c-2.353-1.547-7.731-4.718-8.64-5.762c5.244-1.083-2.887-2.872,0.48-5.042
		c-3.416-2.523,3.418-3.091,2.879-6.242c1.873,0.813,7.016,1.39,5.76-2.881c0.93,1.233,7.707,0.301,5.76,4.321
		c1.026,2.653,1.803,5.047,0.24,7.202c-0.787,1.094-3.934,0.959-2.399,3.601C1884.281-1233.14,1884.829-1232.493,1884.315-1232.096z
		"/>
</g>
<path fill="none" stroke="#000000" stroke-width="3" stroke-miterlimit="10" d="M1254.146-492.794c-0.04-3.141-0.02-6.351,0-9.451
	c0.021-2.75,0.03-5.51,0.01-8.27v-0.96c0-0.13-0.029-0.25-0.08-0.36l-0.239-0.479c-0.131-0.261-0.391-0.431-0.67-0.44
	c-0.301-0.02-0.561,0.12-0.721,0.35c-0.43,0.66-1.399,0.791-2.74,0.791h-0.689c-0.24-0.01-0.47-0.01-0.7-0.01
	c-0.76,0-1.58,0.029-2.25,0.33c-0.31-0.58-0.77-0.971-1.46-0.971c-0.65,0-1.31,0.391-2.08,1.25c-1.229-1.17-2.82-1.71-4.91-1.71
	c-1.31,0-2.689,0.21-4.029,0.41c-1.311,0.2-2.66,0.409-3.9,0.409c-1.35,0-2.4-0.239-3.29-0.75c-0.05-0.029-0.11-0.049-0.16-0.069
	c-1.439-0.44-3.01-0.84-4.6-0.75c-0.141,0-0.28,0.05-0.4,0.13c-2.49,1.63-5.37,1.73-8.16,1.82c-2.899,0.1-5.64,0.199-7.819,1.93
	c-7.67,1.25-13.23,3.359-18.54,7.03c-1.88,0.94-3.311,2.36-4.57,3.61c-1.75,1.729-3.27,3.229-5.52,3.229
	c-0.48,0-1.011-0.069-1.551-0.21c-0.29-0.07-0.6,0.029-0.8,0.25c-2.27,2.58-5.66,6.42-3.66,10.16c-1.229,2.609-1.08,4.98-0.939,7.08
	c0.09,1.33,0.17,2.479-0.12,3.47c-0.03,0.101-0.04,0.21-0.03,0.31c0.18,1.68,0.47,7.311-3.649,9.76
	c-2.9,1.221-6.021,2.261-9.32,3.371c-7.17,2.399-14.59,4.879-20.561,9.439c-0.069,0.051-0.14,0.12-0.189,0.2
	c-0.9,1.409-2.7,2.159-4.45,2.89c-1.56,0.65-3.34,1.4-4.16,2.77c-0.24-0.059-0.5-0.09-0.79-0.09c-0.13,0-0.27,0-0.5,0.031
	c-7.6,1.469-11.529,7.26-15.319,12.85c-1.2,1.77-2.44,3.59-3.771,5.25c-0.1,0.13-0.17,0.289-0.17,0.459
	c-0.32,6.951-6.04,10.951-11.56,14.83c-1.95,1.361-3.971,2.781-5.761,4.361c-2.729,3.069-4.52,6.329-6.25,9.489
	c-1.069,1.96-2.09,3.819-3.27,5.511c-2.97,3.219-4.9,4.079-9.34,4.18c-2.45,0.06-4,0.75-5.49,1.42c-1.31,0.59-2.54,1.14-4.37,1.22
	c-0.28,0.01-0.53,0.17-0.66,0.42c-0.729,1.31-1.81,2-3.13,2c-1.84,0-3.84-1.37-4.55-3.12c-0.1-0.24-0.311-0.42-0.57-0.48
	c-1.49-0.34-3.04-0.939-4.68-1.58c-2.91-1.139-5.94-2.319-8.91-2.049c-1.02-0.17-1.91-0.561-2.77-0.94
	c-1.07-0.479-2.181-0.97-3.471-0.97c-1.33,0-2.63,0.51-4.109,1.609c-0.551,0.43-1.011,0.86-1.41,1.25c-1.3,1.25-2.15,2.01-4.98,1.7
	c-0.319-0.03-0.64,0.14-0.79,0.44c-0.159,0.3-0.689,0.49-1.42,0.49c-1.67,0-3.779-0.931-4.26-1.871c-0.12-0.239-0.1-0.43,0.07-0.67
	c0.16-0.22,0.2-0.5,0.109-0.76c-0.76-1.97-2.92-2.92-4.83-3.75c-1.46-0.64-2.829-1.24-3.399-2.15c-0.12-0.18-0.3-0.31-0.51-0.35
	c-0.21-0.05-0.42-0.01-0.601,0.1c-1.14,0.74-2.77,0.891-4.35,1.041c-1.67,0.149-3.38,0.31-4.7,1.149c-1.67-0.54-3.38-0.62-5.03-0.7
	c-2.72-0.129-5.279-0.25-7.5-2.35c-0.29-0.279-0.739-0.3-1.05-0.05c-3.96,3.149-1.68,9.569,1.76,14.53
	c0.061,0.08,0.13,0.149,0.21,0.199c3.67,2.521,6.54,6.35,9.04,12.061c0.91,4.539,3.811,7.369,6.62,10.1
	c1.91,1.86,3.72,3.62,4.97,5.891c0.131,0.24,0.37,0.399,0.641,0.42c3.16,0.22,3.399,2.24,3.57,5.779
	c0.119,2.771,0.27,5.92,3.039,7.551c0.051,0.029,0.091,0.049,0.141,0.069c2.79,0.99,6.03,3.591,6.82,6.62
	c0.43,1.66,0.039,3.21-1.15,4.58c-0.25,0.279-0.271,0.689-0.05,0.99c3.46,4.91,5.33,8.91,7.58,13.98
	c0.33,0.879,0.62,1.92,0.909,3.01c1.15,4.18,2.561,9.399,8.29,9.17c2.5,0.609,3.04,1.619,3.841,3.14
	c0.63,1.19,1.409,2.67,3.279,4.22c0.021,0.02,0.051,0.04,0.08,0.061c1.23,0.77,2.58,1.31,3.891,1.84c3.069,1.23,5.72,2.3,6.56,5.83
	c0.07,0.279,0.28,0.51,0.56,0.59c0.78,0.22,1.58,0.33,2.4,0.33c0.6,0,1.18-0.061,1.76-0.17c-0.08,0.33-0.109,0.67-0.05,0.99
	c0.13,0.81,0.851,2.189,4.16,2.02c1.79,1.95,4.72,2.49,7.56,3.01c1.46,0.27,2.96,0.551,4.28,1.01c0.17,0.051,0.351,0.051,0.51,0
	c0.36-0.119,0.69-0.17,1.011-0.17c1.189,0,2.069,0.851,3,1.76c1,0.971,2.13,2.08,3.779,2.08c0.521,0,1.051-0.109,1.61-0.34
	c3.09,3.551,4.92,8.16,4.92,12.42c-0.05,0.711-0.11,1.371-0.17,2c-0.25,2.851-0.43,4.91,0.66,6.09c0.96,1.051,2.56,1.19,5.55,0.44
	c1.82-0.149,3.45-0.229,4.97-0.229c3.4,0,6.25,0.39,8.49,1.15c0.16,0.059,0.33,0.059,0.49,0.01c0.53-0.16,0.97-0.24,1.34-0.24
	c0.52,0,0.7,0.16,0.8,0.289c0.62,0.801,0,3.271-0.37,4.75c-0.18,0.691-0.319,1.281-0.399,1.761c-0.021,0.19,0.02,0.38,0.12,0.55
	c2.14,3.37,1.1,7.08,0.1,10.66c-0.35,1.29-0.73,2.63-0.93,3.9c-0.04,0.229,0.02,0.449,0.159,0.629
	c0.931,1.171,0.65,2.461,0.33,3.961c-0.43,1.99-0.96,4.47,2.03,6.55c4.53,2.81,8.3,7.47,10.351,12.79
	c0.029,0.07,0.06,0.141,0.109,0.199c1.5,1.951,1.62,3.23,1.74,4.711c0.07,0.779,0.14,1.58,0.42,2.49
	c0.02,0.069,0.04,0.119,0.08,0.18c1.18,1.99,5.4,4.22,9.53,4.23c0.93,0.039,1.85,0.06,2.77,0.08
	c5.28,0.119,10.271,0.229,14.811,3.379c0.279,0.2,0.659,0.19,0.93-0.02c1.17-0.859,2.34-1.28,3.58-1.28c1.84,0,3.72,0.921,5.7,1.89
	c0.989,0.48,2,0.971,3.06,1.381c2.75,1.959,5.95,2.56,9.05,3.13c2.67,0.5,5.221,0.97,7.48,2.25c-2.101,1.989-2.84,5.079-1.891,8.19
	c1.19,3.84,4.381,6.25,8.12,5.969c0.101-0.01,0.181-0.029,0.271-0.069c0.7-0.31,1.319-0.46,1.899-0.46c1.74,0,2.92,1.5,4.29,3.23
	c1.04,1.33,2.11,2.699,3.61,3.66c0.28,0.17,0.63,0.159,0.9-0.031c1.659-1.189,3.42-1.299,5.29-1.41
	c1.789-0.109,3.64-0.219,5.35-1.359c2.53-0.439,5.21-0.439,9.25-0.21c1.939,1.351,4.189,1.899,6.37,2.431
	c2.66,0.649,5.17,1.27,6.72,3.27c0.11,0.15,0.271,0.25,0.45,0.29c1.229,0.29,2.3,0.8,3.32,1.28c1.46,0.699,2.96,1.41,4.79,1.41
	c0.77,0,1.539-0.121,2.34-0.371c1.449,1.75,3.62,2.66,6.319,2.66c1.641,0.001,3.482-0.348,5.32-0.99V-492.794z"/>
<path fill="none" stroke="#000000" stroke-width="3" stroke-miterlimit="10" d="M1254.168-158.585
	c1.641,0.001,3.482-0.348,5.32-0.99c0.516-0.181,1.03-0.384,1.54-0.609c1.21,0.01,2.37,0.061,3.49,0.109
	c1.149,0.051,2.24,0.101,3.319,0.101c1.851,0,3.351-0.149,4.74-0.47c2.37-0.631,4.69-0.93,7.09-0.93c3.74,0,7.561,0.719,12.37,2.35
	c0.07,0.02,0.15,0.039,0.221,0.039c0.189,0.011,0.369,0.021,0.529,0.021c0.45,0,1.48,0,2.04-0.569
	c0.15,0.029,0.311,0.049,0.48,0.049c0.31,0,0.63-0.069,0.96-0.199c1.54,0.18,3.04,1.05,4.479,1.9c1.63,0.959,3.16,1.859,4.811,1.859
	c0.7,0,1.37-0.17,2-0.51c0.06-0.03,0.109-0.07,0.16-0.12c10.88-10.03,21.3-20.88,31.38-31.38c5.569-5.801,11.33-11.801,17.12-17.62
	c0.069-0.06,0.13-0.14,0.17-0.229c0.46-1.041,1.93-2.201,3.359-3.33c1.641-1.311,3.23-2.561,3.71-3.91
	c0.62,0.3,1.24,0.47,1.801,0.47c0.77,0,1.359-0.36,1.579-0.95c0.351-1.01-0.409-2.279-2.35-3.89c-0.36-0.97-0.85-1.82-1.33-2.649
	c-1.37-2.4-2.2-3.851,0.73-6.011c6.449-4.931,5.02-12.88,4.069-18.13c-0.01-0.061-0.02-0.12-0.05-0.18
	c-0.83-1.95-0.7-3.91,0.36-5.521c1.39-2.11,4.149-3.13,6.89-2.5c0.23,0.05,0.48,0,0.67-0.149c2.4-1.851,4.46-5.201,6.28-8.15
	c0.61-0.99,1.18-1.92,1.7-2.68c3.279-1.871,3.069-4.34,2.92-6.141c-0.13-1.43-0.16-2.27,0.66-2.99c0.25-0.22,0.34-0.58,0.21-0.899
	c-0.63-1.58-0.49-2.06-0.431-2.17c0.091-0.16,0.511-0.25,0.91-0.33c0.681-0.14,1.61-0.33,2.12-1.17c0.34-0.54,0.43-1.24,0.3-2.16
	c4.94-0.16,5.5-5.2,5.95-9.261c0.19-1.68,0.36-3.26,0.771-4.529c0.13-0.42-0.091-0.859-0.511-1c-2.55-0.859-3.3-2.88-3.899-4.5
	c-0.41-1.12-0.771-2.09-1.74-2.26c-0.18-0.02-0.36,0.01-0.521,0.09c-1.25,0.689-2.26,1.029-3.01,1.029
	c-0.609,0-0.87-0.239-1.01-0.42c-0.68-0.879-0.63-3.129,0.14-6.189c0.011-0.04,0.021-0.09,0.021-0.13
	c0.24-2.72-1.32-3.71-2.57-4.511c-1.33-0.85-2.22-1.409-1.38-3.959c3.36-2.801,4.13-7.631,4.87-12.301
	c0.09-0.58,0.18-1.16,0.28-1.729c0.01-0.08,0.01-0.149,0-0.229c-0.591-4.971-3.591-5.641-6.46-5.641c-0.7,0-1.44,0.04-2.16,0.09
	c-0.431-1.561-0.141-2.67,0.17-3.84c0.359-1.34,0.75-2.84,0.02-4.9c2.11-1.49,4.301-1.67,6.61-1.859c1.19-0.1,2.42-0.211,3.62-0.5
	c0.14-0.04,0.27-0.11,0.37-0.211c3.05-3.01,1.3-6.139,0.02-8.42c-0.66-1.17-1.28-2.279-1.22-3.139c0-0.131-0.021-0.25-0.07-0.371
	c-0.26-0.6-0.52-1.41-0.27-1.869c0.319-0.58,1.54-0.791,2.72-0.99c1.6-0.27,3.25-0.551,4.01-1.85c0.41-0.69,0.48-1.551,0.21-2.601
	c0.86-0.729,1.34-1.46,1.45-2.229c0.18-1.211-0.55-2.181-1.26-3.121c-0.95-1.26-1.5-2.109-1.08-3.319
	c0.03-0.091,0.05-0.19,0.05-0.28c-0.04-2.66-0.77-4.74-1.55-6.949c-0.63-1.781-1.271-3.631-1.55-5.861
	c1.26-2.659,1.1-4.35,0.89-6.479c-0.08-0.81-0.16-1.7-0.189-2.78c1.01-0.16,1.779-0.58,2.319-1.25c1.101-1.41,0.74-3.43,0.561-4.319
	c0.06-0.57,0.25-1.271,0.449-2.011c0.521-1.93,1.11-4.1,0.091-5.819c-0.53-0.899-1.45-1.55-2.73-1.931
	c-0.979-1.949,0.44-4.09,1.93-6.359c0.69-1.051,1.4-2.13,1.87-3.2c0.141-0.33,0.051-0.71-0.229-0.94
	c-1.15-0.939-1.75-1.949-2.29-2.83c-0.351-0.59-0.7-1.17-1.16-1.609c0.38-0.42,0.64-0.92,0.78-1.48
	c0.75-2.93-1.87-6.869-3.971-10.039c-0.52-0.78-1.01-1.51-1.35-2.101c-0.05-0.08-0.11-0.149-0.18-0.21
	c-1.9-1.561-2.07-2.18-2.061-2.38c0.011-0.28,0.681-0.71,1.261-1.09c1-0.65,2.229-1.45,3.02-2.88c2.15-2.98,2.85-5.75,1.91-7.6
	c-0.84-1.65-2.87-2.25-5.54-1.601c-0.83-0.271-1.9-0.149-2.88,0.01c-0.53,0.08-1.03,0.17-1.51,0.17h-0.011
	c-0.5,0-0.899-0.09-1.26-0.29c-0.19-0.1-0.39-0.119-0.59-0.06h-0.01c-0.38-0.38-0.971-0.681-1.591-0.921
	c0.391-1.1,0.41-2.109,0.051-3.01c-0.86-2.189-3.62-3.209-6.28-4.199c-1.21-0.44-2.34-0.86-3.17-1.34
	c-6.771-4.181-14.37-4.34-21.73-4.49c-2.18-0.04-4.43-0.09-6.6-0.24c-0.07-0.01-0.13,0-0.19,0.01
	c-0.359,0.061-0.689,0.09-0.989,0.09c-1.801,0-2.36-1-3.181-2.75c-0.67-1.42-1.5-3.18-3.63-3.75c-2.069-2.709-7.64-6.529-13.6-6.33
	c-0.75-0.17-1.48-0.319-2.17-0.47c-3.82-0.79-6.351-1.319-8.511-3.739c-2.01-4.101-5.539-4.851-8.949-5.58
	c-1.221-0.26-2.49-0.541-3.69-0.961c-0.06-0.02-0.12-0.039-0.18-0.039c-1.851-0.201-3.53,0.979-4.99,2.01
	c-1,0.699-2.02,1.43-2.76,1.43c-0.22,0-0.78,0-1.47-1.34c-0.11-0.21-0.311-0.37-0.551-0.41c-3-0.6-6.38-0.88-10.62-0.88
	c-2.13,0-4.29,0.069-6.39,0.13c-3.39,0.1-12.38,0.189-15.28,0.051V-158.585z"/>
<path fill="none" stroke="#000000" stroke-width="3" stroke-miterlimit="10" d="M-327.794-188.59c-0.04-3.155-0.02-6.357,0-9.45
	c0.021-2.742,0.03-5.5,0.01-8.267v-0.96c0-0.13-0.029-0.261-0.08-0.389l-0.239-0.567c-0.131-0.308-0.391-0.572-0.67-0.685
	c-0.301-0.129-0.561-0.084-0.721,0.088c-0.43,0.504-1.399,0.281-2.74-0.207l-0.689-0.251c-0.24-0.098-0.47-0.181-0.7-0.265
	c-0.76-0.276-1.58-0.545-2.25-0.489c-0.31-0.692-0.77-1.25-1.46-1.501c-0.65-0.237-1.31-0.087-2.08,0.492
	c-1.229-1.617-2.82-2.736-4.91-3.496c-1.31-0.478-2.689-0.77-4.029-1.057c-1.311-0.277-2.66-0.559-3.9-1.01
	c-1.35-0.492-2.4-1.114-3.29-1.948c-0.05-0.048-0.11-0.09-0.16-0.128c-1.439-0.964-3.01-1.936-4.6-2.424
	c-0.141-0.052-0.28-0.053-0.4-0.016c-2.49,0.723-5.37-0.225-8.16-1.15c-2.899-0.955-5.64-1.853-7.819-0.916
	c-7.67-1.542-13.23-1.456-18.54,0.282c-1.88,0.256-3.311,1.155-4.57,1.946c-1.75,1.093-3.27,2.04-5.52,1.221
	c-0.48-0.175-1.011-0.438-1.551-0.774c-0.29-0.176-0.6-0.188-0.8-0.041c-2.27,1.755-5.66,4.36-3.66,8.827
	c-1.229,2.163-1.08,4.588-0.939,6.738c0.09,1.363,0.17,2.542-0.12,3.427c-0.03,0.089-0.04,0.195-0.03,0.3
	c0.18,1.744,0.47,7.48-3.649,8.431c-2.9,0.165-6.021,0.069-9.32-0.022c-7.17-0.209-14.59-0.43-20.561,1.957
	c-0.069,0.025-0.14,0.069-0.189,0.131c-0.9,1.082-2.7,1.178-4.45,1.271c-1.56,0.083-3.34,0.185-4.16,1.256
	c-0.24-0.147-0.5-0.272-0.79-0.378c-0.13-0.047-0.27-0.098-0.5-0.151c-7.6-1.296-11.529,3.063-15.319,7.273
	c-1.2,1.333-2.44,2.702-3.771,3.878c-0.1,0.094-0.17,0.229-0.17,0.398c-0.32,6.833-6.04,8.752-11.56,10.623
	c-1.95,0.65-3.971,1.334-5.761,2.263c-2.729,2.077-4.52,4.685-6.25,7.216c-1.069,1.57-2.09,3.059-3.27,4.32
	c-2.97,2.139-4.9,2.295-9.34,0.779c-2.45-0.831-4-0.705-5.49-0.578c-1.31,0.113-2.54,0.216-4.37-0.37
	c-0.28-0.093-0.53-0.023-0.66,0.18c-0.729,1.044-1.81,1.341-3.13,0.86c-1.84-0.67-3.84-2.768-4.55-4.775
	c-0.1-0.276-0.311-0.533-0.57-0.688c-1.49-0.883-3.04-2.047-4.68-3.284c-2.91-2.198-5.94-4.481-8.91-5.292
	c-1.02-0.541-1.91-1.256-2.77-1.948c-1.07-0.87-2.181-1.765-3.471-2.233c-1.33-0.484-2.63-0.447-4.109,0.114
	c-0.551,0.229-1.011,0.492-1.41,0.737c-1.3,0.776-2.15,1.227-4.98-0.113c-0.319-0.146-0.64-0.093-0.79,0.152
	c-0.159,0.242-0.689,0.239-1.42-0.026c-1.67-0.608-3.779-2.306-4.26-3.421c-0.12-0.283-0.1-0.467,0.07-0.645
	c0.16-0.162,0.2-0.427,0.109-0.721c-0.76-2.246-2.92-3.982-4.83-5.508c-1.46-1.171-2.829-2.27-3.399-3.387
	c-0.12-0.224-0.3-0.42-0.51-0.536c-0.21-0.126-0.42-0.162-0.601-0.118c-1.14,0.325-2.77-0.118-4.35-0.543
	c-1.67-0.458-3.38-0.92-4.7-0.561c-1.67-1.148-3.38-1.851-5.03-2.531c-2.72-1.119-5.279-2.172-7.5-5.08
	c-0.29-0.385-0.739-0.568-1.05-0.432c-3.96,1.709-1.68,8.959,1.76,15.17c0.061,0.103,0.13,0.197,0.21,0.277
	c3.67,3.855,6.54,8.729,9.04,15.35c0.91,4.871,3.811,8.757,6.62,12.51c1.91,2.556,3.72,4.974,4.97,7.699
	c0.131,0.287,0.37,0.534,0.641,0.652c3.16,1.371,3.399,3.479,3.57,7.08c0.119,2.813,0.27,6.018,3.039,8.656
	c0.051,0.048,0.091,0.083,0.141,0.121c2.79,2.006,6.03,5.785,6.82,9.103c0.43,1.816,0.039,3.224-1.15,4.161
	c-0.25,0.188-0.271,0.592-0.05,0.972c3.46,6.169,5.33,10.851,7.58,16.739c0.33,1,0.62,2.146,0.909,3.341
	c1.15,4.599,2.561,10.332,8.29,12.187c2.5,1.521,3.04,2.728,3.841,4.539c0.63,1.419,1.409,3.183,3.279,5.413
	c0.021,0.027,0.051,0.059,0.08,0.089c1.23,1.218,2.58,2.249,3.891,3.257c3.069,2.347,5.72,4.382,6.56,8.217
	c0.07,0.306,0.28,0.612,0.56,0.794c0.78,0.504,1.58,0.905,2.4,1.204c0.6,0.218,1.18,0.369,1.76,0.47
	c-0.08,0.301-0.109,0.631-0.05,0.973c0.13,0.857,0.851,2.499,4.16,3.533c1.79,2.603,4.72,4.208,7.56,5.762
	c1.46,0.802,2.96,1.628,4.28,2.568c0.17,0.111,0.351,0.178,0.51,0.186c0.36,0.011,0.69,0.081,1.011,0.197
	c1.189,0.434,2.069,1.604,3,2.852c1,1.335,2.13,2.855,3.779,3.456c0.521,0.189,1.051,0.272,1.61,0.246
	c3.09,4.675,4.92,9.95,4.92,14.211c-0.05,0.692-0.11,1.33-0.17,1.938c-0.25,2.759-0.43,4.754,0.66,6.33
	c0.96,1.399,2.56,2.121,5.55,2.46c1.82,0.513,3.45,1.025,4.97,1.579c3.4,1.237,6.25,2.664,8.49,4.24
	c0.16,0.117,0.33,0.18,0.49,0.188c0.53,0.033,0.97,0.113,1.34,0.248c0.52,0.189,0.7,0.415,0.8,0.581c0.62,1.026,0,3.271-0.37,4.615
	c-0.18,0.625-0.319,1.164-0.399,1.615c-0.021,0.183,0.02,0.387,0.12,0.593c2.14,4.149,1.1,7.48,0.1,10.697
	c-0.35,1.162-0.73,2.363-0.93,3.561c-0.04,0.216,0.02,0.458,0.159,0.688c0.931,1.509,0.65,2.696,0.33,4.08
	c-0.43,1.834-0.96,4.12,2.03,7.289c4.53,4.459,8.3,10.491,10.351,16.558c0.029,0.08,0.06,0.162,0.109,0.239
	c1.5,2.496,1.62,3.819,1.74,5.344c0.07,0.806,0.14,1.631,0.42,2.643c0.02,0.077,0.04,0.135,0.08,0.21
	c1.18,2.419,5.4,6.185,9.53,7.698c0.93,0.378,1.85,0.733,2.77,1.088c5.28,2.042,10.271,3.968,14.811,8.771
	c0.279,0.302,0.659,0.43,0.93,0.318c1.17-0.434,2.34-0.429,3.58,0.023c1.84,0.669,3.72,2.273,5.7,3.965
	c0.989,0.84,2,1.697,3.06,2.493c2.75,2.961,5.95,4.726,9.05,6.424c2.67,1.472,5.221,2.87,7.48,4.973
	c-2.101,1.226-2.84,4.046-1.891,7.502c1.19,4.273,4.381,7.845,8.12,8.925c0.101,0.027,0.181,0.036,0.271,0.029
	c0.7-0.056,1.319,0.02,1.899,0.231c1.74,0.633,2.92,2.562,4.29,4.791c1.04,1.709,2.11,3.468,3.61,4.975
	c0.28,0.271,0.63,0.389,0.9,0.297c1.659-0.586,3.42-0.055,5.29,0.516c1.789,0.541,3.64,1.104,5.35,0.587
	c2.53,0.481,5.21,1.457,9.25,3.157c1.939,2.056,4.189,3.425,6.37,4.749c2.66,1.617,5.17,3.151,6.72,5.715
	c0.11,0.19,0.271,0.349,0.45,0.454c1.229,0.737,2.3,1.638,3.32,2.488c1.46,1.231,2.96,2.487,4.79,3.153
	c0.77,0.281,1.539,0.44,2.34,0.482c1.449,2.277,3.62,3.978,6.319,4.96c1.641,0.598,3.482,0.919,5.32,0.945V-188.59z"/>
<path fill="none" stroke="#000000" stroke-width="3" stroke-miterlimit="10" d="M-327.773,144.628
	c1.641-0.596,3.482-1.615,5.32-2.927c0.516-0.368,1.03-0.759,1.54-1.17c1.21-0.431,2.37-0.803,3.49-1.16
	c1.149-0.369,2.24-0.716,3.319-1.108c1.851-0.674,3.351-1.369,4.74-2.195c2.37-1.493,4.69-2.637,7.09-3.51
	c3.74-1.361,7.561-2.032,12.37-2.153c0.07-0.006,0.15-0.015,0.221-0.04c0.189-0.059,0.369-0.114,0.529-0.173
	c0.45-0.164,1.48-0.539,2.04-1.312c0.15-0.025,0.311-0.063,0.48-0.125c0.31-0.112,0.63-0.299,0.96-0.549
	c1.54-0.381,3.04-0.057,4.479,0.27c1.63,0.366,3.16,0.709,4.811,0.108c0.7-0.255,1.37-0.668,2-1.237
	c0.06-0.052,0.109-0.11,0.16-0.179c10.88-13.989,21.3-28.632,31.38-42.801c5.569-7.828,11.33-15.924,17.12-23.852
	c0.069-0.085,0.13-0.188,0.17-0.292c0.46-1.207,1.93-2.902,3.359-4.553c1.641-1.907,3.23-3.736,3.71-5.261
	c0.62,0.075,1.24,0.02,1.801-0.185c0.77-0.28,1.359-0.855,1.579-1.525c0.351-1.137-0.409-2.131-2.35-3.034
	c-0.36-0.839-0.85-1.511-1.33-2.166c-1.37-1.901-2.2-3.049,0.73-6.276c6.449-7.277,5.02-14.707,4.069-19.61
	c-0.01-0.057-0.02-0.113-0.05-0.162c-0.83-1.647-0.7-3.655,0.36-5.651c1.39-2.616,4.149-4.64,6.89-5.008
	c0.23-0.033,0.48-0.175,0.67-0.394c2.4-2.724,4.46-6.823,6.28-10.436c0.61-1.213,1.18-2.35,1.7-3.299
	c3.279-3.063,3.069-5.457,2.92-7.203c-0.13-1.383-0.16-2.212,0.66-3.23c0.25-0.311,0.34-0.704,0.21-0.976
	c-0.63-1.351-0.49-1.881-0.431-2.013c0.091-0.193,0.511-0.436,0.91-0.661c0.681-0.388,1.61-0.916,2.12-1.941
	c0.34-0.664,0.43-1.397,0.3-2.27c4.94-1.958,5.5-7.202,5.95-11.426c0.19-1.749,0.36-3.391,0.771-4.811
	c0.13-0.467-0.091-0.827-0.511-0.814c-2.55,0.068-3.3-1.679-3.899-3.081c-0.41-0.971-0.771-1.81-1.74-1.627
	c-0.18,0.046-0.36,0.142-0.521,0.279c-1.25,1.146-2.26,1.853-3.01,2.125c-0.609,0.222-0.87,0.077-1.01-0.052
	c-0.68-0.633-0.63-2.9,0.14-6.241c0.011-0.044,0.021-0.097,0.021-0.137c0.24-2.808-1.32-3.229-2.57-3.575
	c-1.33-0.366-2.22-0.602-1.38-3.458c3.36-4.023,4.13-9.133,4.87-14.072c0.09-0.613,0.18-1.226,0.28-1.832
	c0.01-0.083,0.01-0.154,0-0.23c-0.591-4.755-3.591-4.333-6.46-3.289c-0.7,0.255-1.44,0.564-2.16,0.876
	c-0.431-1.403-0.141-2.619,0.17-3.901c0.359-1.471,0.75-3.113,0.02-4.907c2.11-2.258,4.301-3.235,6.61-4.267
	c1.19-0.532,2.42-1.09,3.62-1.817c0.14-0.09,0.27-0.208,0.37-0.345c3.05-4.12,1.3-6.612,0.02-8.427
	c-0.66-0.93-1.28-1.814-1.22-2.696c0-0.13-0.021-0.243-0.07-0.344c-0.26-0.506-0.52-1.222-0.27-1.772
	c0.319-0.696,1.54-1.351,2.72-1.98c1.6-0.852,3.25-1.733,4.01-3.309c0.41-0.839,0.48-1.725,0.21-2.677
	c0.86-1.043,1.34-1.947,1.45-2.758c0.18-1.275-0.55-1.979-1.26-2.661c-0.95-0.914-1.5-1.564-1.08-2.927
	c0.03-0.102,0.05-0.208,0.05-0.299c-0.04-2.645-0.77-4.459-1.55-6.385c-0.63-1.551-1.271-3.168-1.55-5.296
	c1.26-3.118,1.1-4.75,0.89-6.804c-0.08-0.781-0.16-1.642-0.189-2.711c1.01-0.527,1.779-1.228,2.319-2.094
	c1.101-1.811,0.74-3.7,0.561-4.524c0.06-0.592,0.25-1.361,0.449-2.174c0.521-2.119,1.11-4.504,0.091-5.853
	c-0.53-0.707-1.45-1.022-2.73-0.937c-0.979-1.594,0.44-4.25,1.93-7.062c0.69-1.302,1.4-2.64,1.87-3.881
	c0.141-0.381,0.051-0.729-0.229-0.856c-1.15-0.521-1.75-1.313-2.29-1.997c-0.351-0.462-0.7-0.915-1.16-1.188
	c0.38-0.559,0.64-1.153,0.78-1.764c0.75-3.203-1.87-6.189-3.971-8.595c-0.52-0.591-1.01-1.142-1.35-1.609
	c-0.05-0.062-0.11-0.11-0.18-0.145c-1.9-0.868-2.07-1.427-2.061-1.63c0.011-0.284,0.681-0.958,1.261-1.549
	c1-1.015,2.229-2.262,3.02-3.979c2.15-3.763,2.85-6.787,1.91-8.295c-0.84-1.345-2.87-1.205-5.54,0.417
	c-0.83,0.032-1.9,0.542-2.88,1.058c-0.53,0.273-1.03,0.545-1.51,0.719l-0.011,0.004c-0.5,0.182-0.899,0.238-1.26,0.168
	c-0.19-0.03-0.39,0.022-0.59,0.155l-0.01,0.003c-0.38-0.242-0.971-0.327-1.591-0.341c0.391-1.242,0.41-2.259,0.051-3.028
	c-0.86-1.877-3.62-1.893-6.28-1.914c-1.21,0-2.34-0.009-3.17-0.187c-6.771-1.716-14.37,0.891-21.73,3.419
	c-2.18,0.754-4.43,1.522-6.6,2.163c-0.07,0.015-0.13,0.047-0.19,0.079c-0.359,0.191-0.689,0.341-0.989,0.45
	c-1.801,0.656-2.36-0.141-3.181-1.592c-0.67-1.176-1.5-2.634-3.63-2.429c-2.069-1.957-7.64-3.75-13.6-1.38
	c-0.75,0.103-1.48,0.219-2.17,0.32c-3.82,0.601-6.351,0.991-8.511-0.643c-2.01-3.368-5.539-2.834-8.949-2.322
	c-1.221,0.185-2.49,0.366-3.69,0.383c-0.06,0.002-0.12,0.004-0.18,0.025c-1.851,0.474-3.53,2.265-4.99,3.826
	c-1,1.064-2.02,2.165-2.76,2.435c-0.22,0.08-0.78,0.284-1.47-0.805c-0.11-0.17-0.311-0.257-0.551-0.21
	c-3,0.492-6.38,1.442-10.62,2.985c-2.13,0.775-4.29,1.632-6.39,2.456c-3.39,1.334-12.38,4.696-15.28,5.611V144.628z"/>
<path fill="none" stroke="#000000" stroke-width="3" stroke-miterlimit="10" d="M1267.93-929.709c-0.04-3.14-0.02-6.35,0-9.45
	c0.021-2.75,0.03-5.51,0.01-8.27v-0.96c0-0.13-0.029-0.25-0.08-0.36l-0.239-0.48c-0.131-0.26-0.391-0.43-0.67-0.44
	c-0.301-0.02-0.561,0.12-0.721,0.35c-0.43,0.66-1.399,0.79-2.74,0.79h-0.689c-0.24-0.01-0.47-0.01-0.7-0.01
	c-0.76,0-1.58,0.03-2.25,0.33c-0.31-0.58-0.77-0.97-1.46-0.97c-0.65,0-1.31,0.39-2.08,1.25c-1.229-1.17-2.82-1.71-4.91-1.71
	c-1.31,0-2.689,0.21-4.029,0.41c-1.311,0.2-2.66,0.41-3.9,0.41c-1.35,0-2.4-0.24-3.29-0.75c-0.05-0.03-0.11-0.05-0.16-0.07
	c-1.439-0.44-3.01-0.84-4.6-0.75c-0.141,0-0.28,0.05-0.4,0.13c-2.49,1.63-5.37,1.73-8.16,1.82c-2.899,0.1-5.64,0.2-7.819,1.93
	c-7.67,1.25-13.23,3.36-18.54,7.03c-1.88,0.94-3.311,2.36-4.57,3.61c-1.75,1.73-3.27,3.23-5.52,3.23c-0.48,0-1.011-0.07-1.551-0.21
	c-0.29-0.07-0.6,0.03-0.8,0.25c-2.27,2.58-5.66,6.42-3.66,10.16c-1.229,2.61-1.08,4.98-0.939,7.08c0.09,1.33,0.17,2.48-0.12,3.47
	c-0.03,0.1-0.04,0.21-0.03,0.31c0.18,1.68,0.47,7.31-3.649,9.76c-2.9,1.22-6.021,2.26-9.32,3.37c-7.17,2.4-14.59,4.88-20.561,9.44
	c-0.069,0.05-0.14,0.12-0.189,0.2c-0.9,1.41-2.7,2.16-4.45,2.89c-1.56,0.65-3.34,1.4-4.16,2.77c-0.24-0.06-0.5-0.09-0.79-0.09
	c-0.13,0-0.27,0-0.5,0.03c-7.6,1.47-11.529,7.26-15.319,12.85c-1.2,1.77-2.44,3.59-3.771,5.25c-0.1,0.13-0.17,0.29-0.17,0.46
	c-0.32,6.95-6.04,10.95-11.56,14.83c-1.95,1.36-3.971,2.78-5.761,4.36c-2.729,3.07-4.52,6.33-6.25,9.49
	c-1.069,1.96-2.09,3.82-3.27,5.51c-2.97,3.221-4.9,4.08-9.34,4.18c-2.45,0.061-4,0.75-5.49,1.42c-1.31,0.591-2.54,1.141-4.37,1.221
	c-0.28,0.01-0.53,0.17-0.66,0.42c-0.729,1.311-1.81,2-3.13,2c-1.84,0-3.84-1.37-4.55-3.12c-0.1-0.239-0.311-0.42-0.57-0.479
	c-1.49-0.34-3.04-0.94-4.68-1.58c-2.91-1.141-5.94-2.32-8.91-2.051c-1.02-0.17-1.91-0.56-2.77-0.939
	c-1.07-0.48-2.181-0.971-3.471-0.971c-1.33,0-2.63,0.511-4.109,1.611c-0.551,0.43-1.011,0.859-1.41,1.25
	c-1.3,1.25-2.15,2.01-4.98,1.699c-0.319-0.029-0.64,0.141-0.79,0.439c-0.159,0.301-0.689,0.49-1.42,0.49
	c-1.67,0-3.779-0.93-4.26-1.869c-0.12-0.24-0.1-0.431,0.07-0.67c0.16-0.221,0.2-0.5,0.109-0.761c-0.76-1.97-2.92-2.92-4.83-3.75
	c-1.46-0.64-2.829-1.239-3.399-2.149c-0.12-0.18-0.3-0.311-0.51-0.351c-0.21-0.05-0.42-0.01-0.601,0.101
	c-1.14,0.74-2.77,0.89-4.35,1.039c-1.67,0.15-3.38,0.311-4.7,1.15c-1.67-0.54-3.38-0.619-5.03-0.699
	c-2.72-0.131-5.279-0.25-7.5-2.351c-0.29-0.28-0.739-0.3-1.05-0.05c-3.96,3.15-1.68,9.57,1.76,14.529
	c0.061,0.08,0.13,0.15,0.21,0.201c3.67,2.52,6.54,6.35,9.04,12.059c0.91,4.541,3.811,7.371,6.62,10.101
	c1.91,1.86,3.72,3.62,4.97,5.89c0.131,0.24,0.37,0.4,0.641,0.42c3.16,0.221,3.399,2.24,3.57,5.781c0.119,2.77,0.27,5.92,3.039,7.549
	c0.051,0.03,0.091,0.051,0.141,0.07c2.79,0.99,6.03,3.59,6.82,6.62c0.43,1.66,0.039,3.21-1.15,4.58
	c-0.25,0.28-0.271,0.69-0.05,0.989c3.46,4.91,5.33,8.91,7.58,13.98c0.33,0.881,0.62,1.92,0.909,3.01c1.15,4.181,2.561,9.4,8.29,9.17
	c2.5,0.61,3.04,1.621,3.841,3.141c0.63,1.189,1.409,2.67,3.279,4.22c0.021,0.021,0.051,0.04,0.08,0.06
	c1.23,0.771,2.58,1.311,3.891,1.841c3.069,1.229,5.72,2.3,6.56,5.829c0.07,0.281,0.28,0.511,0.56,0.591
	c0.78,0.22,1.58,0.33,2.4,0.33c0.6,0,1.18-0.06,1.76-0.171c-0.08,0.33-0.109,0.671-0.05,0.99c0.13,0.811,0.851,2.19,4.16,2.021
	c1.79,1.95,4.72,2.489,7.56,3.01c1.46,0.271,2.96,0.55,4.28,1.011c0.17,0.049,0.351,0.049,0.51,0c0.36-0.121,0.69-0.17,1.011-0.17
	c1.189,0,2.069,0.85,3,1.76c1,0.97,2.13,2.08,3.779,2.08c0.521,0,1.051-0.11,1.61-0.34c3.09,3.549,4.92,8.159,4.92,12.42
	c-0.05,0.709-0.11,1.369-0.17,2c-0.25,2.85-0.43,4.91,0.66,6.09c0.96,1.05,2.56,1.189,5.55,0.439c1.82-0.15,3.45-0.23,4.97-0.23
	c3.4,0,6.25,0.391,8.49,1.15c0.16,0.061,0.33,0.061,0.49,0.01c0.53-0.16,0.97-0.24,1.34-0.24c0.52,0,0.7,0.16,0.8,0.291
	c0.62,0.8,0,3.27-0.37,4.75c-0.18,0.689-0.319,1.279-0.399,1.76c-0.021,0.189,0.02,0.38,0.12,0.55c2.14,3.37,1.1,7.08,0.1,10.66
	c-0.35,1.29-0.73,2.63-0.93,3.899c-0.04,0.23,0.02,0.451,0.159,0.631c0.931,1.17,0.65,2.459,0.33,3.959
	c-0.43,1.99-0.96,4.471,2.03,6.551c4.53,2.811,8.3,7.47,10.351,12.79c0.029,0.069,0.06,0.14,0.109,0.2
	c1.5,1.949,1.62,3.229,1.74,4.709c0.07,0.781,0.14,1.58,0.42,2.49c0.02,0.07,0.04,0.121,0.08,0.181c1.18,1.989,5.4,4.22,9.53,4.229
	c0.93,0.041,1.85,0.061,2.77,0.08c5.28,0.12,10.271,0.23,14.811,3.381c0.279,0.199,0.659,0.189,0.93-0.021
	c1.17-0.86,2.34-1.28,3.58-1.28c1.84,0,3.72,0.92,5.7,1.891c0.989,0.479,2,0.97,3.06,1.379c2.75,1.961,5.95,2.561,9.05,3.131
	c2.67,0.5,5.221,0.97,7.48,2.25c-2.101,1.99-2.84,5.08-1.891,8.189c1.19,3.84,4.381,6.25,8.12,5.971
	c0.101-0.01,0.181-0.03,0.271-0.07c0.7-0.311,1.319-0.46,1.899-0.46c1.74,0,2.92,1.5,4.29,3.229c1.04,1.33,2.11,2.7,3.61,3.66
	c0.28,0.17,0.63,0.16,0.9-0.029c1.659-1.19,3.42-1.301,5.29-1.41c1.789-0.11,3.64-0.221,5.35-1.36c2.53-0.44,5.21-0.44,9.25-0.21
	c1.939,1.35,4.189,1.9,6.37,2.43c2.66,0.65,5.17,1.271,6.72,3.271c0.11,0.149,0.271,0.25,0.45,0.29c1.229,0.289,2.3,0.8,3.32,1.279
	c1.46,0.701,2.96,1.41,4.79,1.41c0.77,0,1.539-0.119,2.34-0.369c1.449,1.75,3.62,2.66,6.319,2.66c1.641,0,3.482-0.349,5.32-0.991"/>
<path fill="none" stroke="#000000" stroke-width="3" stroke-miterlimit="10" d="M1292.609-595.499c1.641,0,3.482-0.349,5.32-0.991
	c0.516-0.181,1.03-0.384,1.54-0.609c1.21,0.01,2.37,0.06,3.49,0.11c1.149,0.049,2.24,0.1,3.319,0.1c1.851,0,3.351-0.15,4.74-0.471
	c2.37-0.629,4.69-0.93,7.09-0.93c3.74,0,7.561,0.721,12.37,2.35c0.07,0.021,0.15,0.041,0.221,0.041
	c0.189,0.01,0.369,0.02,0.529,0.02c0.45,0,1.48,0,2.04-0.57c0.15,0.03,0.311,0.051,0.48,0.051c0.31,0,0.63-0.07,0.96-0.2
	c1.54,0.18,3.04,1.05,4.479,1.899c1.63,0.961,3.16,1.86,4.811,1.86c0.7,0,1.37-0.17,2-0.51c0.06-0.03,0.109-0.07,0.16-0.12
	c10.88-10.029,21.3-20.88,31.38-31.38c5.569-5.8,11.33-11.8,17.12-17.62c0.069-0.061,0.13-0.141,0.17-0.23
	c0.46-1.039,1.93-2.199,3.359-3.33c1.641-1.31,3.23-2.56,3.71-3.91c0.62,0.301,1.24,0.471,1.801,0.471
	c0.77,0,1.359-0.359,1.579-0.95c0.351-1.01-0.409-2.28-2.35-3.89c-0.36-0.971-0.85-1.82-1.33-2.65c-1.37-2.4-2.2-3.85,0.73-6.01
	c6.449-4.93,5.02-12.88,4.069-18.13c-0.01-0.06-0.02-0.12-0.05-0.181c-0.83-1.949-0.7-3.91,0.36-5.52
	c1.39-2.109,4.149-3.13,6.89-2.5c0.23,0.051,0.48,0,0.67-0.15c2.4-1.85,4.46-5.199,6.28-8.149c0.61-0.99,1.18-1.92,1.7-2.681
	c3.279-1.869,3.069-4.34,2.92-6.14c-0.13-1.43-0.16-2.271,0.66-2.989c0.25-0.221,0.34-0.58,0.21-0.9
	c-0.63-1.58-0.49-2.061-0.431-2.17c0.091-0.16,0.511-0.25,0.91-0.33c0.681-0.141,1.61-0.33,2.12-1.17c0.34-0.54,0.43-1.24,0.3-2.16
	c4.94-0.16,5.5-5.2,5.95-9.26c0.19-1.68,0.36-3.26,0.771-4.53c0.13-0.42-0.091-0.86-0.511-1c-2.55-0.86-3.3-2.88-3.899-4.5
	c-0.41-1.12-0.771-2.09-1.74-2.261c-0.18-0.02-0.36,0.011-0.521,0.091c-1.25,0.69-2.26,1.03-3.01,1.03c-0.609,0-0.87-0.24-1.01-0.42
	c-0.68-0.881-0.63-3.131,0.14-6.19c0.011-0.04,0.021-0.09,0.021-0.13c0.24-2.721-1.32-3.71-2.57-4.51
	c-1.33-0.851-2.22-1.41-1.38-3.961c3.36-2.799,4.13-7.629,4.87-12.299c0.09-0.58,0.18-1.16,0.28-1.73c0.01-0.08,0.01-0.15,0-0.23
	c-0.591-4.97-3.591-5.64-6.46-5.64c-0.7,0-1.44,0.04-2.16,0.09c-0.431-1.56-0.141-2.67,0.17-3.84c0.359-1.34,0.75-2.84,0.02-4.899
	c2.11-1.49,4.301-1.67,6.61-1.861c1.19-0.1,2.42-0.209,3.62-0.5c0.14-0.039,0.27-0.109,0.37-0.209c3.05-3.01,1.3-6.141,0.02-8.42
	c-0.66-1.17-1.28-2.28-1.22-3.141c0-0.13-0.021-0.25-0.07-0.369c-0.26-0.601-0.52-1.41-0.27-1.871c0.319-0.58,1.54-0.789,2.72-0.99
	c1.6-0.27,3.25-0.549,4.01-1.85c0.41-0.689,0.48-1.55,0.21-2.6c0.86-0.73,1.34-1.46,1.45-2.23c0.18-1.209-0.55-2.18-1.26-3.119
	c-0.95-1.26-1.5-2.11-1.08-3.32c0.03-0.09,0.05-0.189,0.05-0.28c-0.04-2.659-0.77-4.739-1.55-6.95
	c-0.63-1.779-1.271-3.63-1.55-5.859c1.26-2.66,1.1-4.35,0.89-6.48c-0.08-0.811-0.16-1.699-0.189-2.779
	c1.01-0.16,1.779-0.58,2.319-1.25c1.101-1.41,0.74-3.431,0.561-4.32c0.06-0.57,0.25-1.27,0.449-2.01
	c0.521-1.931,1.11-4.101,0.091-5.82c-0.53-0.9-1.45-1.55-2.73-1.93c-0.979-1.95,0.44-4.09,1.93-6.36c0.69-1.05,1.4-2.13,1.87-3.2
	c0.141-0.33,0.051-0.71-0.229-0.94c-1.15-0.94-1.75-1.95-2.29-2.83c-0.351-0.59-0.7-1.17-1.16-1.61c0.38-0.42,0.64-0.92,0.78-1.48
	c0.75-2.93-1.87-6.87-3.971-10.04c-0.52-0.78-1.01-1.51-1.35-2.1c-0.05-0.08-0.11-0.15-0.18-0.21c-1.9-1.56-2.07-2.18-2.061-2.38
	c0.011-0.28,0.681-0.71,1.261-1.09c1-0.65,2.229-1.45,3.02-2.88c2.15-2.98,2.85-5.75,1.91-7.6c-0.84-1.65-2.87-2.25-5.54-1.6
	c-0.83-0.27-1.9-0.15-2.88,0.01c-0.53,0.08-1.03,0.17-1.51,0.17h-0.011c-0.5,0-0.899-0.09-1.26-0.29c-0.19-0.1-0.39-0.12-0.59-0.06
	h-0.01c-0.38-0.38-0.971-0.68-1.591-0.92c0.391-1.1,0.41-2.11,0.051-3.01c-0.86-2.19-3.62-3.21-6.28-4.2
	c-1.21-0.44-2.34-0.86-3.17-1.34c-6.771-4.18-14.37-4.34-21.73-4.49c-2.18-0.04-4.43-0.09-6.6-0.24c-0.07-0.01-0.13,0-0.19,0.01
	c-0.359,0.06-0.689,0.09-0.989,0.09c-1.801,0-2.36-1-3.181-2.75c-0.67-1.42-1.5-3.18-3.63-3.75c-2.069-2.71-7.64-6.53-13.6-6.33
	c-0.75-0.17-1.48-0.32-2.17-0.47c-3.82-0.79-6.351-1.32-8.511-3.74c-2.01-4.1-5.539-4.85-8.949-5.58
	c-1.221-0.26-2.49-0.54-3.69-0.96c-0.06-0.02-0.12-0.04-0.18-0.04c-1.851-0.2-3.53,0.98-4.99,2.01c-1,0.7-2.02,1.43-2.76,1.43
	c-0.22,0-0.78,0-1.47-1.34c-0.11-0.21-0.311-0.37-0.551-0.41c-3-0.6-6.38-0.88-10.62-0.88c-2.13,0-4.29,0.07-6.39,0.13
	c-3.39,0.1-12.38,0.19-15.28,0.05"/>
<polygon fill="none" stroke="#000000" stroke-width="3" stroke-miterlimit="10" points="-45.479,-353.371 -327.773,-250.624 
	-327.773,213.722 -45.479,110.975 "/>
<polygon fill="none" stroke="#000000" stroke-width="3" stroke-miterlimit="10" points="-610.068,-353.371 -327.773,-250.624 
	-327.773,213.722 -610.068,110.975 "/>
<g>
	<path fill="none" stroke="#070707" stroke-miterlimit="10" d="M1739.962-740.018c-6.793,1.089-12.612,2.905-18.479,6.962
		c-4.867,2.422-6.5,8.173-12.239,6.722c-2.514,2.852-5.432,6.36-3.36,9.603c-2.208,4.226-0.355,7.927-1.2,10.803
		c0.395,3.569-0.316,8.354-4.08,10.563c-9.297,3.903-21.176,6.174-29.759,12.724c-2.135,3.349-8.204,3.264-8.88,6.329
		c-0.283-0.296-0.762-0.447-1.547-0.381c-9.624,1.866-13.079,10.949-18.612,17.818c-0.456,9.894-10.976,13.936-17.52,19.685
		c-4.382,4.914-6.36,10.505-9.493,14.966c-3.188,3.465-5.32,4.372-9.945,4.479c-4.435,0.106-5.745,2.456-9.84,2.641
		c-2.372,4.315-7.73,2.211-9.12-1.201c-4.27-0.958-9.01-4.058-13.439-3.601c-3.738-0.583-5.5-3.698-9.84-0.48
		c-2.248,1.751-2.742,3.574-6.96,3.121c-1.21,2.383-8.874-0.273-6.96-2.881c-1.162-3.053-6.619-3.313-8.159-5.762
		c-2.657,1.714-7.052,0.598-9.36,2.401c-4.364-1.605-9.242,0.389-13.199-3.361c-3.881,3.089-0.689,9.694,1.92,13.443
		c4.22,2.895,7.064,7.212,9.359,12.484c1.413,7.296,8.285,9.957,11.52,15.844c7.371,0.528,1.688,10.335,6.961,13.444
		c5.018,1.792,10.15,7.724,5.999,12.483c3.396,4.81,5.234,8.64,7.68,14.164c1.662,4.387,1.991,12.016,8.528,11.658
		c5.076,1.175,3.395,4.092,7.551,7.547c3.93,2.469,9.479,2.573,10.8,8.162c2.014,0.572,3.911,0.266,5.731-0.386
		c-1.771,1.647-1.638,3.874,2.669,3.507c2.361,2.99,7.673,2.664,11.76,4.081c4.637-1.497,5.256,5.538,9.84,3.121
		c3.279,3.54,5.525,8.455,5.52,13.443c-0.447,6.294-1.55,9.378,5.115,7.683c4.719-0.4,9.829-0.413,13.844,0.96
		c5.604-1.718,2.759,5.003,2.4,7.442c3.139,4.965,0.055,10.357-0.721,15.124c2.621,3.302-2.383,7.172,2.16,10.323
		c4.832,3.002,8.647,7.934,10.67,13.184c2.467,3.197,1.529,4.96,2.29,7.462c1.026,1.733,4.958,3.831,8.88,3.841
		c6.329,0.252,12.458-0.243,17.999,3.601c4.647-3.457,8.548,0.148,13.2,1.921c5.193,3.762,12.219,2.331,17.519,6.002
		c-5.744,3.908-2.202,13.973,4.8,13.443c5.4-2.391,6.535,3.905,10.561,6.482c3.59-2.581,7.572-0.594,10.799-2.881
		c0.501-0.091,0.999-0.16,1.497-0.218v-340.25C1742.993-741.576,1741.318-741.171,1739.962-740.018z"/>
	<path fill="none" stroke="#070707" stroke-miterlimit="10" d="M1919.956-531.161c-6.242,3.409-6.295-1.518-5.04-6.481
		c0.431-4.914-5.978-2.776-3.84-8.882c3.684-2.898,4.166-8.487,5.04-13.685c-0.618-5.223-3.848-5.152-8.4-4.801
		c-1.565-4.291,1.62-5.699-0.209-9.861c3.604-2.894,7.46-1.987,11.009-2.863c4.059-4.012-1.637-7.964-1.439-11.043
		c-2.78-6.402,8.691-1.533,6.479-7.922c4.5-3.303-2.062-4.761-0.72-8.643c-0.069-4.758-2.545-7.781-3.12-12.964
		c1.865-3.767,0.695-5.249,0.72-9.842c3.847-0.116,3.113-3.677,2.88-4.802c0.221-2.786,3.293-7.835-1.92-9.123
		c-2.155-3.467,2.109-7.132,3.6-10.563c-2.559-2.093-2.67-4.476-4.335-4.937c4.297-2.619-1.842-9.907-3.843-13.339
		c-5.495-4.508,0.105-3.746,2.049-7.392c3.844-5.282,2.512-9.405-2.99-7.941c-1.783-0.746-4.037,0.832-6-0.24
		c-1.272,1.282-2.693,1.618-4.183,1.661c2.818-0.343,5.812-1.455,1.303-2.861c2.785-5.552-5.146-6.269-8.747-8.35
		c-8.587-5.306-18.553-3.949-27.972-4.614c-5.931,0.98-3.943-5.59-8.399-6.482c-1.852-2.646-7.522-6.477-13.199-6.242
		c-5.061-1.146-8.499-1.382-11.28-4.561c-2.517-5.27-7.657-4.603-12.239-6.242c-3.841-0.408-7.297,6.615-9.84,1.68
		c-8.84-1.764-18.47-0.182-27.6-0.72c-0.102-6.114,0.051-12.265,0-18.485v-0.96l-0.24-0.48c-1.512,2.293-6.466,0.1-7.382,2.044
		c-0.397-1.592-1.171-2.528-3.177,0.117c-3.93-4.959-11.572,0.703-16.561-2.161c-1.377-0.423-2.834-0.802-4.319-0.72
		c-3.53,2.309-7.666,1.765-11.223,2.107v340.25c2.548-0.3,5.118-0.205,8.343-0.022c4.176,3.067,10.348,2.007,13.439,6.001
		c3.949,0.927,6.041,3.828,10.56,2.161c2.75,3.941,8.487,3.118,12.72,1.2c4.277,0.006,7.939,0.585,11.52-0.24
		c7.117-1.878,13.379-0.769,19.92,1.44c1.771,0.09,2.252-0.287,2.048-0.881c0.479,0.382,1.026,0.526,1.792,0.162
		c4.2,0.322,7.625,5.209,11.039,3.36c16.863-15.548,32.182-32.615,48.479-48.974c1.29-2.874,8.184-5.796,7.022-8.372
		c2.484,2.079,5.701,1.296,1.138-2.431c-1.35-3.796-5.121-6.286-0.418-9.776c5.749-4.391,4.898-11.127,3.777-17.352
		c-2.347-5.486,2.48-10.412,8.16-9.122c3.156-2.431,5.877-7.87,7.92-10.804c5.2-2.832,0.872-6.725,3.6-9.122
		c-2.457-6.135,4.274-1.077,2.64-6.962c7.108,0.697,5.39-8.273,6.96-13.203C1920.896-525.979,1921.361-530.924,1919.956-531.161z"/>
</g>
<g>
	<polygon fill="#FFFFFF" stroke="#000000" stroke-width="2" stroke-miterlimit="10" points="2183.646,-1838.382 2461.902,-1680.411 
		2461.902,-1248.661 2183.646,-1406.633 	"/>
	<polygon fill="#FFFFFF" stroke="#000000" stroke-width="2" stroke-miterlimit="10" points="2740.159,-1838.382 2461.902,-1680.411 
		2461.902,-1248.661 2740.159,-1406.633 	"/>
	<path fill="#FFFFFF" stroke="#000000" stroke-width="2" stroke-miterlimit="10" d="M2457.046-1642.509
		c-6.793-3.276-12.612-5.201-18.479-4.913c-4.867-0.707-6.5,3.995-12.239-1.145c-2.514,1.236-5.432,2.87-3.36,7.442
		c-2.208,2.809-0.355,7.699-1.2,10.033c0.395,3.823-0.316,8.151-4.08,7.94c-9.297-2.071-21.176-7.434-29.759-6.399
		c-2.135,1.977-8.204-2.009-8.88,0.622c-0.283-0.478-0.762-0.937-1.547-1.375c-9.624-4.318-13.079,2.544-18.612,5.857
		c-0.456,9.601-10.976,6.883-17.52,8.426c-4.382,2.099-6.36,6.418-9.493,8.865c-3.188,1.418-5.32,0.954-9.945-1.91
		c-4.435-2.744-5.745-1.237-9.84-3.684c-2.372,2.791-7.73-2.757-9.12-7.062c-4.27-3.701-9.01-9.848-13.439-12.236
		c-3.738-2.985-5.5-7.232-9.84-6.805c-2.248,0.306-2.742,1.812-6.96-1.352c-1.21,1.605-8.874-5.976-6.96-7.354
		c-1.162-3.8-6.619-7.566-8.159-11.006c-2.657,0.006-7.052-3.933-9.36-3.613c-4.364-4.41-9.242-5.551-13.199-11.844
		c-3.881,0.596-0.689,9.25,1.92,14.678c4.22,5.605,7.064,11.752,9.359,18.498c1.413,8.204,8.285,15.281,11.52,23.248
		c7.371,5.264,1.688,11.418,6.961,17.916c5.018,5.018,10.15,14.247,5.999,16.34c3.396,6.991,5.234,12.003,7.68,19.098
		c1.662,5.455,1.991,13.297,8.528,17.14c5.076,4.438,3.395,6.273,7.551,12.398c3.93,4.994,9.479,8.666,10.8,15.103
		c2.014,1.866,3.911,2.781,5.731,3.297c-1.771,0.51-1.638,2.822,2.669,5.223c2.361,4.508,7.673,7.596,11.76,11.639
		c4.637,1.483,5.256,8.916,9.84,9.444c3.279,5.647,5.525,12.007,5.52,16.991c-0.447,6.006-1.55,8.382,5.115,10.969
		c4.719,2.633,9.829,5.903,13.844,9.857c5.604,1.883,2.759,6.775,2.4,8.984c3.139,6.982,0.055,10.393-0.721,14.661
		c2.621,4.985-2.383,5.641,2.16,11.711c4.832,6.108,8.647,13.492,10.67,20.041c2.467,4.782,1.529,5.942,2.29,8.934
		c1.026,2.393,4.958,7.017,8.88,9.547c6.329,4.319,12.458,7.763,17.999,15.168c4.647-0.47,8.548,5.642,13.2,10.403
		c5.193,7.1,12.219,10.184,17.519,17.261c-5.744,0.216-2.202,12.558,4.8,16.528c5.4,1.079,6.535,8.104,10.561,13.268
		c3.59-0.273,7.572,4.273,10.799,4.059c0.501,0.231,0.999,0.483,1.497,0.745v-340.25
		C2460.077-1642.12,2458.402-1642.79,2457.046-1642.509z"/>
	<path fill="#FFFFFF" stroke="#000000" stroke-width="2" stroke-miterlimit="10" d="M2637.04-1543.504
		c-6.242,7.421-6.295,2.528-5.04-3.242c0.431-5.191-5.978,1.065-3.84-6.414c3.684-5.266,4.166-11.165,5.04-16.924
		c-0.618-4.825-3.848-2.679-8.4,0.597c-1.565-3.284,1.62-6.739-0.209-9.727c3.604-5.21,7.46-6.781,11.009-9.938
		c4.059-6.62-1.637-6.912-1.439-10.118c-2.78-4.615,8.691-7.119,6.479-12.085c4.5-6.195-2.062-3.436-0.72-8.181
		c-0.069-4.714-2.545-6.145-3.12-10.958c1.865-4.965,0.695-5.695,0.72-10.305c3.847-2.588,3.113-5.678,2.88-6.653
		c0.221-2.928,3.293-9.952-1.92-7.889c-2.155-2.082,2.109-8.487,3.6-12.876c-2.559-0.449-2.67-2.76-4.335-2.151
		c4.297-5.38-1.842-8.723-3.843-10.87c-5.495-0.977,0.105-3.814,2.049-8.708c3.844-7.752,2.512-11.019-2.99-6.02
		c-1.783,0.4-4.037,3.426-6,3.616c-1.272,2.099-2.693,3.349-4.183,4.349c2.818-2.154,5.812-5.19,1.303-3.699
		c2.785-7.341-5.146-2.961-8.747-2.728c-8.587,0.212-18.553,7.973-27.972,13.361c-5.931,4.791-3.943-3.057-8.399-1.084
		c-1.852-1.457-7.522-1.642-13.199,2.241c-5.061,2.106-8.499,4.08-11.28,2.688c-2.517-3.652-7.657,0.318-12.239,1.624
		c-3.841,2.06-7.297,11.304-9.84,8.004c-8.84,3.917-18.47,11.687-27.6,17.017c-0.102-6.049,0.051-12.298,0-18.485v-0.96l-0.24-0.326
		c-1.512,3.265-6.466,4.255-7.382,6.788c-0.397-1.337-1.171-1.775-3.177,2.158c-3.93-2.434-11.572,8.139-16.561,8.481
		c-1.377,0.462-2.834,1.019-4.319,2.056c-3.53,4.578-7.666,6.691-11.223,9.319v340.25c2.548-1.938,5.118-3.494,8.343-5.383
		c4.176,0.384,10.348-4.643,13.439-2.635c3.949-1.611,6.041-0.055,10.56-4.625c2.75,2.174,8.487-2.336,12.72-6.974
		c4.277-2.743,7.939-4.517,11.52-7.643c7.117-6.452,13.379-9.366,19.92-11.361c1.771-1.047,2.252-1.734,2.048-2.197
		c0.479,0.075,1.026-0.134,1.792-0.99c4.2-2.377,7.625,0.309,11.039-3.733c16.863-26.385,32.182-53.296,48.479-80.128
		c1.29-3.703,8.184-11.055,7.022-12.884c2.484,0.482,5.701-2.367,1.138-3.162c-1.35-2.929-5.121-2.995-0.418-9.508
		c5.749-8.085,4.898-14.275,3.777-19.779c-2.347-3.978,2.48-12.006,8.16-14.366c3.156-4.458,5.877-11.646,7.92-15.893
		c5.2-6.174,0.872-7.285,3.6-11.436c-2.457-4.556,4.274-3.824,2.64-8.658c7.108-3.871,5.39-11.737,6.96-17.676
		C2637.98-1538.926,2638.445-1544.17,2637.04-1543.504z"/>
</g>
<path fill="none" stroke="#070707" stroke-miterlimit="10" d="M2565.341-886.239c2.062,2.956,5.806,3.232,9.333,2.376
	c1.176-0.285,2.328-0.696,3.387-1.176"/>
<line fill="#FFFFFF" stroke="#000000" stroke-width="3" stroke-miterlimit="10" x1="2501.999" y1="30.846" x2="2544.66" y2="30.846"/>
<line fill="#FFFFFF" stroke="#000000" stroke-width="3" stroke-miterlimit="10" x1="2544.66" y1="381.773" x2="2501.999" y2="382.727"/>
<g>
	<path fill="#FFFFFF" stroke="#000000" stroke-width="3" stroke-miterlimit="10" d="M2777.579-763.935"/>
	<path fill="#FFFFFF" stroke="#000000" stroke-width="3" stroke-miterlimit="10" d="M2780.155-761.371l-4.008,319.436
		c-6-2.374-103.787,5.956-151.5,33.374c-67,38.5-85.33,88.5-85.33,122.717c0-34.217-18.33-84.217-85.33-122.717
		c-47.713-27.418-142.5-35.748-148.5-33.374l-2.475-322c0,0,51.476-14.564,79.476,0s100,43.882,100,43.882l16,37.682l21.354,28
		l19.324,21.163l-0.679,5.837l30.731-61l74.269-62.19l82-19.847h38L2780.155-761.371z"/>
	<path fill="#FFFFFF" stroke="#000000" stroke-width="3" stroke-miterlimit="10" d="M2453.987-750.561
		c-47.713-27.418-125.5-35.748-131.5-33.374l-0.332-0.384l-19.143,20.384c6-2.374,83.787,5.956,131.5,33.374
		c67,38.5,85.33,88.5,85.33,122.717l19.475-20C2539.317-662.061,2520.987-712.061,2453.987-750.561"/>
	<path fill="#FFFFFF" stroke="#000000" stroke-width="3" stroke-miterlimit="10" d="M2322.487-783.935"/>
	<path fill="#FFFFFF" stroke="#000000" stroke-width="3" stroke-miterlimit="10" d="M2453.987-750.561"/>
	<path fill="#FFFFFF" stroke="#000000" stroke-width="3" stroke-miterlimit="10" d="M2560.749-607.844
		c0-34.217,18.33-84.217,85.33-122.717c47.713-27.418,125.5-35.748,131.5-33.374l-23.412-20.32c-6-2.374-81.807,6.276-129.52,33.694
		c-67,38.5-85.33,88.5-85.33,122.717"/>
	<path fill="none" stroke="#070707" stroke-width="3" stroke-miterlimit="10" d="M2669.164-720.053"/>
	<path fill="none" stroke="#070707" stroke-width="3" stroke-miterlimit="10" d="M2540.438-631.784l-8.549,331.853
		c1.12-1.576,4.15-5.471,5.16-7.095c4.277-4.934,4.939-5.119,8.52-10.078c7.117-10.096,13.379-16.217,19.92-21.561
		c1.771-1.954,2.252-2.887,2.048-3.246c0.479-0.171,1.026-0.659,1.792-1.908c4.2-4.527,7.625-3.596,11.039-9.386
		c16.863-35.02,32.182-69.775,48.479-104.952c1.29-4.364,8.184-15.246,7.022-16.481c2.484-0.789,5.701-5.287,1.138-3.745
		c-1.35-2.237-5.121-0.373-0.418-9.294c5.749-11.029,4.898-16.783,3.777-21.713c-2.347-2.776,2.48-13.276,8.16-18.545
		c3.156-6.075,5.877-14.656,7.92-19.948c5.2-8.837,0.872-7.732,3.6-13.279c-2.457-3.297,4.274-6.013,2.64-10.01
		c7.108-7.511,5.39-14.497,6.96-21.239c-4.579,3.746-4.114-1.736-5.52-0.35c-6.242,10.617-6.295,5.751-5.04-0.662
		c0.431-5.412-5.978,4.126-3.84-4.448c3.684-7.152,4.166-13.298,5.04-19.504c-0.618-4.509-3.848-0.709-8.4,4.898
		c-1.565-2.483,1.62-7.569-0.209-9.62c3.604-7.056,7.46-10.601,11.009-15.575c4.059-8.698-1.637-6.074-1.439-9.381
		c-2.78-3.191,8.691-11.569,6.479-15.403c4.5-8.5-2.062-2.379-0.72-7.812c-0.069-4.678-2.545-4.842-3.12-9.361
		c1.865-5.92,0.695-6.051,0.72-10.673c3.847-4.557,3.113-7.272,2.88-8.127c0.221-3.041,3.293-11.638-1.92-6.906"/>
	<path fill="#070707" d="M2514.131-641.488c-6.793-6.754-12.612-11.658-18.479-14.375c-4.867-3.199-6.5,0.666-12.239-7.412
		c-2.514-0.051-5.432,0.088-3.36,5.722c-2.208,1.677-0.355,7.517-1.2,9.419c0.395,4.023-0.316,7.987-4.08,5.851
		c-9.297-6.832-21.176-18.278-29.759-21.638c-2.135,0.883-8.204-6.211-8.88-3.926c-0.283-0.623-0.762-1.326-1.547-2.167
		c-9.624-9.247-13.079-4.153-18.612-3.673c-0.456,9.367-10.976,1.262-17.52-0.545c-4.382-0.146-6.36,3.162-9.493,4.004
		c-3.188-0.215-5.32-1.771-9.945-7.004c-4.435-5.015-5.745-4.179-9.84-8.722c-2.372,1.576-7.73-6.716-9.12-11.731
		c-4.27-5.888-9.01-14.461-13.439-19.119c-3.738-4.899-5.5-10.049-9.84-11.842c-2.248-0.846-2.742,0.406-6.96-4.916
		c-1.21,0.986-8.874-10.52-6.96-10.918c-1.162-4.396-6.619-10.957-8.159-15.184c-2.657-1.354-7.052-7.544-9.36-8.406
		c-4.364-6.646-9.242-10.283-13.199-18.603c-3.881-1.392-0.689,8.897,1.92,15.66c4.22,7.767,7.064,15.37,9.359,23.291
		c1.413,8.927,8.285,19.524,11.52,29.146c7.371,9.041,1.688,12.285,6.961,21.482c5.018,7.586,10.15,19.445,5.999,19.41
		c3.396,8.73,5.234,14.684,7.68,23.031c1.662,6.307,1.991,14.315,8.528,21.506c5.076,7.037,3.395,8.013,7.551,16.267
		c3.93,7.007,9.479,13.519,10.8,20.633c2.014,2.897,3.911,4.781,5.731,6.231c-1.771-0.398-1.638,1.982,2.669,6.59
		c2.361,5.717,7.673,11.523,11.76,17.66c4.637,3.856,5.256,11.606,9.84,14.482c3.279,7.326,5.525,14.836,5.52,19.816
		c-0.447,5.777-1.55,7.589,5.115,13.59c4.719,5.048,9.829,10.938,13.844,16.945c5.604,4.752,2.759,8.188,2.4,10.214
		c3.139,8.589,0.055,10.421-0.721,14.292c2.621,6.328-2.383,4.42,2.16,12.817c4.832,8.581,8.647,17.919,10.67,25.505
		c2.467,6.045,1.529,6.725,2.29,10.105c1.026,2.918,4.958,9.557,8.88,14.095c6.329,7.561,12.458,14.142,17.999,24.384
		c4.647,1.91,8.548,10.02,13.2,17.163c5.193,9.759,12.219,16.44,17.519,26.231c-5.744-2.725-2.202,11.43,4.8,18.985
		c5.4,3.845,6.535,11.45,10.561,18.677c3.59,1.562,7.572,8.149,10.799,9.588c0.501,0.487,0.999,0.994,1.497,1.511v-340.25
		C2517.162-639.546,2515.487-641.074,2514.131-641.488z"/>
	<path fill="#070707" d="M2561.889-287.365c-3.527,0.856-8.497,0.621-10.56-2.335c-4.519,1.667-6.61-1.234-10.56-2.161
		c-3.092-3.994-9.264-2.934-13.439-6.001c-3.225-0.183-5.795-0.278-8.343,0.022v-340.25c3.557-0.343,7.692,0.202,11.223-2.107
		c1.485-0.082,2.942,0.297,4.319,0.72c4.988,2.863,12.631-2.799,16.561,2.161c2.006-2.645,2.779-1.709,3.177-0.117
		c0.916-1.944,5.87,0.25,7.382-2.044l0.24,0.48V-287.365z"/>
	<path fill="#070707" d="M2561.889-619.12v332.188c1.12-1.576,4.15-5.471,5.16-7.095c4.277-4.934,4.939-5.119,8.52-10.078
		c7.117-10.096,13.379-16.217,19.92-21.561c1.771-1.954,2.252-2.887,2.048-3.246c0.479-0.171,1.026-0.659,1.792-1.908
		c4.2-4.527,7.625-3.596,11.039-9.386c16.863-35.02,32.182-69.775,48.479-104.952c1.29-4.364,8.184-15.246,7.022-16.481
		c2.484-0.789,5.701-5.287,1.138-3.745c-1.35-2.237-5.121-0.373-0.418-9.294c5.749-11.029,4.898-16.783,3.777-21.713
		c-2.347-2.776,2.48-13.276,8.16-18.545c3.156-6.075,5.877-14.656,7.92-19.948c5.2-8.837,0.872-7.732,3.6-13.279
		c-2.457-3.297,4.274-6.013,2.64-10.01c7.108-7.511,5.39-14.497,6.96-21.239c-4.579,3.746-4.114-1.736-5.52-0.35
		c-6.242,10.617-6.295,5.751-5.04-0.662c0.431-5.412-5.978,4.126-3.84-4.448c3.684-7.152,4.166-13.298,5.04-19.504
		c-0.618-4.509-3.848-0.709-8.4,4.898c-1.565-2.483,1.62-7.569-0.209-9.62c3.604-7.056,7.46-10.601,11.009-15.575
		c4.059-8.698-1.637-6.074-1.439-9.381c-2.78-3.191,8.691-11.569,6.479-15.403c4.5-8.5-2.062-2.379-0.72-7.812
		c-0.069-4.678-2.545-4.842-3.12-9.361c1.865-5.92,0.695-6.051,0.72-10.673c3.847-4.557,3.113-7.272,2.88-8.127
		c0.221-3.041,3.293-11.638-1.92-6.906c-2.155-0.978,2.109-9.567,3.6-14.719c-2.559,0.861-2.67-1.393-4.335,0.069
		c4.297-7.581-1.842-7.78-3.843-8.902c-5.495,1.837,0.105-3.868,2.049-9.757c1.922-4.86,2.55-7.936,2.01-8.82
		c-0.541-0.885-2.249,0.423-5,4.332c-1.783,1.313-4.037,5.494-6,6.688c-1.272,2.751-2.693,4.728-4.183,6.491
		c2.818-3.598,5.812-8.166,1.303-4.366c2.785-8.768-5.146-0.326-8.747,1.751c-8.587,4.609-18.553,17.474-27.972,27.685
		c-5.931,7.828-3.943-1.037-8.399,3.217c-1.852-0.508-7.522,2.209-13.199,9c-5.061,4.697-8.499,8.432-11.28,8.464
		c-2.517-2.363-7.657,4.239-12.239,7.891c-3.841,4.027-7.297,15.041-9.84,13.042C2580.648-641.826,2571.019-629.125,2561.889-619.12
		"/>
	<path fill="#FFFFFF" stroke="#070707" stroke-width="3" stroke-miterlimit="10" d="M2514.131-634.488
		c-6.793-6.754-12.612-11.658-18.479-14.375c-4.867-3.199-6.5,0.666-12.239-7.412c-2.514-0.051-5.432,0.088-3.36,5.722
		c-2.208,1.677-0.355,7.517-1.2,9.419c0.395,4.023-0.316,7.987-4.08,5.851c-9.297-6.832-21.176-18.278-29.759-21.638
		c-2.135,0.883-8.204-6.211-8.88-3.926c-0.283-0.623-0.762-1.326-1.547-2.167c-9.624-9.247-13.079-4.153-18.612-3.673
		c-0.456,9.367-10.976,1.262-17.52-0.545c-4.382-0.146-6.36,3.162-9.493,4.004c-3.188-0.215-5.32-1.771-9.945-7.004
		c-4.435-5.015-5.745-4.179-9.84-8.722c-2.372,1.576-7.73-6.716-9.12-11.731c-4.27-5.888-9.01-14.461-13.439-19.119
		c-3.738-4.899-5.5-10.049-9.84-11.842c-2.248-0.846-2.742,0.406-6.96-4.916c-1.21,0.986-8.874-10.52-6.96-10.918
		c-1.162-4.396-6.619-10.957-8.159-15.184c-2.657-1.354-7.052-7.544-9.36-8.406c-4.364-6.646-9.242-10.283-13.199-18.603
		c-3.881-1.392-0.689,8.897,1.92,15.66c4.22,7.767,7.064,15.37,9.359,23.291c1.413,8.927,8.285,19.524,11.52,29.146
		c7.371,9.041,1.688,12.285,6.961,21.482c5.018,7.586,10.15,19.445,5.999,19.41c3.396,8.73,5.234,14.684,7.68,23.031
		c1.662,6.307,1.991,14.315,8.528,21.506c5.076,7.037,3.395,8.013,7.551,16.267c3.93,7.007,9.479,13.519,10.8,20.633
		c2.014,2.897,3.911,4.781,5.731,6.231c-1.771-0.398-1.638,1.982,2.669,6.59c2.361,5.717,7.673,11.523,11.76,17.66
		c4.637,3.856,5.256,11.606,9.84,14.482c3.279,7.326,5.525,14.836,5.52,19.816c-0.447,5.777-1.55,7.589,5.115,13.59
		c4.719,5.048,9.829,10.938,13.844,16.945c5.604,4.752,2.759,8.188,2.4,10.214c3.139,8.589,0.055,10.421-0.721,14.292
		c2.621,6.328-2.383,4.42,2.16,12.817c4.832,8.581,8.647,17.919,10.67,25.505c2.467,6.045,1.529,6.725,2.29,10.105
		c1.026,2.918,4.958,9.557,8.88,14.095c6.329,7.561,12.458,14.142,17.999,24.384c4.647,1.91,8.548,10.02,13.2,17.163
		c5.193,9.759,12.219,16.44,17.519,26.231c-5.744-2.725-2.202,11.43,4.8,18.985c5.4,3.845,6.535,11.45,10.561,18.677
		c3.59,1.562,7.572,8.149,10.799,9.588c0.501,0.487,0.999,0.994,1.497,1.511v-340.25
		C2517.162-632.546,2515.487-634.074,2514.131-634.488z"/>
	<path fill="#FFFFFF" stroke="#070707" stroke-width="3" stroke-miterlimit="10" d="M2561.889-280.365
		c-3.527,0.856-8.497,0.621-10.56-2.335c-4.519,1.667-6.61-1.234-10.56-2.161c-3.092-3.994-9.264-2.934-13.439-6.001
		c-3.225-0.183-5.795-0.278-8.343,0.022v-340.25c3.557-0.343,7.692,0.202,11.223-2.107c1.485-0.082,2.942,0.297,4.319,0.72
		c4.988,2.863,12.631-2.799,16.561,2.161c2.006-2.645,2.779-1.709,3.177-0.117c0.916-1.944,5.87,0.25,7.382-2.044l0.24,0.48
		V-280.365z"/>
	<path fill="#FFFFFF" stroke="#070707" stroke-width="3" stroke-miterlimit="10" d="M2561.889-612.12v332.188
		c1.12-1.576,4.15-5.471,5.16-7.095c4.277-4.934,4.939-5.119,8.52-10.078c7.117-10.096,13.379-16.217,19.92-21.561
		c1.771-1.954,2.252-2.887,2.048-3.246c0.479-0.171,1.026-0.659,1.792-1.908c4.2-4.527,7.625-3.596,11.039-9.386
		c16.863-35.02,32.182-69.775,48.479-104.952c1.29-4.364,8.184-15.246,7.022-16.481c2.484-0.789,5.701-5.287,1.138-3.745
		c-1.35-2.237-5.121-0.373-0.418-9.294c5.749-11.029,4.898-16.783,3.777-21.713c-2.347-2.776,2.48-13.276,8.16-18.545
		c3.156-6.075,5.877-14.656,7.92-19.948c5.2-8.837,0.872-7.732,3.6-13.279c-2.457-3.297,4.274-6.013,2.64-10.01
		c7.108-7.511,5.39-14.497,6.96-21.239c-4.579,3.746-4.114-1.736-5.52-0.35c-6.242,10.617-6.295,5.751-5.04-0.662
		c0.431-5.412-5.978,4.126-3.84-4.448c3.684-7.152,4.166-13.298,5.04-19.504c-0.618-4.509-3.848-0.709-8.4,4.898
		c-1.565-2.483,1.62-7.569-0.209-9.62c3.604-7.056,7.46-10.601,11.009-15.575c4.059-8.698-1.637-6.074-1.439-9.381
		c-2.78-3.191,8.691-11.569,6.479-15.403c4.5-8.5-2.062-2.379-0.72-7.812c-0.069-4.678-2.545-4.842-3.12-9.361
		c1.865-5.92,0.695-6.051,0.72-10.673c3.847-4.557,3.113-7.272,2.88-8.127c0.221-3.041,3.293-11.638-1.92-6.906
		c-2.155-0.978,2.109-9.567,3.6-14.719c-2.559,0.861-2.67-1.393-4.335,0.069c4.297-7.581-1.842-7.78-3.843-8.902
		c-5.495,1.837,0.105-3.868,2.049-9.757c1.922-4.86,2.55-7.936,2.01-8.82c-0.541-0.885-2.249,0.423-5,4.332
		c-1.783,1.313-4.037,5.494-6,6.688c-1.272,2.751-2.693,4.728-4.183,6.491c2.818-3.598,5.812-8.166,1.303-4.366
		c2.785-8.768-5.146-0.326-8.747,1.751c-8.587,4.609-18.553,17.474-27.972,27.685c-5.931,7.828-3.943-1.037-8.399,3.217
		c-1.852-0.508-7.522,2.209-13.199,9c-5.061,4.697-8.499,8.432-11.28,8.464c-2.517-2.363-7.657,4.239-12.239,7.891
		c-3.841,4.027-7.297,15.041-9.84,13.042C2580.648-634.826,2571.019-622.125,2561.889-612.12"/>
	<path fill="#FFFFFF" stroke="#000000" stroke-width="3" stroke-miterlimit="10" d="M2777.579-763.935"/>
	<path fill="#FFFFFF" stroke="#000000" stroke-width="3" stroke-miterlimit="10" d="M2519.843-607.844"/>
	<path fill="#FFFFFF" stroke="#000000" stroke-width="3" stroke-miterlimit="10" d="M2304.25-763.935"/>
</g>
<polygon points="431.335,-1598.731 431.335,-750.561 -204.729,-750.561 -174.729,-720.561 461.335,-720.561 461.335,-1568.731 "/>
</svg>
