<?xml version="1.0" encoding="utf-8"?>
<!-- Generator: Adobe Illustrator 16.0.0, SVG Export Plug-In . SVG Version: 6.00 Build 0)  -->
<!DOCTYPE svg PUBLIC "-//W3C//DTD SVG 1.1//EN" "http://www.w3.org/Graphics/SVG/1.1/DTD/svg11.dtd">
<svg version="1.1" id="Layer_1" xmlns="http://www.w3.org/2000/svg" xmlns:xlink="http://www.w3.org/1999/xlink" x="0px" y="0px"
	 width="300px" height="300px" viewBox="0 0 300 300" enable-background="new 0 0 300 300" xml:space="preserve">
<rect x="124.999" y="200" fill="#972068" width="125.001" height="25"/>
<rect x="74.999" y="200" fill="#972068" width="25" height="25"/>
<rect x="124.999" y="50" fill="#972068" width="25" height="25"/>
<rect x="74.999" y="225" fill="#972068" width="25" height="25"/>
<rect x="49.999" y="225" fill="#972068" width="25" height="25"/>
<rect x="49.999" y="200" fill="#972068" width="25" height="25"/>
<rect x="24.999" y="225" fill="#972068" width="25" height="25"/>
<rect x="49.999" y="250" fill="#972068" width="25" height="25"/>
<rect x="24.999" y="250" fill="#972068" width="25" height="25"/>
<rect x="24.999" y="275" fill="#972068" width="25" height="25"/>
<rect y="275" fill="#972068" width="25" height="25"/>
<rect y="250" fill="#972068" width="25" height="25"/>
<rect x="124.999" fill="#972068" width="125.001" height="25"/>
<rect x="99.999" y="25" fill="#972068" width="175.001" height="25"/>
<rect x="99.999" y="175" fill="#972068" width="175.001" height="25"/>
<rect x="74.999" y="50" fill="#972068" width="25" height="125"/>
<rect x="99.999" y="25" fill="#972068" width="25" height="175"/>
<rect x="250" y="25" fill="#972068" width="25" height="175"/>
<rect x="275" y="50" fill="#972068" width="25" height="125"/>
<rect x="124.999" y="150" fill="#972068" width="25" height="25"/>
<rect x="225" y="50" fill="#972068" width="25" height="25"/>
<rect x="225" y="150" fill="#972068" width="25" height="25"/>
</svg>
