<?xml version="1.0" encoding="utf-8"?>
<!-- Generator: Adobe Illustrator 16.0.0, SVG Export Plug-In . SVG Version: 6.00 Build 0)  -->
<!DOCTYPE svg PUBLIC "-//W3C//DTD SVG 1.1//EN" "http://www.w3.org/Graphics/SVG/1.1/DTD/svg11.dtd">
<svg version="1.1" id="Layer_1" xmlns="http://www.w3.org/2000/svg" xmlns:xlink="http://www.w3.org/1999/xlink" x="0px" y="0px"
	 width="300px" height="300px" viewBox="0 0 300 300" enable-background="new 0 0 300 300" xml:space="preserve">
<g>
	<rect x="116.549" y="252.271" fill="#F8E5E3" width="22.727" height="22.729"/>
	<polygon fill="#F8E5E3" points="138.637,138.636 138.637,161.363 116.549,161.363 116.549,184.091 116.549,206.818 
		116.549,229.545 139.275,229.545 139.275,206.818 139.275,184.091 139.275,161.363 161.363,161.363 184.091,161.363 
		184.091,138.636 161.363,138.636 	"/>
	<rect x="184.091" y="115.909" fill="#F8E5E3" width="22.728" height="22.727"/>
	<polygon fill="#F8E5E3" points="70.455,93.182 70.455,115.909 93.182,115.909 93.182,93.182 93.182,70.455 70.455,70.455 	"/>
	<polygon fill="#F8E5E3" points="206.818,70.455 206.818,93.182 206.818,115.909 229.545,115.909 229.545,93.182 229.545,70.455 	
		"/>
	<rect x="93.182" y="47.727" fill="#F8E5E3" width="22.728" height="22.728"/>
	<rect x="184.091" y="47.727" fill="#F8E5E3" width="22.728" height="22.728"/>
	<polygon fill="#F8E5E3" points="161.363,25 138.637,25 115.909,25 115.909,47.727 138.637,47.727 161.363,47.727 184.091,47.727 
		184.091,25 	"/>
</g>
</svg>
