<?xml version="1.0" encoding="utf-8"?>
<!-- Generator: Adobe Illustrator 20.1.0, SVG Export Plug-In . SVG Version: 6.00 Build 0)  -->
<svg version="1.1" id="Layer_1" xmlns="http://www.w3.org/2000/svg" xmlns:xlink="http://www.w3.org/1999/xlink" x="0px" y="0px"
	 viewBox="0 0 300 300" style="enable-background:new 0 0 300 300;" xml:space="preserve">
<style type="text/css">
	.st0{fill:#FFF3F9;}
	.st1{fill:#972068;}
</style>
<g>
	<g id="XMLID_1_">
		<g>
			<polygon class="st0" points="251.4,249.3 251.4,274 226.4,274 201.4,274 176.4,274 151.4,274 126.4,274 101.4,274 76.4,274 
				51.4,274 51.4,249 76.4,249 76.9,249 101.4,249 101.9,249 101.9,224 126.4,224 126.4,199 126.4,174 101.4,174 101.4,149 
				76.4,149 76.4,124 76.4,99 76.4,74 101.4,74 101.4,49 126.4,49 151.4,49 176.4,49 201.4,49 201.4,74 226.4,74 226.4,99 
				226.4,124 226.4,149 201.4,149 201.4,174 176.4,174 176.4,199 176.4,199.3 176.4,224 176.4,224.3 201.4,224.3 201.4,249.3 
				226.4,249.3 			"/>
			<polygon class="st1" points="276.4,274.3 276.4,299 251.4,299 226.4,299 201.4,299 176.4,299 151.4,299 126.4,299 101.4,299 
				76.4,299 51.4,299 26.4,299 26.4,274 26.4,249 51.4,249 51.4,274 76.4,274 101.4,274 126.4,274 151.4,274 176.4,274 201.4,274 
				226.4,274 251.4,274 251.4,249.3 276.4,249.3 276.4,274 			"/>
			<polygon class="st1" points="251.4,224.3 251.4,249.3 226.4,249.3 201.4,249.3 201.4,224.3 176.4,224.3 176.4,224 176.4,199.3 
				176.4,199 176.4,174 201.4,174 201.4,199 201.4,199.3 226.4,199.3 226.4,224.3 			"/>
			<polygon class="st1" points="251.4,124 251.4,149 226.4,149 226.4,124 226.4,99 226.4,74 251.4,74 251.4,99 			"/>
			<rect x="201.4" y="149" class="st1" width="25" height="25"/>
			<rect x="201.4" y="49" class="st1" width="25" height="25"/>
			<polygon class="st1" points="201.4,24 201.4,49 176.4,49 151.4,49 126.4,49 101.4,49 101.4,24 126.4,24 151.4,24 176.4,24 			"/>
			<polygon class="st1" points="126.4,199 126.4,224 101.9,224 101.9,249 101.4,249 76.9,249 76.4,249 51.4,249 51.4,224 76.4,224 
				76.4,199 76.9,199 101.4,199 101.4,174 126.4,174 			"/>
			<rect x="76.4" y="149" class="st1" width="25" height="25"/>
			<rect x="76.4" y="49" class="st1" width="25" height="25"/>
			<polygon class="st1" points="76.4,124 76.4,149 51.4,149 51.4,124 51.4,99 51.4,74 76.4,74 76.4,99 			"/>
		</g>
	</g>
</g>
</svg>
