<?xml version="1.0" encoding="utf-8"?>
<!-- Generator: Adobe Illustrator 16.0.0, SVG Export Plug-In . SVG Version: 6.00 Build 0)  -->
<!DOCTYPE svg PUBLIC "-//W3C//DTD SVG 1.1//EN" "http://www.w3.org/Graphics/SVG/1.1/DTD/svg11.dtd">
<svg version="1.1" id="Layer_1" xmlns="http://www.w3.org/2000/svg" xmlns:xlink="http://www.w3.org/1999/xlink" x="0px" y="0px"
	 width="300px" height="300px" viewBox="0 0 300 300" enable-background="new 0 0 300 300" xml:space="preserve">
<g>
	<rect x="66.56" y="254.141" fill="#F8E5E3" width="166.879" height="20.859"/>
	<path fill="#F8E5E3" d="M45.7,25v229.45h20.86V233.6h146.02V25H45.7z M191.721,212.73H66.56V45.86h125.161V212.73z"/>
	<rect x="66.56" y="45.86" fill="#D02630" width="125.161" height="166.871"/>
	<polygon fill="#F8E5E3" points="233.441,45.859 233.441,66.719 233.441,87.578 233.441,108.438 233.441,129.297 233.441,150.156 
		233.441,171.016 233.441,191.875 233.441,212.734 233.441,233.596 233.441,254.454 254.302,254.454 254.302,233.596 
		254.302,212.734 254.302,191.875 254.302,171.016 254.302,150.156 254.302,129.297 254.302,108.438 254.302,87.578 254.302,66.719 
		254.302,45.859 	"/>
</g>
<rect x="66.56" y="233.6" fill="#D02630" width="146.02" height="20.541"/>
<rect x="212.58" y="45.86" fill="#D02630" width="20.859" height="208.281"/>
</svg>
