<?xml version="1.0" encoding="utf-8"?>
<!-- Generator: Adobe Illustrator 20.1.0, SVG Export Plug-In . SVG Version: 6.00 Build 0)  -->
<svg version="1.1" id="Layer_1" xmlns="http://www.w3.org/2000/svg" xmlns:xlink="http://www.w3.org/1999/xlink" x="0px" y="0px"
	 viewBox="0 0 300.2 300.2" style="enable-background:new 0 0 300.2 300.2;" xml:space="preserve">
<style type="text/css">
	.st0{fill:#972068;}
</style>
<g>
	<polygon class="st0" points="175.1,0 150.1,0 125.1,0 100.1,0 75.1,0 50.1,0 50.1,25 75.1,25 100.1,25 125.1,25 150.1,25 175.1,25 
		200.1,25 200.1,0 	"/>
	<polygon class="st0" points="125.1,150 150.1,150 175.1,150 200.1,150 225.1,150 250.1,150 250.1,125 225.1,125 200.1,125 
		175.1,125 150.1,125 125.1,125 100.1,125 100.1,150 	"/>
	<polygon class="st0" points="250.1,50 250.1,25 225.1,25 200.1,25 200.1,50 225.1,50 	"/>
	<polygon class="st0" points="200.1,75 200.1,50 175.1,50 150.1,50 150.1,75 175.1,75 	"/>
	<polygon class="st0" points="150.1,100 150.1,75 125.1,75 100.1,75 100.1,100 125.1,100 	"/>
	<polygon class="st0" points="100.1,125 100.1,100 75.1,100 50.1,100 50.1,125 75.1,125 	"/>
	<polygon class="st0" points="237.6,174.6 237.6,199.6 237.6,224.6 262.6,224.6 262.6,199.6 262.6,174.6 	"/>
	<polygon class="st0" points="212.6,249.6 212.6,274.6 237.6,274.6 237.6,249.6 237.6,224.6 212.6,224.6 	"/>
	<rect x="137.6" y="199.6" class="st0" width="25" height="25"/>
	<polygon class="st0" points="187.6,224.6 162.6,224.6 162.6,249.6 162.6,274.6 187.6,274.6 187.6,249.6 	"/>
	<rect x="187.6" y="274.6" class="st0" width="25" height="25"/>
	<polygon class="st0" points="62.6,175.2 37.6,175.2 37.6,200.2 37.6,225.2 62.6,225.2 62.6,200.2 	"/>
	<polygon class="st0" points="87.6,225.2 62.6,225.2 62.6,250.2 62.6,275.2 87.6,275.2 87.6,250.2 	"/>
	<polygon class="st0" points="112.6,250.2 112.6,275.2 137.6,275.2 137.6,250.2 137.6,225.2 112.6,225.2 	"/>
	<rect x="87.6" y="275.2" class="st0" width="25" height="25"/>
</g>
</svg>
