<?xml version="1.0" encoding="utf-8"?>
<!-- Generator: Adobe Illustrator 20.1.0, SVG Export Plug-In . SVG Version: 6.00 Build 0)  -->
<svg version="1.1" id="Layer_1" xmlns="http://www.w3.org/2000/svg" xmlns:xlink="http://www.w3.org/1999/xlink" x="0px" y="0px"
	 viewBox="0 0 300.2 300.2" style="enable-background:new 0 0 300.2 300.2;" xml:space="preserve">
<style type="text/css">
	.st0{fill:#FFF3F9;}
</style>
<g>
	<g>
		<rect x="175.1" class="st0" width="25" height="25"/>
		<rect x="150.1" class="st0" width="25" height="25"/>
		<rect x="125.1" class="st0" width="25" height="25"/>
		<rect x="100.1" class="st0" width="25" height="25"/>
		<rect x="75.1" class="st0" width="25" height="25"/>
		<rect x="50.1" class="st0" width="25" height="25"/>
	</g>
	<g>
		<rect x="225.1" y="125" class="st0" width="25" height="25"/>
		<rect x="200.1" y="125" class="st0" width="25" height="25"/>
		<rect x="175.1" y="125" class="st0" width="25" height="25"/>
		<rect x="150.1" y="125" class="st0" width="25" height="25"/>
		<rect x="125.1" y="125" class="st0" width="25" height="25"/>
		<rect x="100.1" y="125" class="st0" width="25" height="25"/>
	</g>
	<g>
		<rect x="200.1" y="25" class="st0" width="25" height="25"/>
		<rect x="225.1" y="25" class="st0" width="25" height="25"/>
	</g>
	<g>
		<rect x="150.1" y="50" class="st0" width="25" height="25"/>
		<rect x="175.1" y="50" class="st0" width="25" height="25"/>
	</g>
	<g>
		<rect x="100.1" y="75" class="st0" width="25" height="25"/>
		<rect x="125.1" y="75" class="st0" width="25" height="25"/>
	</g>
	<g>
		<rect x="50.1" y="100" class="st0" width="25" height="25"/>
		<rect x="75.1" y="100" class="st0" width="25" height="25"/>
	</g>
</g>
<g>
	<g>
		<rect x="237.6" y="199.6" class="st0" width="25" height="25"/>
		<rect x="237.6" y="174.6" class="st0" width="25" height="25"/>
	</g>
	<g>
		<rect x="212.6" y="249.6" class="st0" width="25" height="25"/>
		<rect x="212.6" y="224.6" class="st0" width="25" height="25"/>
	</g>
	<g>
		<g>
			<rect x="137.6" y="199.6" class="st0" width="25" height="25"/>
		</g>
		<g>
			<rect x="162.6" y="249.6" class="st0" width="25" height="25"/>
			<rect x="162.6" y="224.6" class="st0" width="25" height="25"/>
		</g>
		<rect x="187.6" y="274.6" class="st0" width="25" height="25"/>
	</g>
	<g>
		<g>
			<rect x="37.6" y="200.2" class="st0" width="25" height="25"/>
			<rect x="37.6" y="175.2" class="st0" width="25" height="25"/>
		</g>
		<g>
			<rect x="62.6" y="250.2" class="st0" width="25" height="25"/>
			<rect x="62.6" y="225.2" class="st0" width="25" height="25"/>
		</g>
		<g>
			<g>
				<rect x="112.6" y="250.2" class="st0" width="25" height="25"/>
				<rect x="112.6" y="225.2" class="st0" width="25" height="25"/>
			</g>
			<rect x="87.6" y="275.2" class="st0" width="25" height="25"/>
		</g>
	</g>
</g>
</svg>
