<?xml version="1.0" encoding="utf-8"?>
<!-- Generator: Adobe Illustrator 16.0.0, SVG Export Plug-In . SVG Version: 6.00 Build 0)  -->
<!DOCTYPE svg PUBLIC "-//W3C//DTD SVG 1.1//EN" "http://www.w3.org/Graphics/SVG/1.1/DTD/svg11.dtd">
<svg version="1.1" id="Layer_1" xmlns="http://www.w3.org/2000/svg" xmlns:xlink="http://www.w3.org/1999/xlink" x="0px" y="0px"
	 width="100px" height="100px" viewBox="0 0 100 100" enable-background="new 0 0 100 100" xml:space="preserve">
<g>
	<g>
		<rect x="58.328" width="8.328" height="8.328"/>
		<rect x="50" width="8.328" height="8.328"/>
		<rect x="41.672" width="8.328" height="8.328"/>
		<rect x="33.344" width="8.328" height="8.328"/>
		<rect x="25.017" width="8.328" height="8.328"/>
		<rect x="16.689" width="8.328" height="8.328"/>
	</g>
	<g>
		<rect x="74.983" y="41.639" width="8.327" height="8.328"/>
		<rect x="66.656" y="41.639" width="8.327" height="8.328"/>
		<rect x="58.328" y="41.639" width="8.328" height="8.328"/>
		<rect x="50" y="41.639" width="8.328" height="8.328"/>
		<rect x="41.672" y="41.639" width="8.328" height="8.328"/>
		<rect x="33.344" y="41.639" width="8.328" height="8.328"/>
	</g>
	<g>
		<rect x="66.656" y="8.328" width="8.327" height="8.328"/>
		<rect x="74.983" y="8.328" width="8.327" height="8.328"/>
	</g>
	<g>
		<rect x="50" y="16.656" width="8.328" height="8.328"/>
		<rect x="58.328" y="16.656" width="8.328" height="8.328"/>
	</g>
	<g>
		<rect x="33.344" y="24.983" width="8.328" height="8.328"/>
		<rect x="41.672" y="24.983" width="8.328" height="8.328"/>
	</g>
	<g>
		<rect x="16.689" y="33.311" width="8.328" height="8.328"/>
		<rect x="25.017" y="33.311" width="8.328" height="8.328"/>
	</g>
</g>
<g>
	<g>
		<rect x="79.147" y="66.489" width="8.327" height="8.327"/>
		<rect x="79.147" y="58.161" width="8.327" height="8.328"/>
	</g>
	<g>
		<rect x="70.819" y="83.145" width="8.328" height="8.328"/>
		<rect x="70.819" y="74.816" width="8.328" height="8.328"/>
	</g>
	<g>
		<g>
			<rect x="45.836" y="66.489" width="8.328" height="8.327"/>
		</g>
		<g>
			<rect x="54.164" y="83.145" width="8.328" height="8.328"/>
			<rect x="54.164" y="74.816" width="8.328" height="8.328"/>
		</g>
		<rect x="62.492" y="91.473" width="8.327" height="8.328"/>
	</g>
	<g>
		<g>
			<rect x="12.525" y="66.689" width="8.328" height="8.327"/>
			<rect x="12.525" y="58.361" width="8.328" height="8.328"/>
		</g>
		<g>
			<rect x="20.853" y="83.344" width="8.328" height="8.328"/>
			<rect x="20.853" y="75.017" width="8.328" height="8.327"/>
		</g>
		<g>
			<g>
				<rect x="37.508" y="83.344" width="8.328" height="8.328"/>
				<rect x="37.508" y="75.017" width="8.328" height="8.327"/>
			</g>
			<rect x="29.181" y="91.672" width="8.328" height="8.328"/>
		</g>
	</g>
</g>
</svg>
