<?xml version="1.0" encoding="utf-8"?>
<!-- Generator: Adobe Illustrator 16.0.0, SVG Export Plug-In . SVG Version: 6.00 Build 0)  -->
<!DOCTYPE svg PUBLIC "-//W3C//DTD SVG 1.1//EN" "http://www.w3.org/Graphics/SVG/1.1/DTD/svg11.dtd">
<svg version="1.1" id="Layer_1" xmlns="http://www.w3.org/2000/svg" xmlns:xlink="http://www.w3.org/1999/xlink" x="0px" y="0px"
	 width="300px" height="300px" viewBox="0 0 300 300" enable-background="new 0 0 300 300" xml:space="preserve">
<g>
	<rect x="25" y="251.877" fill="#F8E5E3" width="22.93" height="22.93"/>
	<rect x="47.93" y="228.953" fill="#F8E5E3" width="22.93" height="22.924"/>
	<rect x="70.869" y="206.004" fill="#F8E5E3" width="22.939" height="22.949"/>
	<rect x="93.809" y="183.074" fill="#F8E5E3" width="22.93" height="22.93"/>
	<rect x="93.98" y="70.42" fill="#F8E5E3" width="22.94" height="91.75"/>
	<polygon fill="#F8E5E3" points="230.311,184.53 230.311,207.48 138.58,207.48 138.58,185.12 116.92,185.12 116.92,162.17 
		139.86,162.17 139.86,184.53 	"/>
	<polygon fill="#F8E5E3" points="275,70.42 275,162.17 253.24,162.17 253.24,184.53 230.311,184.53 230.311,161.6 252.061,161.6 
		252.061,71.06 230.311,71.06 230.311,48.12 253.24,48.12 253.24,70.42 	"/>
	<polygon fill="#D02630" points="252.061,71.06 252.061,161.6 230.311,161.6 230.311,184.53 139.86,184.53 139.86,162.17 
		116.92,162.17 116.92,70.42 139.86,70.42 139.86,48.12 230.311,48.12 230.311,71.06 	"/>
	<polygon fill="#F8E5E3" points="230.311,25.19 230.311,48.12 139.86,48.12 139.86,70.42 116.92,70.42 116.92,47.49 138.58,47.49 
		138.58,25.19 	"/>
</g>
</svg>
