<?xml version="1.0" encoding="utf-8"?>
<!-- Generator: Adobe Illustrator 16.0.0, SVG Export Plug-In . SVG Version: 6.00 Build 0)  -->
<!DOCTYPE svg PUBLIC "-//W3C//DTD SVG 1.1//EN" "http://www.w3.org/Graphics/SVG/1.1/DTD/svg11.dtd">
<svg version="1.1" id="Layer_1" xmlns="http://www.w3.org/2000/svg" xmlns:xlink="http://www.w3.org/1999/xlink" x="0px" y="0px"
	 width="30px" height="30px" viewBox="0 0 30 30" enable-background="new 0 0 30 30" xml:space="preserve">
<g>
	<polygon points="12.727,25.229 12.727,27.5 15,27.5 17.271,27.5 17.271,25.229 15,25.229 	"/>
	<polygon points="12.727,20.682 12.727,18.409 12.727,16.137 10.455,16.137 10.455,18.409 10.455,20.682 10.455,22.954 
		10.455,25.229 12.727,25.229 12.727,22.954 	"/>
	<polygon points="17.271,18.409 17.271,20.682 17.271,22.954 17.271,25.229 19.546,25.229 19.546,22.954 19.546,20.682 
		19.546,18.409 19.546,16.137 17.271,16.137 	"/>
	<rect x="8.182" y="13.864" width="2.273" height="2.271"/>
	<rect x="19.546" y="13.864" width="2.272" height="2.271"/>
	<polygon points="12.727,11.591 12.727,9.318 12.727,7.045 10.455,7.045 10.455,9.318 10.455,11.591 10.455,13.864 12.727,13.864 	
		"/>
	<polygon points="17.271,11.591 17.271,13.864 19.546,13.864 19.546,11.591 19.546,9.318 17.271,9.318 	"/>
	<rect x="12.727" y="4.773" width="2.273" height="2.272"/>
	<polygon points="19.546,4.773 19.546,7.045 19.546,9.318 21.818,9.318 21.818,7.045 21.818,4.773 	"/>
	<polygon points="19.546,4.773 19.546,2.5 17.271,2.5 15,2.5 15,4.773 17.271,4.773 	"/>
</g>
</svg>
