<?xml version="1.0" encoding="utf-8"?>
<!-- Generator: Adobe Illustrator 16.0.0, SVG Export Plug-In . SVG Version: 6.00 Build 0)  -->
<!DOCTYPE svg PUBLIC "-//W3C//DTD SVG 1.1//EN" "http://www.w3.org/Graphics/SVG/1.1/DTD/svg11.dtd">
<svg version="1.1" id="Layer_1" xmlns="http://www.w3.org/2000/svg" xmlns:xlink="http://www.w3.org/1999/xlink" x="0px" y="0px"
	 width="300px" height="300px" viewBox="0 0 300 300" enable-background="new 0 0 300 300" xml:space="preserve">
<g id="Layer_1_1_" display="none">
	<g display="inline">
		<rect x="411.499" y="-44.748" fill="#972068" width="25" height="25"/>
		<rect x="436.5" y="-19.749" fill="#972068" width="25" height="25"/>
		<rect x="461.5" y="5.753" fill="#972068" width="25" height="25"/>
		<rect x="486.5" y="30.753" fill="#972068" width="25" height="25.001"/>
		<rect x="536.502" y="5.25" fill="#972068" width="25" height="25"/>
		<rect x="511.498" y="30.752" fill="#972068" width="25" height="25"/>
		<rect x="511.498" y="30.752" fill="#972068" width="25" height="25"/>
		<rect x="561.502" y="-19.751" fill="#972068" width="25" height="25"/>
		<rect x="586.502" y="-44.751" fill="#972068" width="25" height="25"/>
		<rect x="386.498" y="105.502" fill="#972068" width="250.004" height="25"/>
		<rect x="611.502" y="-69.502" fill="#972068" width="25" height="200"/>
		<rect x="386.498" y="-69.498" fill="#972068" width="250.004" height="25"/>
		<rect x="386.498" y="-68.496" fill="#972068" width="25" height="198.998"/>
	</g>
	<g display="inline" opacity="0.3">
		<path fill="#972068" d="M150,46.982c33.557,0,37.523,0.132,50.787,0.727c12.262,0.56,18.898,2.61,23.326,4.329
			c5.871,2.282,10.054,4.997,14.462,9.4c4.397,4.402,7.106,8.586,9.405,14.457c1.718,4.423,3.76,11.089,4.316,23.336
			c0.607,13.25,0.736,17.221,0.736,50.777c0,33.559-0.129,37.533-0.736,50.777c-0.561,12.262-2.604,18.92-4.316,23.336
			c-2.299,5.871-5.008,10.056-9.405,14.453c-4.408,4.408-8.591,7.128-14.462,9.426c-4.428,1.718-11.084,3.758-23.326,4.318
			c-13.244,0.606-17.23,0.726-50.787,0.726c-33.557,0-37.524-0.136-50.778-0.733c-12.252-0.561-18.908-2.604-23.336-4.319
			c-5.861-2.286-10.054-5.009-14.462-9.414c-4.398-4.409-7.107-8.593-9.396-14.461c-1.718-4.408-3.77-11.105-4.329-23.328
			c-0.589-13.267-0.717-17.229-0.717-50.787c0-33.557,0.128-37.518,0.727-50.777c0.56-12.257,2.611-18.913,4.329-23.336
			c2.278-5.861,4.997-10.055,9.405-14.457c4.398-4.403,8.581-7.118,14.452-9.4c4.418-1.719,11.094-3.77,23.336-4.329
			C112.476,47.114,116.453,46.982,150,46.982 M150,24.332c-34.126,0-38.406,0.152-51.799,0.756
			c-13.392,0.609-22.521,2.744-30.514,5.843c-8.267,3.215-15.276,7.505-22.248,14.505c-7.01,6.976-11.289,13.985-14.509,22.247
			c-3.103,7.991-5.234,17.132-5.842,30.514c-0.599,13.4-0.756,17.671-0.756,51.803c0,34.146,0.157,38.407,0.756,51.818
			c0.607,13.371,2.739,22.502,5.842,30.492c3.2,8.248,7.499,15.275,14.489,22.271c6.981,6.985,14.001,11.269,22.268,14.47
			c7.992,3.12,17.122,5.242,30.495,5.842c13.411,0.637,17.691,0.776,51.817,0.776c34.146,0,38.405-0.142,51.817-0.758
			c13.371-0.606,22.502-2.722,30.494-5.841c8.248-3.201,15.274-7.504,22.268-14.489c6.969-6.974,11.271-14.002,14.47-22.248
			c3.122-7.993,5.242-17.144,5.843-30.515c0.616-13.411,0.775-17.672,0.775-51.818c0-34.132-0.159-38.402-0.756-51.803
			c-0.608-13.382-2.721-22.513-5.844-30.504c-3.198-8.262-7.498-15.281-14.488-22.257c-6.971-6.99-14-11.29-22.248-14.496
			c-7.992-3.107-17.143-5.242-30.514-5.842C188.404,24.484,184.145,24.332,150,24.332L150,24.332z"/>
		<path fill="#972068" d="M150,85.468c-35.638,0-64.532,28.893-64.532,64.531c0,35.638,28.895,64.533,64.532,64.533
			c35.637,0,64.531-28.896,64.531-64.533C214.531,114.361,185.637,85.468,150,85.468z M150,191.893
			c-23.132,0-41.882-18.752-41.882-41.894c0-23.13,18.75-41.883,41.882-41.883c23.139,0,41.891,18.753,41.891,41.883
			C191.891,173.141,173.139,191.893,150,191.893z"/>
		<path fill="#972068" d="M217.084,67.844c8.335,0,15.08,6.75,15.08,15.081c0,8.325-6.745,15.08-15.08,15.08
			c-8.325,0-15.08-6.755-15.08-15.08C202.004,74.594,208.759,67.844,217.084,67.844z"/>
	</g>
</g>
<g id="Layer_2">
	<g>
		<rect x="213.5" y="62.5" width="25.001" height="25"/>
		<g>
			<g>
				<rect x="140.531" y="87.333" width="25" height="25"/>
				<rect x="88.5" y="112.667" width="25" height="25"/>
				<rect x="115.531" y="87.333" width="25" height="25"/>
				<rect x="88.5" y="137.667" width="25" height="25"/>
				<rect x="88.5" y="162.667" width="25" height="25"/>
				<rect x="113.5" y="187.667" width="25" height="25"/>
				<rect x="138.5" y="187.667" width="25" height="25"/>
				<rect x="163.5" y="187.667" width="25" height="25"/>
				<rect x="188.5" y="162.667" width="25" height="25"/>
				<rect x="188.5" y="137.667" width="25" height="25"/>
				<rect x="188.5" y="112.667" width="25" height="25"/>
				<rect x="165.531" y="87.333" width="25" height="25"/>
			</g>
			<g>
				<rect x="13.5" y="37.5" width="25" height="225"/>
				<polygon points="207.584,262.5 182.584,262.5 157.584,262.5 38.5,262.5 38.5,287.5 157.584,287.5 182.584,287.5 207.584,287.5 
					263.5,287.5 263.5,262.5 				"/>
				<rect x="38.5" y="12.5" width="225" height="25"/>
				<rect x="263.5" y="37.5" width="25" height="225"/>
			</g>
		</g>
	</g>
</g>
</svg>
