<?xml version="1.0" encoding="utf-8"?>
<!-- Generator: Adobe Illustrator 16.0.0, SVG Export Plug-In . SVG Version: 6.00 Build 0)  -->
<!DOCTYPE svg PUBLIC "-//W3C//DTD SVG 1.1//EN" "http://www.w3.org/Graphics/SVG/1.1/DTD/svg11.dtd">
<svg version="1.1" id="Layer_1" xmlns="http://www.w3.org/2000/svg" xmlns:xlink="http://www.w3.org/1999/xlink" x="0px" y="0px"
	 width="30px" height="30px" viewBox="0 0 30 30" enable-background="new 0 0 30 30" xml:space="preserve">
<g id="Layer_1_1_">
	<polygon display="none" fill="#972068" points="17.811,5.625 16.561,5.625 15.31,5.625 9.355,5.625 9.355,6.875 15.31,6.875 
		16.561,6.875 17.811,6.875 20.605,6.875 20.605,5.625 	"/>
</g>
<g>
	<polygon fill="#D02630" points="25.257,11.021 25.257,8.741 22.979,8.741 22.979,6.508 20.698,6.508 20.698,8.787 22.979,8.787 
		22.979,11.021 25.221,11.021 25.221,25.816 20.188,25.816 17.909,25.816 15.629,25.816 4.779,25.816 4.779,11.021 7.022,11.021 
		7.022,8.741 4.743,8.741 4.743,11.021 2.5,11.021 2.5,25.816 4.771,25.816 4.771,28.098 15.629,28.098 17.909,28.098 
		20.188,28.098 25.285,28.098 25.285,25.816 27.5,25.816 27.5,11.021 	"/>
	<rect x="18.419" y="13.3" fill="#D02630" width="2.279" height="2.279"/>
	<rect x="20.698" y="11.021" fill="#D02630" width="2.278" height="2.279"/>
	<rect x="7.022" y="11.021" fill="#D02630" width="2.279" height="2.279"/>
	<rect x="9.302" y="13.3" fill="#D02630" width="2.279" height="2.279"/>
	<rect x="13.86" y="17.869" fill="#D02630" width="2.279" height="2.277"/>
	<rect x="11.581" y="15.579" fill="#D02630" width="2.279" height="2.278"/>
	<rect x="16.141" y="15.59" fill="#D02630" width="2.278" height="2.279"/>
	<polygon fill="#D02630" points="16.141,4.183 18.419,4.183 18.419,1.902 16.141,1.902 13.86,1.902 11.581,1.902 11.581,4.183 
		13.86,4.183 	"/>
	<rect x="7.022" y="6.462" fill="#D02630" width="2.279" height="2.279"/>
	<rect x="9.302" y="4.183" fill="#D02630" width="2.279" height="2.279"/>
	<rect x="18.419" y="4.229" fill="#D02630" width="2.279" height="2.279"/>
</g>
</svg>
