<?xml version="1.0" encoding="utf-8"?>
<!-- Generator: Adobe Illustrator 16.0.0, SVG Export Plug-In . SVG Version: 6.00 Build 0)  -->
<!DOCTYPE svg PUBLIC "-//W3C//DTD SVG 1.1//EN" "http://www.w3.org/Graphics/SVG/1.1/DTD/svg11.dtd">
<svg version="1.1" id="Layer_1" xmlns="http://www.w3.org/2000/svg" xmlns:xlink="http://www.w3.org/1999/xlink" x="0px" y="0px"
	 width="30px" height="30px" viewBox="0 0 30 30" enable-background="new 0 0 30 30" xml:space="preserve">
<g id="Layer_1_1_">
	<polygon display="none" fill="#972068" points="17.811,5.625 16.561,5.625 15.31,5.625 9.355,5.625 9.355,6.875 15.31,6.875 
		16.561,6.875 17.811,6.875 20.605,6.875 20.605,5.625 	"/>
</g>
<path fill="#D03630" d="M25.255,7.601h-0.034V5.322h-5.097h-2.279h-2.278H4.71v2.279H2.5v14.798h2.271v2.278h10.855h2.278h2.279
	h5.098v-2.278H27.5V7.601H25.255z M25.221,22.399h-5.036h-2.279h-2.278H4.779V9.88h2.245v2.233h2.279V9.834H7.024V7.601h8.542h2.278
	h2.279h2.853V9.88h2.244V22.399z"/>
<polygon fill="#D03630" points="13.86,14.438 11.582,14.438 11.582,16.717 13.86,16.717 16.14,16.717 18.418,16.717 18.418,14.438 
	16.14,14.438 "/>
<rect x="20.697" y="9.88" fill="#D03630" width="2.279" height="2.279"/>
<rect x="18.418" y="12.159" fill="#D03630" width="2.279" height="2.279"/>
<rect x="9.303" y="12.113" fill="#D03630" width="2.279" height="2.279"/>
</svg>
