<?xml version="1.0" encoding="utf-8"?>
<!-- Generator: Adobe Illustrator 16.0.0, SVG Export Plug-In . SVG Version: 6.00 Build 0)  -->
<!DOCTYPE svg PUBLIC "-//W3C//DTD SVG 1.1//EN" "http://www.w3.org/Graphics/SVG/1.1/DTD/svg11.dtd">
<svg version="1.1" id="Layer_1" xmlns="http://www.w3.org/2000/svg" xmlns:xlink="http://www.w3.org/1999/xlink" x="0px" y="0px"
	 width="30px" height="30px" viewBox="0 0 30 30" enable-background="new 0 0 30 30" xml:space="preserve">
<g>
	<rect x="2.5" y="25.188" fill="#FFF3F9" width="2.293" height="2.293"/>
	<rect x="4.793" y="22.896" fill="#FFF3F9" width="2.293" height="2.291"/>
	<rect x="7.087" y="20.602" fill="#FFF3F9" width="2.294" height="2.295"/>
	<rect x="9.381" y="18.309" fill="#FFF3F9" width="2.293" height="2.293"/>
	<polygon fill="#FFF3F9" points="11.692,11.629 11.692,9.336 11.692,7.042 9.398,7.042 9.398,9.336 9.398,11.629 9.398,13.923 
		9.398,16.217 11.692,16.217 11.692,13.923 	"/>
	<polygon fill="#FFF3F9" points="18.443,18.453 16.15,18.453 13.986,18.453 13.986,16.217 11.692,16.217 11.692,18.514 
		13.858,18.514 13.858,20.748 16.15,20.748 18.443,20.748 20.736,20.748 23.031,20.748 23.031,18.453 20.736,18.453 	"/>
	<polygon fill="#FFF3F9" points="25.324,7.042 25.324,4.812 23.031,4.812 23.031,7.106 25.206,7.106 25.206,9.336 25.206,11.629 
		25.206,13.923 25.206,16.16 23.031,16.16 23.031,18.453 25.324,18.453 25.324,16.217 27.5,16.217 27.5,13.923 27.5,11.629 
		27.5,9.336 27.5,7.042 	"/>
	<polygon fill="#FFF3F9" points="13.986,4.812 16.15,4.812 18.443,4.812 20.736,4.812 23.031,4.812 23.031,2.52 20.736,2.52 
		18.443,2.52 16.15,2.52 13.858,2.52 13.858,4.749 11.692,4.749 11.692,7.042 13.986,7.042 	"/>
</g>
</svg>
