<?xml version="1.0" encoding="utf-8"?>
<!-- Generator: Adobe Illustrator 16.0.0, SVG Export Plug-In . SVG Version: 6.00 Build 0)  -->
<!DOCTYPE svg PUBLIC "-//W3C//DTD SVG 1.1//EN" "http://www.w3.org/Graphics/SVG/1.1/DTD/svg11.dtd">
<svg version="1.1" id="Layer_1" xmlns="http://www.w3.org/2000/svg" xmlns:xlink="http://www.w3.org/1999/xlink" x="0px" y="0px"
	 width="30px" height="30px" viewBox="0 0 30 30" enable-background="new 0 0 30 30" xml:space="preserve">
<g id="Layer_1_1_">
	<polygon display="none" fill="#972068" points="17.811,5.625 16.561,5.625 15.31,5.625 9.355,5.625 9.355,6.875 15.31,6.875 
		16.561,6.875 17.811,6.875 20.605,6.875 20.605,5.625 	"/>
</g>
<g>
	<polygon fill="#D02630" points="13.849,20.688 13.849,22.964 16.124,22.964 18.398,22.964 18.398,20.688 16.124,20.688 	"/>
	<polygon fill="#D02630" points="9.298,22.964 9.298,25.238 11.573,25.238 13.849,25.238 13.849,22.964 11.573,22.964 	"/>
	<rect x="22.949" y="16.139" fill="#D02630" width="2.275" height="2.274"/>
	<polygon fill="#D02630" points="4.775,25.238 4.775,22.964 4.775,20.688 4.775,18.413 4.775,16.139 4.775,13.862 4.775,11.587 
		4.775,9.312 4.775,7.037 4.775,4.763 2.5,4.763 2.5,7.037 2.5,9.312 2.5,11.587 2.5,13.862 2.5,16.139 2.5,18.413 2.5,20.688 
		2.5,22.964 2.5,25.238 4.748,25.238 4.748,27.514 7.023,27.514 9.298,27.514 9.298,25.238 7.023,25.238 	"/>
	<polygon fill="#D02630" points="18.398,18.413 18.398,20.688 20.675,20.688 22.949,20.688 22.949,18.413 20.675,18.413 	"/>
	<polygon fill="#D02630" points="25.252,13.862 25.252,11.587 22.977,11.587 22.977,13.862 25.225,13.862 25.225,16.139 
		27.5,16.139 27.5,13.862 	"/>
	<polygon fill="#D02630" points="16.15,7.037 13.994,7.037 13.994,4.763 11.719,4.763 9.444,4.763 9.444,7.037 11.719,7.037 
		13.876,7.037 13.876,9.312 16.15,9.312 18.427,9.312 18.427,7.037 	"/>
	<polygon fill="#D02630" points="20.702,9.312 18.427,9.312 18.427,11.587 20.702,11.587 22.977,11.587 22.977,9.312 	"/>
	<polygon fill="#D02630" points="9.326,4.763 9.326,2.486 7.05,2.486 4.775,2.486 4.775,4.763 7.05,4.763 	"/>
</g>
</svg>
