<?xml version="1.0" encoding="utf-8"?>
<!-- Generator: Adobe Illustrator 16.0.0, SVG Export Plug-In . SVG Version: 6.00 Build 0)  -->
<!DOCTYPE svg PUBLIC "-//W3C//DTD SVG 1.1//EN" "http://www.w3.org/Graphics/SVG/1.1/DTD/svg11.dtd">
<svg version="1.1" id="Layer_1" xmlns="http://www.w3.org/2000/svg" xmlns:xlink="http://www.w3.org/1999/xlink" x="0px" y="0px"
	 width="30px" height="30px" viewBox="0 0 30 30" enable-background="new 0 0 30 30" xml:space="preserve">
<g>
	<polygon fill="#FFF3F9" points="20.682,4.773 22.955,4.773 22.955,2.5 20.682,2.5 18.409,2.5 16.137,2.5 16.137,4.773 
		18.409,4.773 	"/>
	<rect x="25.229" y="2.5" fill="#FFF3F9" width="2.271" height="2.273"/>
	<polygon fill="#FFF3F9" points="22.955,7.046 22.955,9.319 22.955,11.591 25.229,11.591 25.229,9.319 25.229,7.046 25.229,4.773 
		22.955,4.773 	"/>
	<polygon fill="#FFF3F9" points="16.137,7.046 16.137,4.773 13.863,4.773 13.863,7.046 13.863,9.319 16.137,9.319 	"/>
	<polygon fill="#FFF3F9" points="11.591,11.591 13.863,11.591 13.863,9.319 11.591,9.319 9.318,9.319 9.318,11.591 	"/>
	<polygon fill="#FFF3F9" points="20.682,13.864 20.682,16.136 20.682,18.409 20.682,20.682 22.955,20.682 22.955,18.409 
		22.955,16.136 22.955,13.864 22.955,11.591 20.682,11.591 	"/>
	<polygon fill="#FFF3F9" points="9.318,16.136 9.318,13.864 7.046,13.864 7.046,11.591 7.046,9.319 9.318,9.319 9.318,7.046 
		7.046,7.046 4.772,7.046 4.772,4.773 2.5,4.773 2.5,7.046 2.5,9.319 2.5,11.591 4.772,11.591 4.772,13.864 2.5,13.864 2.5,16.136 
		4.772,16.136 7.046,16.136 7.046,18.409 4.772,18.409 4.772,20.682 7.046,20.682 9.318,20.682 9.318,18.409 	"/>
	<rect x="9.318" y="20.682" fill="#FFF3F9" width="2.272" height="2.273"/>
	<rect x="18.409" y="20.682" fill="#FFF3F9" width="2.272" height="2.273"/>
	<polygon fill="#FFF3F9" points="13.863,22.955 13.863,25.229 16.137,25.229 18.409,25.229 18.409,22.955 16.137,22.955 	"/>
	<polygon fill="#FFF3F9" points="9.318,25.229 9.318,22.955 7.046,22.955 7.046,25.229 4.772,25.229 4.772,27.5 7.046,27.5 
		9.318,27.5 11.591,27.5 13.863,27.5 13.863,25.229 11.591,25.229 	"/>
</g>
</svg>
