<?xml version="1.0" encoding="utf-8"?>
<!-- Generator: Adobe Illustrator 16.0.0, SVG Export Plug-In . SVG Version: 6.00 Build 0)  -->
<!DOCTYPE svg PUBLIC "-//W3C//DTD SVG 1.1//EN" "http://www.w3.org/Graphics/SVG/1.1/DTD/svg11.dtd">
<svg version="1.1" id="Layer_1" xmlns="http://www.w3.org/2000/svg" xmlns:xlink="http://www.w3.org/1999/xlink" x="0px" y="0px"
	 width="300px" height="150px" viewBox="-135 -67.5 300 150" enable-background="new -135 -67.5 300 150" xml:space="preserve">
<g>
	<polygon fill="#972068" points="90,-31.567 90,-5.532 90,20.527 90,46.562 140,46.562 140,20.527 140,-5.532 140,-31.567 	"/>
	<polygon fill="#972068" points="-60,-5.532 -60,-31.567 -110,-31.567 -110,-5.532 -110,20.527 -110,46.562 -60,46.562 -60,20.527 	
		"/>
	<polygon fill="#972068" points="40.01,20.527 40.01,-5.532 40.01,-31.567 90,-31.567 90,-57.607 40.01,-57.607 -10,-57.607 
		-60,-57.607 -60,-31.567 -10,-31.567 -10,-5.532 -10,20.527 -10,46.562 -60,46.562 -60,72.607 -10,72.607 40.01,72.607 90,72.607 
		90,46.562 40.01,46.562 	"/>
</g>
<g id="Layer_2">
</g>
<g id="Layer_3">
</g>
</svg>
