<?xml version="1.0" encoding="utf-8"?>
<!-- Generator: Adobe Illustrator 16.0.0, SVG Export Plug-In . SVG Version: 6.00 Build 0)  -->
<!DOCTYPE svg PUBLIC "-//W3C//DTD SVG 1.1//EN" "http://www.w3.org/Graphics/SVG/1.1/DTD/svg11.dtd">
<svg version="1.1" id="Layer_1" xmlns="http://www.w3.org/2000/svg" xmlns:xlink="http://www.w3.org/1999/xlink" x="0px" y="0px"
	 width="300px" height="150px" viewBox="-135 -67.5 300 150" enable-background="new -135 -67.5 300 150" xml:space="preserve">
<polygon fill="#972068" points="90.004,-57.606 90.004,-31.568 40.008,-31.568 40.008,-5.531 -9.998,-5.531 -9.998,-31.568 
	-59.999,-31.568 -59.999,-57.606 -110,-57.606 -110,-31.568 -110,-5.531 -59.999,-5.531 -59.999,20.521 -110,20.521 -110,46.554 
	-110,72.606 -59.999,72.606 -59.999,46.554 -9.998,46.554 -9.998,20.521 40.008,20.521 40.008,46.554 90.004,46.554 90.004,72.606 
	140,72.606 140,46.554 140,20.521 90.004,20.521 90.004,-5.531 140,-5.531 140,-31.568 140,-57.606 "/>
<g id="Layer_2">
</g>
<g id="Layer_3">
</g>
</svg>
