<?xml version="1.0" encoding="utf-8"?>
<!-- Generator: Adobe Illustrator 16.0.0, SVG Export Plug-In . SVG Version: 6.00 Build 0)  -->
<!DOCTYPE svg PUBLIC "-//W3C//DTD SVG 1.1//EN" "http://www.w3.org/Graphics/SVG/1.1/DTD/svg11.dtd">
<svg version="1.1" id="Layer_1" xmlns="http://www.w3.org/2000/svg" xmlns:xlink="http://www.w3.org/1999/xlink" x="0px" y="0px"
	 width="30px" height="30px" viewBox="0 0 30 30" enable-background="new 0 0 30 30" xml:space="preserve">
<g id="Layer_1_1_">
	<polygon display="none" fill="#972068" points="17.811,5.625 16.561,5.625 15.31,5.625 9.355,5.625 9.355,6.875 15.31,6.875 
		16.561,6.875 17.811,6.875 20.605,6.875 20.605,5.625 	"/>
</g>
<g>
	<path fill="#972068" d="M25.257,7.602h-0.036V5.323h-5.096h-2.279h-2.279H4.706v2.279H2.5v14.797h2.271v2.279h10.858h2.28h2.278
		h5.098v-2.279H27.5V7.602H25.257z M25.221,22.398h-5.033v-0.001h-2.278h-2.28H4.779V9.88h2.243v2.233h2.279V9.834H7.022V7.602
		h8.542h2.281h2.278h2.853V9.88h2.244V22.398z"/>
	<polygon fill="#972068" points="13.86,14.438 11.581,14.438 11.581,16.719 13.86,16.719 16.141,16.719 18.419,16.719 
		18.419,14.438 16.141,14.438 	"/>
	<rect x="20.698" y="9.88" fill="#972068" width="2.278" height="2.279"/>
	<rect x="18.419" y="12.16" fill="#972068" width="2.279" height="2.279"/>
	<rect x="9.302" y="12.114" fill="#972068" width="2.279" height="2.278"/>
</g>
</svg>
